<?xml version="1.0" encoding="UTF-8"?>
<svg xmlns="http://www.w3.org/2000/svg" width="2668" height="536" viewBox="0 0 2668 536" role="img" aria-labelledby="title desc">
  <title id="title">Fase 0: Recepcion y evaluacion inicial</title>
  <desc id="desc">Diagrama generado desde process.yaml con lanes horizontales, actores a la izquierda, tamanos fijos y conectores ortogonales.</desc>
  <defs>
    <marker id="arrow" viewBox="0 0 10 10" refX="9" refY="5" markerWidth="8" markerHeight="8" orient="auto-start-reverse">
      <path d="M 0 0 L 10 5 L 0 10 z" fill="#4f5b67"/>
    </marker>
  </defs>
  <rect x="24" y="24" width="2620" height="488" rx="0" fill="#ffffff" stroke="#4f5b67" stroke-width="1.5"/>
  <text x="1334.0" y="56" text-anchor="middle" font-family="Arial, sans-serif" font-size="20" font-weight="700" fill="#1f2933">Fase 0: Recepcion y evaluacion inicial</text>
  <rect x="24" y="80" width="2620" height="144" fill="#f8fafc" stroke="#d5dce6" stroke-width="1"/>
  <rect x="24" y="80" width="76" height="144" fill="#e6edf7" stroke="#d5dce6" stroke-width="1"/>
  <text x="62.0" y="152.0" text-anchor="middle" dominant-baseline="middle" transform="rotate(-90 62.0 152.0)" font-family="Arial, sans-serif" font-size="13" font-weight="700" fill="#1f2933">Promotor</text>
  <rect x="24" y="224" width="2620" height="144" fill="#eef4ff" stroke="#d5dce6" stroke-width="1"/>
  <rect x="24" y="224" width="76" height="144" fill="#e6edf7" stroke="#d5dce6" stroke-width="1"/>
  <text x="62.0" y="296.0" text-anchor="middle" dominant-baseline="middle" transform="rotate(-90 62.0 296.0)" font-family="Arial, sans-serif" font-size="13" font-weight="700" fill="#1f2933">Product Owner</text>
  <rect x="24" y="368" width="2620" height="144" fill="#f8fafc" stroke="#d5dce6" stroke-width="1"/>
  <rect x="24" y="368" width="76" height="144" fill="#e6edf7" stroke="#d5dce6" stroke-width="1"/>
  <text x="62.0" y="440.0" text-anchor="middle" dominant-baseline="middle" transform="rotate(-90 62.0 440.0)" font-family="Arial, sans-serif" font-size="13" font-weight="700" fill="#1f2933">Comite Transformacion</text>
  <g fill="none" stroke="#4f5b67" stroke-width="1.4" marker-end="url(#arrow)">
    <polyline points="159.0,152.0 205.0,152.0 251.0,152.0"/>
    <polyline points="393.0,152.0 411.0,152.0 429.0,152.0"/>
    <polyline points="571.0,152.0 589.0,152.0 589.0,296.0 607.0,296.0"/>
    <polyline points="749.0,296.0 771.5,296.0 794.0,296.0"/>
    <polyline points="918.0,296.0 940.5,296.0 963.0,296.0"/>
    <polyline points="1105.0,296.0 1123.0,296.0 1123.0,152.0 1141.0,152.0"/>
    <polyline points="1141.0,152.0 713.0,152.0 713.0,296.0 749.0,296.0"/>
    <polyline points="918.0,296.0 1118.5,296.0 1319.0,296.0"/>
    <polyline points="1461.0,296.0 1479.0,296.0 1497.0,296.0"/>
    <polyline points="1639.0,296.0 1657.0,296.0 1657.0,440.0 1675.0,440.0"/>
    <polyline points="1817.0,440.0 1839.5,440.0 1862.0,440.0"/>
    <polyline points="1986.0,440.0 2008.5,440.0 2008.5,296.0 2031.0,296.0"/>
    <polyline points="1986.0,440.0 2097.5,440.0 2209.0,440.0"/>
    <polyline points="2173.0,296.0 2308.0,296.0 2443.0,296.0"/>
    <polyline points="2351.0,440.0 2397.0,440.0 2397.0,296.0 2443.0,296.0"/>
  </g>
  <rect x="932.0" y="275.0" width="26" height="18" fill="#ffffff" stroke="none"/>
  <text x="945.0" y="288.0" text-anchor="middle" font-family="Arial, sans-serif" font-size="11" fill="#1f2933">No</text>
  <rect x="1110.0" y="275.0" width="26" height="18" fill="#ffffff" stroke="none"/>
  <text x="1123.0" y="288.0" text-anchor="middle" font-family="Arial, sans-serif" font-size="11" fill="#1f2933">Si</text>
  <rect x="2000.0" y="347.0" width="26" height="18" fill="#ffffff" stroke="none"/>
  <text x="2013.0" y="360.0" text-anchor="middle" font-family="Arial, sans-serif" font-size="11" fill="#1f2933">No</text>
  <rect x="2089.0" y="419.0" width="26" height="18" fill="#ffffff" stroke="none"/>
  <text x="2102.0" y="432.0" text-anchor="middle" font-family="Arial, sans-serif" font-size="11" fill="#1f2933">Si</text>
  <circle cx="144" cy="152.0" r="15.0" fill="#1f2933" stroke="#1f2933" stroke-width="1.5"/>
  <rect x="251.0" y="126.0" width="142" height="52" rx="4" fill="#ffffff" stroke="#4f5b67" stroke-width="1.5"/>
  <text x="322" y="156.0" text-anchor="middle" font-family="Arial, sans-serif" font-size="12" fill="#1f2933">Formalizar brief</text>
  <rect x="429.0" y="126.0" width="142" height="52" rx="4" fill="#ffffff" stroke="#4f5b67" stroke-width="1.5"/>
  <text x="500" y="156.0" text-anchor="middle" font-family="Arial, sans-serif" font-size="12" fill="#1f2933">Enviar iniciativa</text>
  <rect x="607.0" y="270.0" width="142" height="52" rx="4" fill="#ffffff" stroke="#4f5b67" stroke-width="1.5"/>
  <text x="678" y="300.0" text-anchor="middle" font-family="Arial, sans-serif" font-size="12" fill="#1f2933">Revisar brief</text>
  <polygon points="856,260.0 918.0,296.0 856,332.0 794.0,296.0" fill="#ffffff" stroke="#4f5b67" stroke-width="1.5"/>
  <text x="856" y="300.0" text-anchor="middle" font-family="Arial, sans-serif" font-size="11" fill="#1f2933">Brief completo</text>
  <rect x="963.0" y="270.0" width="142" height="52" rx="4" fill="#ffffff" stroke="#4f5b67" stroke-width="1.5"/>
  <text x="1034" y="300.0" text-anchor="middle" font-family="Arial, sans-serif" font-size="12" fill="#1f2933">Solicitar ajustes</text>
  <rect x="1141.0" y="126.0" width="142" height="52" rx="4" fill="#ffffff" stroke="#4f5b67" stroke-width="1.5"/>
  <text x="1212" y="156.0" text-anchor="middle" font-family="Arial, sans-serif" font-size="12" fill="#1f2933">Actualizar brief</text>
  <rect x="1319.0" y="270.0" width="142" height="52" rx="4" fill="#ffffff" stroke="#4f5b67" stroke-width="1.5"/>
  <text x="1390" y="300.0" text-anchor="middle" font-family="Arial, sans-serif" font-size="12" fill="#1f2933">Estimar effort</text>
  <rect x="1497.0" y="270.0" width="142" height="52" rx="4" fill="#ffffff" stroke="#4f5b67" stroke-width="1.5"/>
  <text x="1568" y="300.0" text-anchor="middle" font-family="Arial, sans-serif" font-size="12" fill="#1f2933">Crear epica</text>
  <rect x="1675.0" y="414.0" width="142" height="52" rx="4" fill="#ffffff" stroke="#4f5b67" stroke-width="1.5"/>
  <text x="1746" y="444.0" text-anchor="middle" font-family="Arial, sans-serif" font-size="12" fill="#1f2933">Evaluar iniciativa</text>
  <polygon points="1924,404.0 1986.0,440.0 1924,476.0 1862.0,440.0" fill="#ffffff" stroke="#4f5b67" stroke-width="1.5"/>
  <text x="1924" y="437.5" text-anchor="middle" font-family="Arial, sans-serif" font-size="11" fill="#1f2933">Iniciativa</text>
  <text x="1924" y="450.5" text-anchor="middle" font-family="Arial, sans-serif" font-size="11" fill="#1f2933">aprobada</text>
  <rect x="2031.0" y="270.0" width="142" height="52" rx="4" fill="#ffffff" stroke="#4f5b67" stroke-width="1.5"/>
  <text x="2102" y="300.0" text-anchor="middle" font-family="Arial, sans-serif" font-size="12" fill="#1f2933">Comunicar rechazo</text>
  <rect x="2209.0" y="414.0" width="142" height="52" rx="4" fill="#ffffff" stroke="#4f5b67" stroke-width="1.5"/>
  <text x="2280" y="444.0" text-anchor="middle" font-family="Arial, sans-serif" font-size="12" fill="#1f2933">Priorizar epica</text>
  <circle cx="2458" cy="296.0" r="15.0" fill="#ffffff" stroke="#1f2933" stroke-width="2"/>
  <circle cx="2458" cy="296.0" r="10.0" fill="#1f2933" stroke="none"/>
</svg>
