<?xml version="1.0" encoding="UTF-8"?>
<svg xmlns="http://www.w3.org/2000/svg" width="1600" height="392" viewBox="0 0 1600 392" role="img" aria-labelledby="title desc">
  <title id="title">Fase 3: Validacion integrada y despliegue</title>
  <desc id="desc">Diagrama generado desde process.yaml con lanes horizontales, actores a la izquierda, tamanos fijos y conectores ortogonales.</desc>
  <defs>
    <marker id="arrow" viewBox="0 0 10 10" refX="9" refY="5" markerWidth="8" markerHeight="8" orient="auto-start-reverse">
      <path d="M 0 0 L 10 5 L 0 10 z" fill="#4f5b67"/>
    </marker>
  </defs>
  <rect x="24" y="24" width="1552" height="344" rx="0" fill="#ffffff" stroke="#4f5b67" stroke-width="1.5"/>
  <text x="800.0" y="56" text-anchor="middle" font-family="Arial, sans-serif" font-size="20" font-weight="700" fill="#1f2933">Fase 3: Validacion integrada y despliegue</text>
  <rect x="24" y="80" width="1552" height="144" fill="#f8fafc" stroke="#d5dce6" stroke-width="1"/>
  <rect x="24" y="80" width="76" height="144" fill="#e6edf7" stroke="#d5dce6" stroke-width="1"/>
  <text x="62.0" y="152.0" text-anchor="middle" dominant-baseline="middle" transform="rotate(-90 62.0 152.0)" font-family="Arial, sans-serif" font-size="13" font-weight="700" fill="#1f2933">Product Owner</text>
  <rect x="24" y="224" width="1552" height="144" fill="#eef4ff" stroke="#d5dce6" stroke-width="1"/>
  <rect x="24" y="224" width="76" height="144" fill="#e6edf7" stroke="#d5dce6" stroke-width="1"/>
  <text x="62.0" y="296.0" text-anchor="middle" dominant-baseline="middle" transform="rotate(-90 62.0 296.0)" font-family="Arial, sans-serif" font-size="13" font-weight="700" fill="#1f2933">Equipo Tecnico</text>
  <g fill="none" stroke="#4f5b67" stroke-width="1.4" marker-end="url(#arrow)">
    <polyline points="159.0,152.0 205.0,152.0 251.0,152.0"/>
    <polyline points="393.0,152.0 415.5,152.0 438.0,152.0"/>
    <polyline points="562.0,152.0 584.5,152.0 584.5,296.0 607.0,296.0"/>
    <polyline points="607.0,296.0 357.0,296.0 357.0,152.0 393.0,152.0"/>
    <polyline points="562.0,152.0 673.5,152.0 673.5,296.0 785.0,296.0"/>
    <polyline points="927.0,296.0 945.0,296.0 963.0,296.0"/>
    <polyline points="1105.0,296.0 1123.0,296.0 1123.0,152.0 1141.0,152.0"/>
    <polyline points="1283.0,152.0 1329.0,152.0 1375.0,152.0"/>
  </g>
  <rect x="576.0" y="203.0" width="26" height="18" fill="#ffffff" stroke="none"/>
  <text x="589.0" y="216.0" text-anchor="middle" font-family="Arial, sans-serif" font-size="11" fill="#1f2933">No</text>
  <rect x="665.0" y="203.0" width="26" height="18" fill="#ffffff" stroke="none"/>
  <text x="678.0" y="216.0" text-anchor="middle" font-family="Arial, sans-serif" font-size="11" fill="#1f2933">Si</text>
  <circle cx="144" cy="152.0" r="15.0" fill="#1f2933" stroke="#1f2933" stroke-width="1.5"/>
  <rect x="251.0" y="126.0" width="142" height="52" rx="4" fill="#ffffff" stroke="#4f5b67" stroke-width="1.5"/>
  <text x="322" y="156.0" text-anchor="middle" font-family="Arial, sans-serif" font-size="12" fill="#1f2933">Validar alcance</text>
  <polygon points="500,116.0 562.0,152.0 500,188.0 438.0,152.0" fill="#ffffff" stroke="#4f5b67" stroke-width="1.5"/>
  <text x="500" y="149.5" text-anchor="middle" font-family="Arial, sans-serif" font-size="11" fill="#1f2933">Validacion</text>
  <text x="500" y="162.5" text-anchor="middle" font-family="Arial, sans-serif" font-size="11" fill="#1f2933">correcta</text>
  <rect x="607.0" y="270.0" width="142" height="52" rx="4" fill="#ffffff" stroke="#4f5b67" stroke-width="1.5"/>
  <text x="678" y="300.0" text-anchor="middle" font-family="Arial, sans-serif" font-size="12" fill="#1f2933">Corregir alcance</text>
  <rect x="785.0" y="270.0" width="142" height="52" rx="4" fill="#ffffff" stroke="#4f5b67" stroke-width="1.5"/>
  <text x="856" y="293.0" text-anchor="middle" font-family="Arial, sans-serif" font-size="12" fill="#1f2933">Desplegar</text>
  <text x="856" y="307.0" text-anchor="middle" font-family="Arial, sans-serif" font-size="12" fill="#1f2933">produccion</text>
  <rect x="963.0" y="270.0" width="142" height="52" rx="4" fill="#ffffff" stroke="#4f5b67" stroke-width="1.5"/>
  <text x="1034" y="300.0" text-anchor="middle" font-family="Arial, sans-serif" font-size="12" fill="#1f2933">Cerrar features</text>
  <rect x="1141.0" y="126.0" width="142" height="52" rx="4" fill="#ffffff" stroke="#4f5b67" stroke-width="1.5"/>
  <text x="1212" y="156.0" text-anchor="middle" font-family="Arial, sans-serif" font-size="12" fill="#1f2933">Cerrar epica</text>
  <circle cx="1390" cy="152.0" r="15.0" fill="#ffffff" stroke="#1f2933" stroke-width="2"/>
  <circle cx="1390" cy="152.0" r="10.0" fill="#1f2933" stroke="none"/>
</svg>
