<?xml version="1.0" encoding="UTF-8"?>
<svg xmlns="http://www.w3.org/2000/svg" width="2312" height="392" viewBox="0 0 2312 392" role="img" aria-labelledby="title desc">
  <title id="title">Fase 2: Construccion y validacion funcional</title>
  <desc id="desc">Diagrama generado desde process.yaml con lanes horizontales, actores a la izquierda, tamanos fijos y conectores ortogonales.</desc>
  <defs>
    <marker id="arrow" viewBox="0 0 10 10" refX="9" refY="5" markerWidth="8" markerHeight="8" orient="auto-start-reverse">
      <path d="M 0 0 L 10 5 L 0 10 z" fill="#4f5b67"/>
    </marker>
  </defs>
  <rect x="24" y="24" width="2264" height="344" rx="0" fill="#ffffff" stroke="#4f5b67" stroke-width="1.5"/>
  <text x="1156.0" y="56" text-anchor="middle" font-family="Arial, sans-serif" font-size="20" font-weight="700" fill="#1f2933">Fase 2: Construccion y validacion funcional</text>
  <rect x="24" y="80" width="2264" height="144" fill="#f8fafc" stroke="#d5dce6" stroke-width="1"/>
  <rect x="24" y="80" width="76" height="144" fill="#e6edf7" stroke="#d5dce6" stroke-width="1"/>
  <text x="62.0" y="152.0" text-anchor="middle" dominant-baseline="middle" transform="rotate(-90 62.0 152.0)" font-family="Arial, sans-serif" font-size="13" font-weight="700" fill="#1f2933">Product Owner</text>
  <rect x="24" y="224" width="2264" height="144" fill="#eef4ff" stroke="#d5dce6" stroke-width="1"/>
  <rect x="24" y="224" width="76" height="144" fill="#e6edf7" stroke="#d5dce6" stroke-width="1"/>
  <text x="62.0" y="296.0" text-anchor="middle" dominant-baseline="middle" transform="rotate(-90 62.0 296.0)" font-family="Arial, sans-serif" font-size="13" font-weight="700" fill="#1f2933">Equipo Tecnico</text>
  <g fill="none" stroke="#4f5b67" stroke-width="1.4" marker-end="url(#arrow)">
    <polyline points="159.0,152.0 209.5,152.0 260.0,152.0"/>
    <polyline points="384.0,152.0 406.5,152.0 429.0,152.0"/>
    <polyline points="571.0,152.0 589.0,152.0 589.0,296.0 607.0,296.0"/>
    <polyline points="749.0,296.0 767.0,296.0 785.0,296.0"/>
    <polyline points="927.0,296.0 945.0,296.0 945.0,152.0 963.0,152.0"/>
    <polyline points="963.0,152.0 348.0,152.0 384.0,152.0"/>
    <polyline points="384.0,152.0 762.5,152.0 762.5,296.0 1141.0,296.0"/>
    <polyline points="1283.0,296.0 1301.0,296.0 1319.0,296.0"/>
    <polyline points="1461.0,296.0 1479.0,296.0 1497.0,296.0"/>
    <polyline points="1639.0,296.0 1661.5,296.0 1684.0,296.0"/>
    <polyline points="1808.0,296.0 1830.5,296.0 1853.0,296.0"/>
    <polyline points="1853.0,296.0 1603.0,296.0 1639.0,296.0"/>
    <polyline points="1995.0,296.0 2041.0,296.0 2087.0,296.0"/>
  </g>
  <rect x="398.0" y="131.0" width="26" height="18" fill="#ffffff" stroke="none"/>
  <text x="411.0" y="144.0" text-anchor="middle" font-family="Arial, sans-serif" font-size="11" fill="#1f2933">No</text>
  <rect x="754.0" y="203.0" width="26" height="18" fill="#ffffff" stroke="none"/>
  <text x="767.0" y="216.0" text-anchor="middle" font-family="Arial, sans-serif" font-size="11" fill="#1f2933">Si</text>
  <rect x="1822.0" y="275.0" width="26" height="18" fill="#ffffff" stroke="none"/>
  <text x="1835.0" y="288.0" text-anchor="middle" font-family="Arial, sans-serif" font-size="11" fill="#1f2933">No</text>
  <circle cx="144" cy="152.0" r="15.0" fill="#1f2933" stroke="#1f2933" stroke-width="1.5"/>
  <polygon points="322,116.0 384.0,152.0 322,188.0 260.0,152.0" fill="#ffffff" stroke="#4f5b67" stroke-width="1.5"/>
  <text x="322" y="149.5" text-anchor="middle" font-family="Arial, sans-serif" font-size="11" fill="#1f2933">Dependencias</text>
  <text x="322" y="162.5" text-anchor="middle" font-family="Arial, sans-serif" font-size="11" fill="#1f2933">resueltas</text>
  <rect x="429.0" y="126.0" width="142" height="52" rx="4" fill="#ffffff" stroke="#4f5b67" stroke-width="1.5"/>
  <text x="500" y="156.0" text-anchor="middle" font-family="Arial, sans-serif" font-size="12" fill="#1f2933">Marcar bloqueada</text>
  <rect x="607.0" y="270.0" width="142" height="52" rx="4" fill="#ffffff" stroke="#4f5b67" stroke-width="1.5"/>
  <text x="678" y="300.0" text-anchor="middle" font-family="Arial, sans-serif" font-size="12" fill="#1f2933">Acordar contrato</text>
  <rect x="785.0" y="270.0" width="142" height="52" rx="4" fill="#ffffff" stroke="#4f5b67" stroke-width="1.5"/>
  <text x="856" y="293.0" text-anchor="middle" font-family="Arial, sans-serif" font-size="12" fill="#1f2933">Comprometer</text>
  <text x="856" y="307.0" text-anchor="middle" font-family="Arial, sans-serif" font-size="12" fill="#1f2933">entrega</text>
  <rect x="963.0" y="126.0" width="142" height="52" rx="4" fill="#ffffff" stroke="#4f5b67" stroke-width="1.5"/>
  <text x="1034" y="156.0" text-anchor="middle" font-family="Arial, sans-serif" font-size="12" fill="#1f2933">Reactivar epica</text>
  <rect x="1141.0" y="270.0" width="142" height="52" rx="4" fill="#ffffff" stroke="#4f5b67" stroke-width="1.5"/>
  <text x="1212" y="300.0" text-anchor="middle" font-family="Arial, sans-serif" font-size="12" fill="#1f2933">Refinar historias</text>
  <rect x="1319.0" y="270.0" width="142" height="52" rx="4" fill="#ffffff" stroke="#4f5b67" stroke-width="1.5"/>
  <text x="1390" y="293.0" text-anchor="middle" font-family="Arial, sans-serif" font-size="12" fill="#1f2933">Construir</text>
  <text x="1390" y="307.0" text-anchor="middle" font-family="Arial, sans-serif" font-size="12" fill="#1f2933">historias</text>
  <rect x="1497.0" y="270.0" width="142" height="52" rx="4" fill="#ffffff" stroke="#4f5b67" stroke-width="1.5"/>
  <text x="1568" y="300.0" text-anchor="middle" font-family="Arial, sans-serif" font-size="12" fill="#1f2933">Validar features</text>
  <polygon points="1746,260.0 1808.0,296.0 1746,332.0 1684.0,296.0" fill="#ffffff" stroke="#4f5b67" stroke-width="1.5"/>
  <text x="1746" y="293.5" text-anchor="middle" font-family="Arial, sans-serif" font-size="11" fill="#1f2933">Features</text>
  <text x="1746" y="306.5" text-anchor="middle" font-family="Arial, sans-serif" font-size="11" fill="#1f2933">cerradas</text>
  <rect x="1853.0" y="270.0" width="142" height="52" rx="4" fill="#ffffff" stroke="#4f5b67" stroke-width="1.5"/>
  <text x="1924" y="300.0" text-anchor="middle" font-family="Arial, sans-serif" font-size="12" fill="#1f2933">Corregir historias</text>
  <circle cx="2102" cy="296.0" r="15.0" fill="#ffffff" stroke="#1f2933" stroke-width="2"/>
  <circle cx="2102" cy="296.0" r="10.0" fill="#1f2933" stroke="none"/>
</svg>
