<?xml version="1.0" encoding="UTF-8"?>
<svg xmlns="http://www.w3.org/2000/svg" width="7542" height="756" viewBox="0 0 7542 756" role="img" aria-labelledby="title desc">
<title id="title">Gestion de Demanda Tecnologica</title>
<desc id="desc">Diagrama generado desde process.yaml.</desc>
<defs><marker id="arrow" viewBox="0 0 10 10" refX="9" refY="5" markerWidth="8" markerHeight="8" orient="auto"><path d="M 0 0 L 10 5 L 0 10 z" fill="#4f5b67"/></marker></defs>
<rect x="24" y="24" width="7494" height="708" fill="#fff" stroke="#4f5b67"/>
<text x="3771.0" y="56" text-anchor="middle" font-family="Arial, sans-serif" font-size="20" font-weight="700" fill="#1f2933"><tspan x="3771.0" dy="0">Gestion de Demanda Tecnologica</tspan></text>
<rect x="24" y="80" width="7494" height="116" fill="#f8fafc" stroke="#d5dce6"/>
<rect x="24" y="80" width="120" height="116" fill="#e6edf7" stroke="#d5dce6"/>
<text x="84.0" y="138.0" text-anchor="middle" font-family="Arial, sans-serif" font-size="13" font-weight="700" fill="#1f2933"><tspan x="84.0" dy="0">Promotor</tspan></text>
<rect x="24" y="196" width="7494" height="116" fill="#eef4ff" stroke="#d5dce6"/>
<rect x="24" y="196" width="120" height="116" fill="#e6edf7" stroke="#d5dce6"/>
<text x="84.0" y="254.0" text-anchor="middle" font-family="Arial, sans-serif" font-size="13" font-weight="700" fill="#1f2933"><tspan x="84.0" dy="0">Product Owner</tspan></text>
<rect x="24" y="312" width="7494" height="116" fill="#f8fafc" stroke="#d5dce6"/>
<rect x="24" y="312" width="120" height="116" fill="#e6edf7" stroke="#d5dce6"/>
<text x="84.0" y="363.0" text-anchor="middle" font-family="Arial, sans-serif" font-size="13" font-weight="700" fill="#1f2933"><tspan x="84.0" dy="0">Comite</tspan><tspan x="84.0" dy="14">Transformacion</tspan></text>
<rect x="24" y="428" width="7494" height="116" fill="#eef4ff" stroke="#d5dce6"/>
<rect x="24" y="428" width="120" height="116" fill="#e6edf7" stroke="#d5dce6"/>
<text x="84.0" y="486.0" text-anchor="middle" font-family="Arial, sans-serif" font-size="13" font-weight="700" fill="#1f2933"><tspan x="84.0" dy="0">PMO</tspan></text>
<rect x="24" y="544" width="7494" height="116" fill="#f8fafc" stroke="#d5dce6"/>
<rect x="24" y="544" width="120" height="116" fill="#e6edf7" stroke="#d5dce6"/>
<text x="84.0" y="602.0" text-anchor="middle" font-family="Arial, sans-serif" font-size="13" font-weight="700" fill="#1f2933"><tspan x="84.0" dy="0">Equipo Tecnico</tspan></text>
<g fill="none" stroke="#4f5b67" stroke-width="1.4" marker-end="url(#arrow)">
<polyline points="259,138.0 282.0,138.0 282.0,138.0 305,138.0"/>
<polyline points="447,138.0 470.0,138.0 470.0,138.0 493,138.0"/>
<polyline points="635,138.0 658.0,138.0 658.0,254.0 681,254.0"/>
<polyline points="823,254.0 846.0,254.0 846.0,254.0 869,254.0"/>
<polyline points="1011,254.0 1034.0,254.0 1034.0,254.0 1057,254.0"/>
<polyline points="1199,254.0 1222.0,254.0 1222.0,138.0 1245,138.0"/>
<polyline points="1245,138.0 1034.0,138.0 1034.0,254.0 823,254.0"/>
<polyline points="1011,254.0 1222.0,254.0 1222.0,254.0 1433,254.0"/>
<polyline points="1575,254.0 1598.0,254.0 1598.0,254.0 1621,254.0"/>
<polyline points="1763,254.0 1786.0,254.0 1786.0,370.0 1809,370.0"/>
<polyline points="1951,370.0 1974.0,370.0 1974.0,370.0 1997,370.0"/>
<polyline points="2139,370.0 2162.0,370.0 2162.0,254.0 2185,254.0"/>
<polyline points="2327,254.0 4794.0,254.0 4794.0,254.0 7261,254.0"/>
<polyline points="2139,370.0 2256.0,370.0 2256.0,370.0 2373,370.0"/>
<polyline points="2515,370.0 2538.0,370.0 2538.0,486.0 2561,486.0"/>
<polyline points="2703,486.0 2726.0,486.0 2726.0,486.0 2749,486.0"/>
<polyline points="2891,486.0 2914.0,486.0 2914.0,486.0 2937,486.0"/>
<polyline points="3079,486.0 3102.0,486.0 3102.0,254.0 3125,254.0"/>
<polyline points="3125,254.0 2914.0,254.0 2914.0,486.0 2703,486.0"/>
<polyline points="2891,486.0 3102.0,486.0 3102.0,254.0 3313,254.0"/>
<polyline points="3455,254.0 3478.0,254.0 3478.0,254.0 3501,254.0"/>
<polyline points="3643,254.0 3666.0,254.0 3666.0,254.0 3689,254.0"/>
<polyline points="3831,254.0 3854.0,254.0 3854.0,254.0 3877,254.0"/>
<polyline points="4019,254.0 4042.0,254.0 4042.0,254.0 4065,254.0"/>
<polyline points="4207,254.0 4230.0,254.0 4230.0,254.0 4253,254.0"/>
<polyline points="4395,254.0 4418.0,254.0 4418.0,254.0 4441,254.0"/>
<polyline points="4583,254.0 4606.0,254.0 4606.0,602.0 4629,602.0"/>
<polyline points="4771,602.0 4794.0,602.0 4794.0,602.0 4817,602.0"/>
<polyline points="4959,602.0 4982.0,602.0 4982.0,254.0 5005,254.0"/>
<polyline points="5005,254.0 4606.0,254.0 4606.0,254.0 4207,254.0"/>
<polyline points="4395,254.0 4794.0,254.0 4794.0,602.0 5193,602.0"/>
<polyline points="5335,602.0 5358.0,602.0 5358.0,602.0 5381,602.0"/>
<polyline points="5523,602.0 5546.0,602.0 5546.0,602.0 5569,602.0"/>
<polyline points="5711,602.0 5734.0,602.0 5734.0,602.0 5757,602.0"/>
<polyline points="5899,602.0 5922.0,602.0 5922.0,602.0 5945,602.0"/>
<polyline points="5945,602.0 5828.0,602.0 5828.0,602.0 5711,602.0"/>
<polyline points="5899,602.0 6016.0,602.0 6016.0,254.0 6133,254.0"/>
<polyline points="6275,254.0 6298.0,254.0 6298.0,254.0 6321,254.0"/>
<polyline points="6463,254.0 6486.0,254.0 6486.0,602.0 6509,602.0"/>
<polyline points="6509,602.0 6392.0,602.0 6392.0,254.0 6275,254.0"/>
<polyline points="6463,254.0 6580.0,254.0 6580.0,602.0 6697,602.0"/>
<polyline points="6839,602.0 6862.0,602.0 6862.0,602.0 6885,602.0"/>
<polyline points="7027,602.0 7050.0,602.0 7050.0,254.0 7073,254.0"/>
<polyline points="7215,254.0 7238.0,254.0 7238.0,254.0 7261,254.0"/>
</g>
<text x="1034.0" y="246.0" text-anchor="middle" font-family="Arial, sans-serif" font-size="11" font-weight="400" fill="#1f2933"><tspan x="1034.0" dy="0">No</tspan></text>
<text x="1222.0" y="246.0" text-anchor="middle" font-family="Arial, sans-serif" font-size="11" font-weight="400" fill="#1f2933"><tspan x="1222.0" dy="0">Si</tspan></text>
<text x="2162.0" y="304.0" text-anchor="middle" font-family="Arial, sans-serif" font-size="11" font-weight="400" fill="#1f2933"><tspan x="2162.0" dy="0">No</tspan></text>
<text x="2256.0" y="362.0" text-anchor="middle" font-family="Arial, sans-serif" font-size="11" font-weight="400" fill="#1f2933"><tspan x="2256.0" dy="0">Si</tspan></text>
<text x="2914.0" y="478.0" text-anchor="middle" font-family="Arial, sans-serif" font-size="11" font-weight="400" fill="#1f2933"><tspan x="2914.0" dy="0">No</tspan></text>
<text x="3102.0" y="362.0" text-anchor="middle" font-family="Arial, sans-serif" font-size="11" font-weight="400" fill="#1f2933"><tspan x="3102.0" dy="0">Si</tspan></text>
<text x="4418.0" y="246.0" text-anchor="middle" font-family="Arial, sans-serif" font-size="11" font-weight="400" fill="#1f2933"><tspan x="4418.0" dy="0">No</tspan></text>
<text x="4794.0" y="420.0" text-anchor="middle" font-family="Arial, sans-serif" font-size="11" font-weight="400" fill="#1f2933"><tspan x="4794.0" dy="0">Si</tspan></text>
<text x="5922.0" y="594.0" text-anchor="middle" font-family="Arial, sans-serif" font-size="11" font-weight="400" fill="#1f2933"><tspan x="5922.0" dy="0">No</tspan></text>
<text x="6016.0" y="420.0" text-anchor="middle" font-family="Arial, sans-serif" font-size="11" font-weight="400" fill="#1f2933"><tspan x="6016.0" dy="0">Si</tspan></text>
<text x="6486.0" y="420.0" text-anchor="middle" font-family="Arial, sans-serif" font-size="11" font-weight="400" fill="#1f2933"><tspan x="6486.0" dy="0">No</tspan></text>
<text x="6580.0" y="420.0" text-anchor="middle" font-family="Arial, sans-serif" font-size="11" font-weight="400" fill="#1f2933"><tspan x="6580.0" dy="0">Si</tspan></text>
<circle cx="188" cy="138.0" r="15" fill="#1f2933"/>
<rect x="305" y="112.0" width="142" height="52" rx="4" fill="#fff" stroke="#4f5b67" stroke-width="1.5"/>
<text x="376" y="138.0" text-anchor="middle" font-family="Arial, sans-serif" font-size="12" font-weight="400" fill="#1f2933"><tspan x="376" dy="0">Formalizar brief</tspan></text>
<rect x="493" y="112.0" width="142" height="52" rx="4" fill="#fff" stroke="#4f5b67" stroke-width="1.5"/>
<text x="564" y="138.0" text-anchor="middle" font-family="Arial, sans-serif" font-size="12" font-weight="400" fill="#1f2933"><tspan x="564" dy="0">Enviar iniciativa</tspan></text>
<rect x="681" y="228.0" width="142" height="52" rx="4" fill="#fff" stroke="#4f5b67" stroke-width="1.5"/>
<text x="752" y="254.0" text-anchor="middle" font-family="Arial, sans-serif" font-size="12" font-weight="400" fill="#1f2933"><tspan x="752" dy="0">Revisar brief</tspan></text>
<polygon points="940,218.0 1002,254.0 940,290.0 878,254.0" fill="#fff" stroke="#4f5b67" stroke-width="1.5"/>
<text x="940" y="247.0" text-anchor="middle" font-family="Arial, sans-serif" font-size="11" font-weight="400" fill="#1f2933"><tspan x="940" dy="0">¿El brief está</tspan><tspan x="940" dy="14">completo?</tspan></text>
<rect x="1057" y="228.0" width="142" height="52" rx="4" fill="#fff" stroke="#4f5b67" stroke-width="1.5"/>
<text x="1128" y="254.0" text-anchor="middle" font-family="Arial, sans-serif" font-size="12" font-weight="400" fill="#1f2933"><tspan x="1128" dy="0">Solicitar ajustes</tspan></text>
<rect x="1245" y="112.0" width="142" height="52" rx="4" fill="#fff" stroke="#4f5b67" stroke-width="1.5"/>
<text x="1316" y="138.0" text-anchor="middle" font-family="Arial, sans-serif" font-size="12" font-weight="400" fill="#1f2933"><tspan x="1316" dy="0">Actualizar brief</tspan></text>
<rect x="1433" y="228.0" width="142" height="52" rx="4" fill="#fff" stroke="#4f5b67" stroke-width="1.5"/>
<text x="1504" y="254.0" text-anchor="middle" font-family="Arial, sans-serif" font-size="12" font-weight="400" fill="#1f2933"><tspan x="1504" dy="0">Estimar effort</tspan></text>
<rect x="1621" y="228.0" width="142" height="52" rx="4" fill="#fff" stroke="#4f5b67" stroke-width="1.5"/>
<text x="1692" y="254.0" text-anchor="middle" font-family="Arial, sans-serif" font-size="12" font-weight="400" fill="#1f2933"><tspan x="1692" dy="0">Crear epica</tspan></text>
<rect x="1809" y="344.0" width="142" height="52" rx="4" fill="#fff" stroke="#4f5b67" stroke-width="1.5"/>
<text x="1880" y="370.0" text-anchor="middle" font-family="Arial, sans-serif" font-size="12" font-weight="400" fill="#1f2933"><tspan x="1880" dy="0">Evaluar iniciativa</tspan></text>
<polygon points="2068,334.0 2130,370.0 2068,406.0 2006,370.0" fill="#fff" stroke="#4f5b67" stroke-width="1.5"/>
<text x="2068" y="363.0" text-anchor="middle" font-family="Arial, sans-serif" font-size="11" font-weight="400" fill="#1f2933"><tspan x="2068" dy="0">¿La iniciativa</tspan><tspan x="2068" dy="14">está aprobada?</tspan></text>
<rect x="2185" y="228.0" width="142" height="52" rx="4" fill="#fff" stroke="#4f5b67" stroke-width="1.5"/>
<text x="2256" y="254.0" text-anchor="middle" font-family="Arial, sans-serif" font-size="12" font-weight="400" fill="#1f2933"><tspan x="2256" dy="0">Comunicar rechazo</tspan></text>
<rect x="2373" y="344.0" width="142" height="52" rx="4" fill="#fff" stroke="#4f5b67" stroke-width="1.5"/>
<text x="2444" y="370.0" text-anchor="middle" font-family="Arial, sans-serif" font-size="12" font-weight="400" fill="#1f2933"><tspan x="2444" dy="0">Priorizar epica</tspan></text>
<rect x="2561" y="460.0" width="142" height="52" rx="4" fill="#fff" stroke="#4f5b67" stroke-width="1.5"/>
<text x="2632" y="486.0" text-anchor="middle" font-family="Arial, sans-serif" font-size="12" font-weight="400" fill="#1f2933"><tspan x="2632" dy="0">Revisar capacidad</tspan></text>
<polygon points="2820,450.0 2882,486.0 2820,522.0 2758,486.0" fill="#fff" stroke="#4f5b67" stroke-width="1.5"/>
<text x="2820" y="472.0" text-anchor="middle" font-family="Arial, sans-serif" font-size="11" font-weight="400" fill="#1f2933"><tspan x="2820" dy="0">¿El rango</tspan><tspan x="2820" dy="14">operativo es</tspan><tspan x="2820" dy="14">adecuado?</tspan></text>
<rect x="2937" y="460.0" width="142" height="52" rx="4" fill="#fff" stroke="#4f5b67" stroke-width="1.5"/>
<text x="3008" y="486.0" text-anchor="middle" font-family="Arial, sans-serif" font-size="12" font-weight="400" fill="#1f2933"><tspan x="3008" dy="0">Congelar intake</tspan></text>
<rect x="3125" y="228.0" width="142" height="52" rx="4" fill="#fff" stroke="#4f5b67" stroke-width="1.5"/>
<text x="3196" y="247.0" text-anchor="middle" font-family="Arial, sans-serif" font-size="12" font-weight="400" fill="#1f2933"><tspan x="3196" dy="0">Cerrar trabajo</tspan><tspan x="3196" dy="14">activo</tspan></text>
<rect x="3313" y="228.0" width="142" height="52" rx="4" fill="#fff" stroke="#4f5b67" stroke-width="1.5"/>
<text x="3384" y="254.0" text-anchor="middle" font-family="Arial, sans-serif" font-size="12" font-weight="400" fill="#1f2933"><tspan x="3384" dy="0">Definir features</tspan></text>
<rect x="3501" y="228.0" width="142" height="52" rx="4" fill="#fff" stroke="#4f5b67" stroke-width="1.5"/>
<text x="3572" y="254.0" text-anchor="middle" font-family="Arial, sans-serif" font-size="12" font-weight="400" fill="#1f2933"><tspan x="3572" dy="0">Estimar features</tspan></text>
<rect x="3689" y="228.0" width="142" height="52" rx="4" fill="#fff" stroke="#4f5b67" stroke-width="1.5"/>
<text x="3760" y="254.0" text-anchor="middle" font-family="Arial, sans-serif" font-size="12" font-weight="400" fill="#1f2933"><tspan x="3760" dy="0">Asignar features</tspan></text>
<rect x="3877" y="228.0" width="142" height="52" rx="4" fill="#fff" stroke="#4f5b67" stroke-width="1.5"/>
<text x="3948" y="247.0" text-anchor="middle" font-family="Arial, sans-serif" font-size="12" font-weight="400" fill="#1f2933"><tspan x="3948" dy="0">Verificar</tspan><tspan x="3948" dy="14">dependencias</tspan></text>
<polygon points="4136,218.0 4198,254.0 4136,290.0 4074,254.0" fill="#fff" stroke="#4f5b67" stroke-width="1.5"/>
<polygon points="4324,218.0 4386,254.0 4324,290.0 4262,254.0" fill="#fff" stroke="#4f5b67" stroke-width="1.5"/>
<text x="4324" y="233.0" text-anchor="middle" font-family="Arial, sans-serif" font-size="11" font-weight="400" fill="#1f2933"><tspan x="4324" dy="0">¿Las</tspan><tspan x="4324" dy="14">dependencias</tspan><tspan x="4324" dy="14">están</tspan><tspan x="4324" dy="14">resueltas?</tspan></text>
<rect x="4441" y="228.0" width="142" height="52" rx="4" fill="#fff" stroke="#4f5b67" stroke-width="1.5"/>
<text x="4512" y="254.0" text-anchor="middle" font-family="Arial, sans-serif" font-size="12" font-weight="400" fill="#1f2933"><tspan x="4512" dy="0">Marcar bloqueada</tspan></text>
<rect x="4629" y="576.0" width="142" height="52" rx="4" fill="#fff" stroke="#4f5b67" stroke-width="1.5"/>
<text x="4700" y="602.0" text-anchor="middle" font-family="Arial, sans-serif" font-size="12" font-weight="400" fill="#1f2933"><tspan x="4700" dy="0">Acordar contrato</tspan></text>
<rect x="4817" y="576.0" width="142" height="52" rx="4" fill="#fff" stroke="#4f5b67" stroke-width="1.5"/>
<text x="4888" y="595.0" text-anchor="middle" font-family="Arial, sans-serif" font-size="12" font-weight="400" fill="#1f2933"><tspan x="4888" dy="0">Comprometer</tspan><tspan x="4888" dy="14">entrega</tspan></text>
<rect x="5005" y="228.0" width="142" height="52" rx="4" fill="#fff" stroke="#4f5b67" stroke-width="1.5"/>
<text x="5076" y="254.0" text-anchor="middle" font-family="Arial, sans-serif" font-size="12" font-weight="400" fill="#1f2933"><tspan x="5076" dy="0">Reactivar epica</tspan></text>
<rect x="5193" y="576.0" width="142" height="52" rx="4" fill="#fff" stroke="#4f5b67" stroke-width="1.5"/>
<text x="5264" y="602.0" text-anchor="middle" font-family="Arial, sans-serif" font-size="12" font-weight="400" fill="#1f2933"><tspan x="5264" dy="0">Refinar historias</tspan></text>
<rect x="5381" y="576.0" width="142" height="52" rx="4" fill="#fff" stroke="#4f5b67" stroke-width="1.5"/>
<text x="5452" y="595.0" text-anchor="middle" font-family="Arial, sans-serif" font-size="12" font-weight="400" fill="#1f2933"><tspan x="5452" dy="0">Construir</tspan><tspan x="5452" dy="14">historias</tspan></text>
<rect x="5569" y="576.0" width="142" height="52" rx="4" fill="#fff" stroke="#4f5b67" stroke-width="1.5"/>
<text x="5640" y="602.0" text-anchor="middle" font-family="Arial, sans-serif" font-size="12" font-weight="400" fill="#1f2933"><tspan x="5640" dy="0">Validar features</tspan></text>
<polygon points="5828,566.0 5890,602.0 5828,638.0 5766,602.0" fill="#fff" stroke="#4f5b67" stroke-width="1.5"/>
<text x="5828" y="595.0" text-anchor="middle" font-family="Arial, sans-serif" font-size="11" font-weight="400" fill="#1f2933"><tspan x="5828" dy="0">¿Las features</tspan><tspan x="5828" dy="14">están cerradas?</tspan></text>
<rect x="5945" y="576.0" width="142" height="52" rx="4" fill="#fff" stroke="#4f5b67" stroke-width="1.5"/>
<text x="6016" y="602.0" text-anchor="middle" font-family="Arial, sans-serif" font-size="12" font-weight="400" fill="#1f2933"><tspan x="6016" dy="0">Corregir historias</tspan></text>
<rect x="6133" y="228.0" width="142" height="52" rx="4" fill="#fff" stroke="#4f5b67" stroke-width="1.5"/>
<text x="6204" y="254.0" text-anchor="middle" font-family="Arial, sans-serif" font-size="12" font-weight="400" fill="#1f2933"><tspan x="6204" dy="0">Validar alcance</tspan></text>
<polygon points="6392,218.0 6454,254.0 6392,290.0 6330,254.0" fill="#fff" stroke="#4f5b67" stroke-width="1.5"/>
<text x="6392" y="247.0" text-anchor="middle" font-family="Arial, sans-serif" font-size="11" font-weight="400" fill="#1f2933"><tspan x="6392" dy="0">¿La validación</tspan><tspan x="6392" dy="14">es correcta?</tspan></text>
<rect x="6509" y="576.0" width="142" height="52" rx="4" fill="#fff" stroke="#4f5b67" stroke-width="1.5"/>
<text x="6580" y="602.0" text-anchor="middle" font-family="Arial, sans-serif" font-size="12" font-weight="400" fill="#1f2933"><tspan x="6580" dy="0">Corregir alcance</tspan></text>
<rect x="6697" y="576.0" width="142" height="52" rx="4" fill="#fff" stroke="#4f5b67" stroke-width="1.5"/>
<text x="6768" y="595.0" text-anchor="middle" font-family="Arial, sans-serif" font-size="12" font-weight="400" fill="#1f2933"><tspan x="6768" dy="0">Desplegar</tspan><tspan x="6768" dy="14">produccion</tspan></text>
<rect x="6885" y="576.0" width="142" height="52" rx="4" fill="#fff" stroke="#4f5b67" stroke-width="1.5"/>
<text x="6956" y="602.0" text-anchor="middle" font-family="Arial, sans-serif" font-size="12" font-weight="400" fill="#1f2933"><tspan x="6956" dy="0">Cerrar features</tspan></text>
<rect x="7073" y="228.0" width="142" height="52" rx="4" fill="#fff" stroke="#4f5b67" stroke-width="1.5"/>
<text x="7144" y="254.0" text-anchor="middle" font-family="Arial, sans-serif" font-size="12" font-weight="400" fill="#1f2933"><tspan x="7144" dy="0">Cerrar epica</tspan></text>
<circle cx="7332" cy="254.0" r="15" fill="#fff" stroke="#1f2933" stroke-width="2"/><circle cx="7332" cy="254.0" r="10" fill="#1f2933"/>
</svg>
