<?xml version="1.0" encoding="UTF-8"?>
<svg xmlns="http://www.w3.org/2000/svg" width="2712" height="588" viewBox="0 0 2712 588" role="img" aria-labelledby="title desc">
  <title id="title">Fase 0: Recepcion y evaluacion inicial</title>
  <desc id="desc">Diagrama generado desde process.yaml con swimlanes horizontales, etiquetas de actor en varias lineas y conectores octolineales sin cruces deliberados.</desc>
  <defs>
    <marker id="arrow" viewBox="0 0 10 10" refX="9" refY="5" markerWidth="8" markerHeight="8" orient="auto-start-reverse">
      <path d="M 0 0 L 10 5 L 0 10 z" fill="#4f5b67"/>
    </marker>
  </defs>
  <rect x="24" y="24" width="2664" height="540" rx="0" fill="#ffffff" stroke="#4f5b67" stroke-width="1.5"/>
  <text x="1356.0" y="56" text-anchor="middle" font-family="Arial, sans-serif" font-size="20" font-weight="700" fill="#1f2933">Fase 0: Recepcion y evaluacion inicial</text>
  <rect x="24" y="80" width="2664" height="144" fill="#f8fafc" stroke="#d5dce6" stroke-width="1"/>
  <rect x="24" y="80" width="120" height="144" fill="#e6edf7" stroke="#d5dce6" stroke-width="1"/>
  <text x="84.0" y="152.0" text-anchor="middle" dominant-baseline="middle" font-family="Arial, sans-serif" font-size="13" font-weight="700" fill="#1f2933"><tspan x="84.0" dy="-0.0">Promotor</tspan></text>
  <rect x="24" y="224" width="2664" height="144" fill="#eef4ff" stroke="#d5dce6" stroke-width="1"/>
  <rect x="24" y="224" width="120" height="144" fill="#e6edf7" stroke="#d5dce6" stroke-width="1"/>
  <text x="84.0" y="296.0" text-anchor="middle" dominant-baseline="middle" font-family="Arial, sans-serif" font-size="13" font-weight="700" fill="#1f2933"><tspan x="84.0" dy="-0.0">Product Owner</tspan></text>
  <rect x="24" y="368" width="2664" height="144" fill="#f8fafc" stroke="#d5dce6" stroke-width="1"/>
  <rect x="24" y="368" width="120" height="144" fill="#e6edf7" stroke="#d5dce6" stroke-width="1"/>
  <text x="84.0" y="440.0" text-anchor="middle" dominant-baseline="middle" font-family="Arial, sans-serif" font-size="13" font-weight="700" fill="#1f2933"><tspan x="84.0" dy="-7.5">Comite</tspan><tspan x="84.0" dy="15">Transformacion</tspan></text>
  <g fill="none" stroke="#4f5b67" stroke-width="1.4" marker-end="url(#arrow)">
    <polyline points="203.0,152.0 249.0,152.0 295.0,152.0"/>
    <polyline points="437.0,152.0 455.0,152.0 473.0,152.0"/>
    <polyline points="615.0,152.0 633.0,152.0 633.0,296.0 651.0,296.0"/>
    <polyline points="793.0,296.0 815.5,296.0 838.0,296.0"/>
    <polyline points="900,332.0 900,346.0 948,346.0 948,296.0 1007.0,296.0"/>
    <polyline points="1149.0,296.0 1167.0,296.0 1167.0,152.0 1185.0,152.0"/>
    <polyline points="1185.0,152.0 1167.0,152.0 1167.0,514 1149.0,532 829.0,532 811.0,514 811.0,296.0 793.0,296.0"/>
    <polyline points="962.0,296.0 1162.5,296.0 1363.0,296.0"/>
    <polyline points="1505.0,296.0 1523.0,296.0 1541.0,296.0"/>
    <polyline points="1683.0,296.0 1701.0,296.0 1701.0,440.0 1719.0,440.0"/>
    <polyline points="1861.0,440.0 1883.5,440.0 1906.0,440.0"/>
    <polyline points="1968,404.0 1968,390.0 2016,390.0 2016,296.0 2075.0,296.0"/>
    <polyline points="2030.0,440.0 2141.5,440.0 2253.0,440.0"/>
    <polyline points="2217.0,296.0 2352.0,296.0 2487.0,296.0"/>
    <polyline points="2395.0,440.0 2441.0,440.0 2441.0,296.0 2487.0,296.0"/>
  </g>
  <rect x="976.0" y="275.0" width="26" height="18" fill="#ffffff" stroke="none"/>
  <text x="989.0" y="288.0" text-anchor="middle" font-family="Arial, sans-serif" font-size="11" fill="#1f2933">No</text>
  <rect x="1154.0" y="275.0" width="26" height="18" fill="#ffffff" stroke="none"/>
  <text x="1167.0" y="288.0" text-anchor="middle" font-family="Arial, sans-serif" font-size="11" fill="#1f2933">Si</text>
  <rect x="2044.0" y="347.0" width="26" height="18" fill="#ffffff" stroke="none"/>
  <text x="2057.0" y="360.0" text-anchor="middle" font-family="Arial, sans-serif" font-size="11" fill="#1f2933">No</text>
  <rect x="2133.0" y="419.0" width="26" height="18" fill="#ffffff" stroke="none"/>
  <text x="2146.0" y="432.0" text-anchor="middle" font-family="Arial, sans-serif" font-size="11" fill="#1f2933">Si</text>
  <circle cx="188" cy="152.0" r="15.0" fill="#1f2933" stroke="#1f2933" stroke-width="1.5"/>
  <rect x="295.0" y="126.0" width="142" height="52" rx="4" fill="#ffffff" stroke="#4f5b67" stroke-width="1.5"/>
  <text x="366" y="156.0" text-anchor="middle" font-family="Arial, sans-serif" font-size="12" fill="#1f2933">Formalizar brief</text>
  <rect x="473.0" y="126.0" width="142" height="52" rx="4" fill="#ffffff" stroke="#4f5b67" stroke-width="1.5"/>
  <text x="544" y="156.0" text-anchor="middle" font-family="Arial, sans-serif" font-size="12" fill="#1f2933">Enviar iniciativa</text>
  <rect x="651.0" y="270.0" width="142" height="52" rx="4" fill="#ffffff" stroke="#4f5b67" stroke-width="1.5"/>
  <text x="722" y="300.0" text-anchor="middle" font-family="Arial, sans-serif" font-size="12" fill="#1f2933">Revisar brief</text>
  <polygon points="900,260.0 962.0,296.0 900,332.0 838.0,296.0" fill="#ffffff" stroke="#4f5b67" stroke-width="1.5"/>
  <text x="900" y="300.0" text-anchor="middle" font-family="Arial, sans-serif" font-size="11" fill="#1f2933">Brief completo</text>
  <rect x="1007.0" y="270.0" width="142" height="52" rx="4" fill="#ffffff" stroke="#4f5b67" stroke-width="1.5"/>
  <text x="1078" y="300.0" text-anchor="middle" font-family="Arial, sans-serif" font-size="12" fill="#1f2933">Solicitar ajustes</text>
  <rect x="1185.0" y="126.0" width="142" height="52" rx="4" fill="#ffffff" stroke="#4f5b67" stroke-width="1.5"/>
  <text x="1256" y="156.0" text-anchor="middle" font-family="Arial, sans-serif" font-size="12" fill="#1f2933">Actualizar brief</text>
  <rect x="1363.0" y="270.0" width="142" height="52" rx="4" fill="#ffffff" stroke="#4f5b67" stroke-width="1.5"/>
  <text x="1434" y="300.0" text-anchor="middle" font-family="Arial, sans-serif" font-size="12" fill="#1f2933">Estimar effort</text>
  <rect x="1541.0" y="270.0" width="142" height="52" rx="4" fill="#ffffff" stroke="#4f5b67" stroke-width="1.5"/>
  <text x="1612" y="300.0" text-anchor="middle" font-family="Arial, sans-serif" font-size="12" fill="#1f2933">Crear epica</text>
  <rect x="1719.0" y="414.0" width="142" height="52" rx="4" fill="#ffffff" stroke="#4f5b67" stroke-width="1.5"/>
  <text x="1790" y="444.0" text-anchor="middle" font-family="Arial, sans-serif" font-size="12" fill="#1f2933">Evaluar iniciativa</text>
  <polygon points="1968,404.0 2030.0,440.0 1968,476.0 1906.0,440.0" fill="#ffffff" stroke="#4f5b67" stroke-width="1.5"/>
  <text x="1968" y="437.5" text-anchor="middle" font-family="Arial, sans-serif" font-size="11" fill="#1f2933">Iniciativa</text>
  <text x="1968" y="450.5" text-anchor="middle" font-family="Arial, sans-serif" font-size="11" fill="#1f2933">aprobada</text>
  <rect x="2075.0" y="270.0" width="142" height="52" rx="4" fill="#ffffff" stroke="#4f5b67" stroke-width="1.5"/>
  <text x="2146" y="300.0" text-anchor="middle" font-family="Arial, sans-serif" font-size="12" fill="#1f2933">Comunicar rechazo</text>
  <rect x="2253.0" y="414.0" width="142" height="52" rx="4" fill="#ffffff" stroke="#4f5b67" stroke-width="1.5"/>
  <text x="2324" y="444.0" text-anchor="middle" font-family="Arial, sans-serif" font-size="12" fill="#1f2933">Priorizar epica</text>
  <circle cx="2502" cy="296.0" r="15.0" fill="#ffffff" stroke="#1f2933" stroke-width="2"/>
  <circle cx="2502" cy="296.0" r="10.0" fill="#1f2933" stroke="none"/>
</svg>
