<?xml version="1.0" encoding="UTF-8"?>
<svg xmlns="http://www.w3.org/2000/svg" width="2000" height="444" viewBox="0 0 2000 444" role="img" aria-labelledby="title desc">
  <title id="title">Fase 1: Definicion funcional y descomposicion</title>
  <desc id="desc">Diagrama generado desde process.yaml con swimlanes horizontales, etiquetas de actor en varias lineas y conectores octolineales sin cruces deliberados.</desc>
  <defs>
    <marker id="arrow" viewBox="0 0 10 10" refX="9" refY="5" markerWidth="8" markerHeight="8" orient="auto-start-reverse">
      <path d="M 0 0 L 10 5 L 0 10 z" fill="#4f5b67"/>
    </marker>
  </defs>
  <rect x="24" y="24" width="1952" height="396" rx="0" fill="#ffffff" stroke="#4f5b67" stroke-width="1.5"/>
  <text x="1000.0" y="56" text-anchor="middle" font-family="Arial, sans-serif" font-size="20" font-weight="700" fill="#1f2933">Fase 1: Definicion funcional y descomposicion</text>
  <rect x="24" y="80" width="1952" height="144" fill="#f8fafc" stroke="#d5dce6" stroke-width="1"/>
  <rect x="24" y="80" width="120" height="144" fill="#e6edf7" stroke="#d5dce6" stroke-width="1"/>
  <text x="84.0" y="152.0" text-anchor="middle" dominant-baseline="middle" font-family="Arial, sans-serif" font-size="13" font-weight="700" fill="#1f2933"><tspan x="84.0" dy="-0.0">Product Owner</tspan></text>
  <rect x="24" y="224" width="1952" height="144" fill="#eef4ff" stroke="#d5dce6" stroke-width="1"/>
  <rect x="24" y="224" width="120" height="144" fill="#e6edf7" stroke="#d5dce6" stroke-width="1"/>
  <text x="84.0" y="296.0" text-anchor="middle" dominant-baseline="middle" font-family="Arial, sans-serif" font-size="13" font-weight="700" fill="#1f2933"><tspan x="84.0" dy="-0.0">PMO</tspan></text>
  <g fill="none" stroke="#4f5b67" stroke-width="1.4" marker-end="url(#arrow)">
    <polyline points="203.0,296.0 249.0,296.0 295.0,296.0"/>
    <polyline points="437.0,296.0 459.5,296.0 482.0,296.0"/>
    <polyline points="544,332.0 544,346.0 592,346.0 592,296.0 651.0,296.0"/>
    <polyline points="793.0,296.0 811.0,296.0 811.0,152.0 829.0,152.0"/>
    <polyline points="829.0,152.0 811.0,152.0 811.0,370 793.0,388 473.0,388 455.0,370 455.0,296.0 437.0,296.0"/>
    <polyline points="606.0,296.0 806.5,296.0 806.5,152.0 1007.0,152.0"/>
    <polyline points="1149.0,152.0 1167.0,152.0 1185.0,152.0"/>
    <polyline points="1327.0,152.0 1345.0,152.0 1363.0,152.0"/>
    <polyline points="1505.0,152.0 1523.0,152.0 1541.0,152.0"/>
    <polyline points="1683.0,152.0 1729.0,152.0 1775.0,152.0"/>
  </g>
  <rect x="620.0" y="275.0" width="26" height="18" fill="#ffffff" stroke="none"/>
  <text x="633.0" y="288.0" text-anchor="middle" font-family="Arial, sans-serif" font-size="11" fill="#1f2933">No</text>
  <rect x="798.0" y="203.0" width="26" height="18" fill="#ffffff" stroke="none"/>
  <text x="811.0" y="216.0" text-anchor="middle" font-family="Arial, sans-serif" font-size="11" fill="#1f2933">Si</text>
  <circle cx="188" cy="296.0" r="15.0" fill="#1f2933" stroke="#1f2933" stroke-width="1.5"/>
  <rect x="295.0" y="270.0" width="142" height="52" rx="4" fill="#ffffff" stroke="#4f5b67" stroke-width="1.5"/>
  <text x="366" y="300.0" text-anchor="middle" font-family="Arial, sans-serif" font-size="12" fill="#1f2933">Revisar capacidad</text>
  <polygon points="544,260.0 606.0,296.0 544,332.0 482.0,296.0" fill="#ffffff" stroke="#4f5b67" stroke-width="1.5"/>
  <text x="544" y="300.0" text-anchor="middle" font-family="Arial, sans-serif" font-size="11" fill="#1f2933">Rango operativo</text>
  <rect x="651.0" y="270.0" width="142" height="52" rx="4" fill="#ffffff" stroke="#4f5b67" stroke-width="1.5"/>
  <text x="722" y="300.0" text-anchor="middle" font-family="Arial, sans-serif" font-size="12" fill="#1f2933">Congelar intake</text>
  <rect x="829.0" y="126.0" width="142" height="52" rx="4" fill="#ffffff" stroke="#4f5b67" stroke-width="1.5"/>
  <text x="900" y="149.0" text-anchor="middle" font-family="Arial, sans-serif" font-size="12" fill="#1f2933">Cerrar trabajo</text>
  <text x="900" y="163.0" text-anchor="middle" font-family="Arial, sans-serif" font-size="12" fill="#1f2933">activo</text>
  <rect x="1007.0" y="126.0" width="142" height="52" rx="4" fill="#ffffff" stroke="#4f5b67" stroke-width="1.5"/>
  <text x="1078" y="156.0" text-anchor="middle" font-family="Arial, sans-serif" font-size="12" fill="#1f2933">Definir features</text>
  <rect x="1185.0" y="126.0" width="142" height="52" rx="4" fill="#ffffff" stroke="#4f5b67" stroke-width="1.5"/>
  <text x="1256" y="156.0" text-anchor="middle" font-family="Arial, sans-serif" font-size="12" fill="#1f2933">Estimar features</text>
  <rect x="1363.0" y="126.0" width="142" height="52" rx="4" fill="#ffffff" stroke="#4f5b67" stroke-width="1.5"/>
  <text x="1434" y="156.0" text-anchor="middle" font-family="Arial, sans-serif" font-size="12" fill="#1f2933">Asignar features</text>
  <rect x="1541.0" y="126.0" width="142" height="52" rx="4" fill="#ffffff" stroke="#4f5b67" stroke-width="1.5"/>
  <text x="1612" y="149.0" text-anchor="middle" font-family="Arial, sans-serif" font-size="12" fill="#1f2933">Verificar</text>
  <text x="1612" y="163.0" text-anchor="middle" font-family="Arial, sans-serif" font-size="12" fill="#1f2933">dependencias</text>
  <circle cx="1790" cy="152.0" r="15.0" fill="#ffffff" stroke="#1f2933" stroke-width="2"/>
  <circle cx="1790" cy="152.0" r="10.0" fill="#1f2933" stroke="none"/>
</svg>
