<?xml version="1.0" encoding="UTF-8"?>
<svg xmlns="http://www.w3.org/2000/svg" width="2356" height="468" viewBox="0 0 2356 468" role="img" aria-labelledby="title desc">
  <title id="title">Fase 2: Construccion y validacion funcional</title>
  <desc id="desc">Diagrama generado desde process.yaml con swimlanes horizontales, etiquetas de actor en varias lineas y conectores octolineales sin cruces deliberados.</desc>
  <defs>
    <marker id="arrow" viewBox="0 0 10 10" refX="9" refY="5" markerWidth="8" markerHeight="8" orient="auto-start-reverse">
      <path d="M 0 0 L 10 5 L 0 10 z" fill="#4f5b67"/>
    </marker>
  </defs>
  <rect x="24" y="24" width="2308" height="420" rx="0" fill="#ffffff" stroke="#4f5b67" stroke-width="1.5"/>
  <text x="1178.0" y="56" text-anchor="middle" font-family="Arial, sans-serif" font-size="20" font-weight="700" fill="#1f2933">Fase 2: Construccion y validacion funcional</text>
  <rect x="24" y="80" width="2308" height="144" fill="#f8fafc" stroke="#d5dce6" stroke-width="1"/>
  <rect x="24" y="80" width="120" height="144" fill="#e6edf7" stroke="#d5dce6" stroke-width="1"/>
  <text x="84.0" y="152.0" text-anchor="middle" dominant-baseline="middle" font-family="Arial, sans-serif" font-size="13" font-weight="700" fill="#1f2933"><tspan x="84.0" dy="-0.0">Product Owner</tspan></text>
  <rect x="24" y="224" width="2308" height="144" fill="#eef4ff" stroke="#d5dce6" stroke-width="1"/>
  <rect x="24" y="224" width="120" height="144" fill="#e6edf7" stroke="#d5dce6" stroke-width="1"/>
  <text x="84.0" y="296.0" text-anchor="middle" dominant-baseline="middle" font-family="Arial, sans-serif" font-size="13" font-weight="700" fill="#1f2933"><tspan x="84.0" dy="-0.0">Equipo Tecnico</tspan></text>
  <g fill="none" stroke="#4f5b67" stroke-width="1.4" marker-end="url(#arrow)">
    <polyline points="203.0,152.0 253.5,152.0 304.0,152.0"/>
    <polyline points="366,188.0 366,202.0 414,202.0 414,152.0 473.0,152.0"/>
    <polyline points="615.0,152.0 633.0,152.0 633.0,296.0 651.0,296.0"/>
    <polyline points="793.0,296.0 811.0,296.0 829.0,296.0"/>
    <polyline points="971.0,296.0 989.0,296.0 989.0,152.0 1007.0,152.0"/>
    <polyline points="1007.0,152.0 989.0,152.0 989.0,370 971.0,388 464.0,388 446.0,370 446.0,152.0 428.0,152.0"/>
    <polyline points="428.0,152.0 806.5,152.0 806.5,296.0 1185.0,296.0"/>
    <polyline points="1327.0,296.0 1345.0,296.0 1363.0,296.0"/>
    <polyline points="1505.0,296.0 1523.0,296.0 1541.0,296.0"/>
    <polyline points="1683.0,296.0 1705.5,296.0 1728.0,296.0"/>
    <polyline points="1790,332.0 1790,346.0 1838,346.0 1838,296.0 1897.0,296.0"/>
    <polyline points="1897.0,296.0 1879.0,296.0 1879.0,394 1861.0,412 1719.0,412 1701.0,394 1701.0,296.0 1683.0,296.0"/>
    <polyline points="2039.0,296.0 2085.0,296.0 2131.0,296.0"/>
  </g>
  <rect x="442.0" y="131.0" width="26" height="18" fill="#ffffff" stroke="none"/>
  <text x="455.0" y="144.0" text-anchor="middle" font-family="Arial, sans-serif" font-size="11" fill="#1f2933">No</text>
  <rect x="798.0" y="203.0" width="26" height="18" fill="#ffffff" stroke="none"/>
  <text x="811.0" y="216.0" text-anchor="middle" font-family="Arial, sans-serif" font-size="11" fill="#1f2933">Si</text>
  <rect x="1866.0" y="275.0" width="26" height="18" fill="#ffffff" stroke="none"/>
  <text x="1879.0" y="288.0" text-anchor="middle" font-family="Arial, sans-serif" font-size="11" fill="#1f2933">No</text>
  <circle cx="188" cy="152.0" r="15.0" fill="#1f2933" stroke="#1f2933" stroke-width="1.5"/>
  <polygon points="366,116.0 428.0,152.0 366,188.0 304.0,152.0" fill="#ffffff" stroke="#4f5b67" stroke-width="1.5"/>
  <text x="366" y="149.5" text-anchor="middle" font-family="Arial, sans-serif" font-size="11" fill="#1f2933">Dependencias</text>
  <text x="366" y="162.5" text-anchor="middle" font-family="Arial, sans-serif" font-size="11" fill="#1f2933">resueltas</text>
  <rect x="473.0" y="126.0" width="142" height="52" rx="4" fill="#ffffff" stroke="#4f5b67" stroke-width="1.5"/>
  <text x="544" y="156.0" text-anchor="middle" font-family="Arial, sans-serif" font-size="12" fill="#1f2933">Marcar bloqueada</text>
  <rect x="651.0" y="270.0" width="142" height="52" rx="4" fill="#ffffff" stroke="#4f5b67" stroke-width="1.5"/>
  <text x="722" y="300.0" text-anchor="middle" font-family="Arial, sans-serif" font-size="12" fill="#1f2933">Acordar contrato</text>
  <rect x="829.0" y="270.0" width="142" height="52" rx="4" fill="#ffffff" stroke="#4f5b67" stroke-width="1.5"/>
  <text x="900" y="293.0" text-anchor="middle" font-family="Arial, sans-serif" font-size="12" fill="#1f2933">Comprometer</text>
  <text x="900" y="307.0" text-anchor="middle" font-family="Arial, sans-serif" font-size="12" fill="#1f2933">entrega</text>
  <rect x="1007.0" y="126.0" width="142" height="52" rx="4" fill="#ffffff" stroke="#4f5b67" stroke-width="1.5"/>
  <text x="1078" y="156.0" text-anchor="middle" font-family="Arial, sans-serif" font-size="12" fill="#1f2933">Reactivar epica</text>
  <rect x="1185.0" y="270.0" width="142" height="52" rx="4" fill="#ffffff" stroke="#4f5b67" stroke-width="1.5"/>
  <text x="1256" y="300.0" text-anchor="middle" font-family="Arial, sans-serif" font-size="12" fill="#1f2933">Refinar historias</text>
  <rect x="1363.0" y="270.0" width="142" height="52" rx="4" fill="#ffffff" stroke="#4f5b67" stroke-width="1.5"/>
  <text x="1434" y="293.0" text-anchor="middle" font-family="Arial, sans-serif" font-size="12" fill="#1f2933">Construir</text>
  <text x="1434" y="307.0" text-anchor="middle" font-family="Arial, sans-serif" font-size="12" fill="#1f2933">historias</text>
  <rect x="1541.0" y="270.0" width="142" height="52" rx="4" fill="#ffffff" stroke="#4f5b67" stroke-width="1.5"/>
  <text x="1612" y="300.0" text-anchor="middle" font-family="Arial, sans-serif" font-size="12" fill="#1f2933">Validar features</text>
  <polygon points="1790,260.0 1852.0,296.0 1790,332.0 1728.0,296.0" fill="#ffffff" stroke="#4f5b67" stroke-width="1.5"/>
  <text x="1790" y="293.5" text-anchor="middle" font-family="Arial, sans-serif" font-size="11" fill="#1f2933">Features</text>
  <text x="1790" y="306.5" text-anchor="middle" font-family="Arial, sans-serif" font-size="11" fill="#1f2933">cerradas</text>
  <rect x="1897.0" y="270.0" width="142" height="52" rx="4" fill="#ffffff" stroke="#4f5b67" stroke-width="1.5"/>
  <text x="1968" y="300.0" text-anchor="middle" font-family="Arial, sans-serif" font-size="12" fill="#1f2933">Corregir historias</text>
  <circle cx="2146" cy="296.0" r="15.0" fill="#ffffff" stroke="#1f2933" stroke-width="2"/>
  <circle cx="2146" cy="296.0" r="10.0" fill="#1f2933" stroke="none"/>
</svg>
