<?xml version="1.0" encoding="UTF-8"?>
<svg xmlns="http://www.w3.org/2000/svg" width="7310" height="684" viewBox="0 0 7310 684" role="img" aria-labelledby="title desc">
  <title id="title">Gestion de Demanda Tecnologica</title>
  <desc id="desc">Diagrama generado desde process.yaml con lanes horizontales, actores a la izquierda, tamanos fijos y conectores ortogonales.</desc>
  <defs>
    <marker id="arrow" viewBox="0 0 10 10" refX="9" refY="5" markerWidth="8" markerHeight="8" orient="auto-start-reverse">
      <path d="M 0 0 L 10 5 L 0 10 z" fill="#4f5b67"/>
    </marker>
  </defs>
  <rect x="24" y="24" width="7262" height="636" rx="0" fill="#ffffff" stroke="#4f5b67" stroke-width="1.5"/>
  <text x="3655.0" y="56" text-anchor="middle" font-family="Arial, sans-serif" font-size="20" font-weight="700" fill="#1f2933">Gestion de Demanda Tecnologica</text>
  <rect x="24" y="80" width="7262" height="116" fill="#f8fafc" stroke="#d5dce6" stroke-width="1"/>
  <rect x="24" y="80" width="76" height="116" fill="#e6edf7" stroke="#d5dce6" stroke-width="1"/>
  <text x="62.0" y="138.0" text-anchor="middle" dominant-baseline="middle" transform="rotate(-90 62.0 138.0)" font-family="Arial, sans-serif" font-size="13" font-weight="700" fill="#1f2933">Promotor</text>
  <rect x="24" y="196" width="7262" height="116" fill="#eef4ff" stroke="#d5dce6" stroke-width="1"/>
  <rect x="24" y="196" width="76" height="116" fill="#e6edf7" stroke="#d5dce6" stroke-width="1"/>
  <text x="62.0" y="254.0" text-anchor="middle" dominant-baseline="middle" transform="rotate(-90 62.0 254.0)" font-family="Arial, sans-serif" font-size="13" font-weight="700" fill="#1f2933">Product Owner</text>
  <rect x="24" y="312" width="7262" height="116" fill="#f8fafc" stroke="#d5dce6" stroke-width="1"/>
  <rect x="24" y="312" width="76" height="116" fill="#e6edf7" stroke="#d5dce6" stroke-width="1"/>
  <text x="62.0" y="370.0" text-anchor="middle" dominant-baseline="middle" transform="rotate(-90 62.0 370.0)" font-family="Arial, sans-serif" font-size="13" font-weight="700" fill="#1f2933">Comite Transformacion</text>
  <rect x="24" y="428" width="7262" height="116" fill="#eef4ff" stroke="#d5dce6" stroke-width="1"/>
  <rect x="24" y="428" width="76" height="116" fill="#e6edf7" stroke="#d5dce6" stroke-width="1"/>
  <text x="62.0" y="486.0" text-anchor="middle" dominant-baseline="middle" transform="rotate(-90 62.0 486.0)" font-family="Arial, sans-serif" font-size="13" font-weight="700" fill="#1f2933">PMO</text>
  <rect x="24" y="544" width="7262" height="116" fill="#f8fafc" stroke="#d5dce6" stroke-width="1"/>
  <rect x="24" y="544" width="76" height="116" fill="#e6edf7" stroke="#d5dce6" stroke-width="1"/>
  <text x="62.0" y="602.0" text-anchor="middle" dominant-baseline="middle" transform="rotate(-90 62.0 602.0)" font-family="Arial, sans-serif" font-size="13" font-weight="700" fill="#1f2933">Equipo Tecnico</text>
  <g fill="none" stroke="#4f5b67" stroke-width="1.4" marker-end="url(#arrow)">
    <polyline points="159.0,138.0 210.0,138.0 261.0,138.0"/>
    <polyline points="403.0,138.0 426.0,138.0 449.0,138.0"/>
    <polyline points="591.0,138.0 614.0,138.0 614.0,254.0 637.0,254.0"/>
    <polyline points="779.0,254.0 806.5,254.0 834.0,254.0"/>
    <polyline points="958.0,254.0 985.5,254.0 1013.0,254.0"/>
    <polyline points="1155.0,254.0 1178.0,254.0 1178.0,138.0 1201.0,138.0"/>
    <polyline points="1201.0,138.0 743.0,138.0 743.0,254.0 779.0,254.0"/>
    <polyline points="958.0,254.0 1173.5,254.0 1389.0,254.0"/>
    <polyline points="1531.0,254.0 1554.0,254.0 1577.0,254.0"/>
    <polyline points="1719.0,254.0 1742.0,254.0 1742.0,370.0 1765.0,370.0"/>
    <polyline points="1907.0,370.0 1934.5,370.0 1962.0,370.0"/>
    <polyline points="2086.0,370.0 2113.5,370.0 2113.5,254.0 2141.0,254.0"/>
    <polyline points="2283.0,254.0 4684.0,254.0 7085.0,254.0"/>
    <polyline points="2086.0,370.0 2207.5,370.0 2329.0,370.0"/>
    <polyline points="2471.0,370.0 2494.0,370.0 2494.0,486.0 2517.0,486.0"/>
    <polyline points="2659.0,486.0 2686.5,486.0 2714.0,486.0"/>
    <polyline points="2838.0,486.0 2865.5,486.0 2893.0,486.0"/>
    <polyline points="3035.0,486.0 3058.0,486.0 3058.0,254.0 3081.0,254.0"/>
    <polyline points="3081.0,254.0 2623.0,254.0 2623.0,486.0 2659.0,486.0"/>
    <polyline points="2838.0,486.0 3053.5,486.0 3053.5,254.0 3269.0,254.0"/>
    <polyline points="3411.0,254.0 3434.0,254.0 3457.0,254.0"/>
    <polyline points="3599.0,254.0 3622.0,254.0 3645.0,254.0"/>
    <polyline points="3787.0,254.0 3810.0,254.0 3833.0,254.0"/>
    <polyline points="3975.0,254.0 4002.5,254.0 4030.0,254.0"/>
    <polyline points="4154.0,254.0 4181.5,254.0 4209.0,254.0"/>
    <polyline points="4351.0,254.0 4374.0,254.0 4374.0,602.0 4397.0,602.0"/>
    <polyline points="4539.0,602.0 4562.0,602.0 4585.0,602.0"/>
    <polyline points="4727.0,602.0 4750.0,602.0 4750.0,254.0 4773.0,254.0"/>
    <polyline points="4773.0,254.0 4118.0,254.0 4154.0,254.0"/>
    <polyline points="4154.0,254.0 4557.5,254.0 4557.5,602.0 4961.0,602.0"/>
    <polyline points="5103.0,602.0 5126.0,602.0 5149.0,602.0"/>
    <polyline points="5291.0,602.0 5314.0,602.0 5337.0,602.0"/>
    <polyline points="5479.0,602.0 5506.5,602.0 5534.0,602.0"/>
    <polyline points="5658.0,602.0 5685.5,602.0 5713.0,602.0"/>
    <polyline points="5713.0,602.0 5443.0,602.0 5479.0,602.0"/>
    <polyline points="5658.0,602.0 5779.5,602.0 5779.5,254.0 5901.0,254.0"/>
    <polyline points="6043.0,254.0 6070.5,254.0 6098.0,254.0"/>
    <polyline points="6222.0,254.0 6249.5,254.0 6249.5,602.0 6277.0,602.0"/>
    <polyline points="6277.0,602.0 6007.0,602.0 6007.0,254.0 6043.0,254.0"/>
    <polyline points="6222.0,254.0 6343.5,254.0 6343.5,602.0 6465.0,602.0"/>
    <polyline points="6607.0,602.0 6630.0,602.0 6653.0,602.0"/>
    <polyline points="6795.0,602.0 6818.0,602.0 6818.0,254.0 6841.0,254.0"/>
    <polyline points="6983.0,254.0 7034.0,254.0 7085.0,254.0"/>
  </g>
  <rect x="977.0" y="233.0" width="26" height="18" fill="#ffffff" stroke="none"/>
  <text x="990.0" y="246.0" text-anchor="middle" font-family="Arial, sans-serif" font-size="11" fill="#1f2933">No</text>
  <rect x="1165.0" y="233.0" width="26" height="18" fill="#ffffff" stroke="none"/>
  <text x="1178.0" y="246.0" text-anchor="middle" font-family="Arial, sans-serif" font-size="11" fill="#1f2933">Si</text>
  <rect x="2105.0" y="291.0" width="26" height="18" fill="#ffffff" stroke="none"/>
  <text x="2118.0" y="304.0" text-anchor="middle" font-family="Arial, sans-serif" font-size="11" fill="#1f2933">No</text>
  <rect x="2199.0" y="349.0" width="26" height="18" fill="#ffffff" stroke="none"/>
  <text x="2212.0" y="362.0" text-anchor="middle" font-family="Arial, sans-serif" font-size="11" fill="#1f2933">Si</text>
  <rect x="2857.0" y="465.0" width="26" height="18" fill="#ffffff" stroke="none"/>
  <text x="2870.0" y="478.0" text-anchor="middle" font-family="Arial, sans-serif" font-size="11" fill="#1f2933">No</text>
  <rect x="3045.0" y="349.0" width="26" height="18" fill="#ffffff" stroke="none"/>
  <text x="3058.0" y="362.0" text-anchor="middle" font-family="Arial, sans-serif" font-size="11" fill="#1f2933">Si</text>
  <rect x="4173.0" y="233.0" width="26" height="18" fill="#ffffff" stroke="none"/>
  <text x="4186.0" y="246.0" text-anchor="middle" font-family="Arial, sans-serif" font-size="11" fill="#1f2933">No</text>
  <rect x="4549.0" y="407.0" width="26" height="18" fill="#ffffff" stroke="none"/>
  <text x="4562.0" y="420.0" text-anchor="middle" font-family="Arial, sans-serif" font-size="11" fill="#1f2933">Si</text>
  <rect x="5677.0" y="581.0" width="26" height="18" fill="#ffffff" stroke="none"/>
  <text x="5690.0" y="594.0" text-anchor="middle" font-family="Arial, sans-serif" font-size="11" fill="#1f2933">No</text>
  <rect x="5771.0" y="407.0" width="26" height="18" fill="#ffffff" stroke="none"/>
  <text x="5784.0" y="420.0" text-anchor="middle" font-family="Arial, sans-serif" font-size="11" fill="#1f2933">Si</text>
  <rect x="6241.0" y="407.0" width="26" height="18" fill="#ffffff" stroke="none"/>
  <text x="6254.0" y="420.0" text-anchor="middle" font-family="Arial, sans-serif" font-size="11" fill="#1f2933">No</text>
  <rect x="6335.0" y="407.0" width="26" height="18" fill="#ffffff" stroke="none"/>
  <text x="6348.0" y="420.0" text-anchor="middle" font-family="Arial, sans-serif" font-size="11" fill="#1f2933">Si</text>
  <circle cx="144" cy="138.0" r="15.0" fill="#1f2933" stroke="#1f2933" stroke-width="1.5"/>
  <rect x="261.0" y="112.0" width="142" height="52" rx="4" fill="#ffffff" stroke="#4f5b67" stroke-width="1.5"/>
  <text x="332" y="142.0" text-anchor="middle" font-family="Arial, sans-serif" font-size="12" fill="#1f2933">Formalizar brief</text>
  <rect x="449.0" y="112.0" width="142" height="52" rx="4" fill="#ffffff" stroke="#4f5b67" stroke-width="1.5"/>
  <text x="520" y="142.0" text-anchor="middle" font-family="Arial, sans-serif" font-size="12" fill="#1f2933">Enviar iniciativa</text>
  <rect x="637.0" y="228.0" width="142" height="52" rx="4" fill="#ffffff" stroke="#4f5b67" stroke-width="1.5"/>
  <text x="708" y="258.0" text-anchor="middle" font-family="Arial, sans-serif" font-size="12" fill="#1f2933">Revisar brief</text>
  <polygon points="896,218.0 958.0,254.0 896,290.0 834.0,254.0" fill="#ffffff" stroke="#4f5b67" stroke-width="1.5"/>
  <text x="896" y="258.0" text-anchor="middle" font-family="Arial, sans-serif" font-size="11" fill="#1f2933">Brief completo</text>
  <rect x="1013.0" y="228.0" width="142" height="52" rx="4" fill="#ffffff" stroke="#4f5b67" stroke-width="1.5"/>
  <text x="1084" y="258.0" text-anchor="middle" font-family="Arial, sans-serif" font-size="12" fill="#1f2933">Solicitar ajustes</text>
  <rect x="1201.0" y="112.0" width="142" height="52" rx="4" fill="#ffffff" stroke="#4f5b67" stroke-width="1.5"/>
  <text x="1272" y="142.0" text-anchor="middle" font-family="Arial, sans-serif" font-size="12" fill="#1f2933">Actualizar brief</text>
  <rect x="1389.0" y="228.0" width="142" height="52" rx="4" fill="#ffffff" stroke="#4f5b67" stroke-width="1.5"/>
  <text x="1460" y="258.0" text-anchor="middle" font-family="Arial, sans-serif" font-size="12" fill="#1f2933">Estimar effort</text>
  <rect x="1577.0" y="228.0" width="142" height="52" rx="4" fill="#ffffff" stroke="#4f5b67" stroke-width="1.5"/>
  <text x="1648" y="258.0" text-anchor="middle" font-family="Arial, sans-serif" font-size="12" fill="#1f2933">Crear epica</text>
  <rect x="1765.0" y="344.0" width="142" height="52" rx="4" fill="#ffffff" stroke="#4f5b67" stroke-width="1.5"/>
  <text x="1836" y="374.0" text-anchor="middle" font-family="Arial, sans-serif" font-size="12" fill="#1f2933">Evaluar iniciativa</text>
  <polygon points="2024,334.0 2086.0,370.0 2024,406.0 1962.0,370.0" fill="#ffffff" stroke="#4f5b67" stroke-width="1.5"/>
  <text x="2024" y="367.5" text-anchor="middle" font-family="Arial, sans-serif" font-size="11" fill="#1f2933">Iniciativa</text>
  <text x="2024" y="380.5" text-anchor="middle" font-family="Arial, sans-serif" font-size="11" fill="#1f2933">aprobada</text>
  <rect x="2141.0" y="228.0" width="142" height="52" rx="4" fill="#ffffff" stroke="#4f5b67" stroke-width="1.5"/>
  <text x="2212" y="258.0" text-anchor="middle" font-family="Arial, sans-serif" font-size="12" fill="#1f2933">Comunicar rechazo</text>
  <rect x="2329.0" y="344.0" width="142" height="52" rx="4" fill="#ffffff" stroke="#4f5b67" stroke-width="1.5"/>
  <text x="2400" y="374.0" text-anchor="middle" font-family="Arial, sans-serif" font-size="12" fill="#1f2933">Priorizar epica</text>
  <rect x="2517.0" y="460.0" width="142" height="52" rx="4" fill="#ffffff" stroke="#4f5b67" stroke-width="1.5"/>
  <text x="2588" y="490.0" text-anchor="middle" font-family="Arial, sans-serif" font-size="12" fill="#1f2933">Revisar capacidad</text>
  <polygon points="2776,450.0 2838.0,486.0 2776,522.0 2714.0,486.0" fill="#ffffff" stroke="#4f5b67" stroke-width="1.5"/>
  <text x="2776" y="490.0" text-anchor="middle" font-family="Arial, sans-serif" font-size="11" fill="#1f2933">Rango operativo</text>
  <rect x="2893.0" y="460.0" width="142" height="52" rx="4" fill="#ffffff" stroke="#4f5b67" stroke-width="1.5"/>
  <text x="2964" y="490.0" text-anchor="middle" font-family="Arial, sans-serif" font-size="12" fill="#1f2933">Congelar intake</text>
  <rect x="3081.0" y="228.0" width="142" height="52" rx="4" fill="#ffffff" stroke="#4f5b67" stroke-width="1.5"/>
  <text x="3152" y="251.0" text-anchor="middle" font-family="Arial, sans-serif" font-size="12" fill="#1f2933">Cerrar trabajo</text>
  <text x="3152" y="265.0" text-anchor="middle" font-family="Arial, sans-serif" font-size="12" fill="#1f2933">activo</text>
  <rect x="3269.0" y="228.0" width="142" height="52" rx="4" fill="#ffffff" stroke="#4f5b67" stroke-width="1.5"/>
  <text x="3340" y="258.0" text-anchor="middle" font-family="Arial, sans-serif" font-size="12" fill="#1f2933">Definir features</text>
  <rect x="3457.0" y="228.0" width="142" height="52" rx="4" fill="#ffffff" stroke="#4f5b67" stroke-width="1.5"/>
  <text x="3528" y="258.0" text-anchor="middle" font-family="Arial, sans-serif" font-size="12" fill="#1f2933">Estimar features</text>
  <rect x="3645.0" y="228.0" width="142" height="52" rx="4" fill="#ffffff" stroke="#4f5b67" stroke-width="1.5"/>
  <text x="3716" y="258.0" text-anchor="middle" font-family="Arial, sans-serif" font-size="12" fill="#1f2933">Asignar features</text>
  <rect x="3833.0" y="228.0" width="142" height="52" rx="4" fill="#ffffff" stroke="#4f5b67" stroke-width="1.5"/>
  <text x="3904" y="251.0" text-anchor="middle" font-family="Arial, sans-serif" font-size="12" fill="#1f2933">Verificar</text>
  <text x="3904" y="265.0" text-anchor="middle" font-family="Arial, sans-serif" font-size="12" fill="#1f2933">dependencias</text>
  <polygon points="4092,218.0 4154.0,254.0 4092,290.0 4030.0,254.0" fill="#ffffff" stroke="#4f5b67" stroke-width="1.5"/>
  <text x="4092" y="251.5" text-anchor="middle" font-family="Arial, sans-serif" font-size="11" fill="#1f2933">Dependencias</text>
  <text x="4092" y="264.5" text-anchor="middle" font-family="Arial, sans-serif" font-size="11" fill="#1f2933">resueltas</text>
  <rect x="4209.0" y="228.0" width="142" height="52" rx="4" fill="#ffffff" stroke="#4f5b67" stroke-width="1.5"/>
  <text x="4280" y="258.0" text-anchor="middle" font-family="Arial, sans-serif" font-size="12" fill="#1f2933">Marcar bloqueada</text>
  <rect x="4397.0" y="576.0" width="142" height="52" rx="4" fill="#ffffff" stroke="#4f5b67" stroke-width="1.5"/>
  <text x="4468" y="606.0" text-anchor="middle" font-family="Arial, sans-serif" font-size="12" fill="#1f2933">Acordar contrato</text>
  <rect x="4585.0" y="576.0" width="142" height="52" rx="4" fill="#ffffff" stroke="#4f5b67" stroke-width="1.5"/>
  <text x="4656" y="599.0" text-anchor="middle" font-family="Arial, sans-serif" font-size="12" fill="#1f2933">Comprometer</text>
  <text x="4656" y="613.0" text-anchor="middle" font-family="Arial, sans-serif" font-size="12" fill="#1f2933">entrega</text>
  <rect x="4773.0" y="228.0" width="142" height="52" rx="4" fill="#ffffff" stroke="#4f5b67" stroke-width="1.5"/>
  <text x="4844" y="258.0" text-anchor="middle" font-family="Arial, sans-serif" font-size="12" fill="#1f2933">Reactivar epica</text>
  <rect x="4961.0" y="576.0" width="142" height="52" rx="4" fill="#ffffff" stroke="#4f5b67" stroke-width="1.5"/>
  <text x="5032" y="606.0" text-anchor="middle" font-family="Arial, sans-serif" font-size="12" fill="#1f2933">Refinar historias</text>
  <rect x="5149.0" y="576.0" width="142" height="52" rx="4" fill="#ffffff" stroke="#4f5b67" stroke-width="1.5"/>
  <text x="5220" y="599.0" text-anchor="middle" font-family="Arial, sans-serif" font-size="12" fill="#1f2933">Construir</text>
  <text x="5220" y="613.0" text-anchor="middle" font-family="Arial, sans-serif" font-size="12" fill="#1f2933">historias</text>
  <rect x="5337.0" y="576.0" width="142" height="52" rx="4" fill="#ffffff" stroke="#4f5b67" stroke-width="1.5"/>
  <text x="5408" y="606.0" text-anchor="middle" font-family="Arial, sans-serif" font-size="12" fill="#1f2933">Validar features</text>
  <polygon points="5596,566.0 5658.0,602.0 5596,638.0 5534.0,602.0" fill="#ffffff" stroke="#4f5b67" stroke-width="1.5"/>
  <text x="5596" y="599.5" text-anchor="middle" font-family="Arial, sans-serif" font-size="11" fill="#1f2933">Features</text>
  <text x="5596" y="612.5" text-anchor="middle" font-family="Arial, sans-serif" font-size="11" fill="#1f2933">cerradas</text>
  <rect x="5713.0" y="576.0" width="142" height="52" rx="4" fill="#ffffff" stroke="#4f5b67" stroke-width="1.5"/>
  <text x="5784" y="606.0" text-anchor="middle" font-family="Arial, sans-serif" font-size="12" fill="#1f2933">Corregir historias</text>
  <rect x="5901.0" y="228.0" width="142" height="52" rx="4" fill="#ffffff" stroke="#4f5b67" stroke-width="1.5"/>
  <text x="5972" y="258.0" text-anchor="middle" font-family="Arial, sans-serif" font-size="12" fill="#1f2933">Validar alcance</text>
  <polygon points="6160,218.0 6222.0,254.0 6160,290.0 6098.0,254.0" fill="#ffffff" stroke="#4f5b67" stroke-width="1.5"/>
  <text x="6160" y="251.5" text-anchor="middle" font-family="Arial, sans-serif" font-size="11" fill="#1f2933">Validacion</text>
  <text x="6160" y="264.5" text-anchor="middle" font-family="Arial, sans-serif" font-size="11" fill="#1f2933">correcta</text>
  <rect x="6277.0" y="576.0" width="142" height="52" rx="4" fill="#ffffff" stroke="#4f5b67" stroke-width="1.5"/>
  <text x="6348" y="606.0" text-anchor="middle" font-family="Arial, sans-serif" font-size="12" fill="#1f2933">Corregir alcance</text>
  <rect x="6465.0" y="576.0" width="142" height="52" rx="4" fill="#ffffff" stroke="#4f5b67" stroke-width="1.5"/>
  <text x="6536" y="599.0" text-anchor="middle" font-family="Arial, sans-serif" font-size="12" fill="#1f2933">Desplegar</text>
  <text x="6536" y="613.0" text-anchor="middle" font-family="Arial, sans-serif" font-size="12" fill="#1f2933">produccion</text>
  <rect x="6653.0" y="576.0" width="142" height="52" rx="4" fill="#ffffff" stroke="#4f5b67" stroke-width="1.5"/>
  <text x="6724" y="606.0" text-anchor="middle" font-family="Arial, sans-serif" font-size="12" fill="#1f2933">Cerrar features</text>
  <rect x="6841.0" y="228.0" width="142" height="52" rx="4" fill="#ffffff" stroke="#4f5b67" stroke-width="1.5"/>
  <text x="6912" y="258.0" text-anchor="middle" font-family="Arial, sans-serif" font-size="12" fill="#1f2933">Cerrar epica</text>
  <circle cx="7100" cy="254.0" r="15.0" fill="#ffffff" stroke="#1f2933" stroke-width="2"/>
  <circle cx="7100" cy="254.0" r="10.0" fill="#1f2933" stroke="none"/>
</svg>
