<?xml version="1.0" encoding="UTF-8"?>
<svg xmlns="http://www.w3.org/2000/svg" width="2534" height="644" viewBox="0 0 2534 644" role="img" aria-labelledby="title desc">
  <title id="title">Fase 2: Construccion y validacion funcional</title>
  <desc id="desc">Diagrama generado desde process.yaml con swimlanes horizontales, etiquetas de actor en varias lineas y conectores ortogonales sin cruces sobre nodos.</desc>
  <defs>
    <marker id="arrow" viewBox="0 0 10 10" refX="9" refY="5" markerWidth="8" markerHeight="8" orient="auto-start-reverse">
      <path d="M 0 0 L 10 5 L 0 10 z" fill="#4f5b67"/>
    </marker>
  </defs>
  <rect x="24" y="24" width="2486" height="596" rx="0" fill="#ffffff" stroke="#4f5b67" stroke-width="1.5"/>
  <text x="1267.0" y="56" text-anchor="middle" font-family="Arial, sans-serif" font-size="20" font-weight="700" fill="#1f2933">Fase 2: Construccion y validacion funcional</text>
  <rect x="24" y="80" width="2486" height="220" fill="#f8fafc" stroke="#d5dce6" stroke-width="1"/>
  <rect x="24" y="80" width="120" height="220" fill="#e6edf7" stroke="#d5dce6" stroke-width="1"/>
  <text x="84.0" y="190.0" text-anchor="middle" dominant-baseline="middle" font-family="Arial, sans-serif" font-size="13" font-weight="700" fill="#1f2933"><tspan x="84.0" dy="-0.0">Product Owner</tspan></text>
  <rect x="24" y="300" width="2486" height="220" fill="#eef4ff" stroke="#d5dce6" stroke-width="1"/>
  <rect x="24" y="300" width="120" height="220" fill="#e6edf7" stroke="#d5dce6" stroke-width="1"/>
  <text x="84.0" y="410.0" text-anchor="middle" dominant-baseline="middle" font-family="Arial, sans-serif" font-size="13" font-weight="700" fill="#1f2933"><tspan x="84.0" dy="-0.0">Equipo Tecnico</tspan></text>
  <g fill="none" stroke="#4f5b67" stroke-width="1.4" marker-end="url(#arrow)">
    <polyline points="203.0,190.0 272.5,190.0 342.0,190.0"/>
    <polyline points="390.0,190.0 436.0,190.0 482.0,190.0"/>
    <polyline points="544,226.0 544,231.0 900,231.0 900,236.0"/>
    <polyline points="971.0,262.0 989.0,262.0 989.0,410.0 1007.0,410.0"/>
    <polyline points="1149.0,410.0 1167.0,410.0 1185.0,410.0"/>
    <polyline points="1327.0,410.0 1345.0,410.0 1345.0,190.0 1363.0,190.0"/>
    <polyline points="1363.0,190.0 1345.0,190.0 1345.0,540 408.0,540 408.0,190.0 390.0,190.0"/>
    <polyline points="606.0,190.0 628.5,190.0 628.5,410.0 651.0,410.0"/>
    <polyline points="793.0,410.0 811.0,410.0 811.0,564 1523.0,564 1523.0,410.0 1541.0,410.0"/>
    <polyline points="1683.0,410.0 1701.0,410.0 1719.0,410.0"/>
    <polyline points="1861.0,410.0 1883.5,410.0 1906.0,410.0"/>
    <polyline points="1968,446.0 1968,451.0 2146,451.0 2146,456.0"/>
    <polyline points="2075.0,482.0 2057.0,482.0 2057.0,588 1879.0,588 1879.0,410.0 1861.0,410.0"/>
    <polyline points="2217.0,482.0 2263.0,482.0 2263.0,410.0 2309.0,410.0"/>
  </g>
  <rect x="549.0" y="219.5" width="26" height="18" fill="#ffffff" stroke="none"/>
  <text x="562.0" y="232.5" text-anchor="middle" font-family="Arial, sans-serif" font-size="11" fill="#1f2933">No</text>
  <rect x="604.25" y="169.0" width="26" height="18" fill="#ffffff" stroke="none"/>
  <text x="617.25" y="182.0" text-anchor="middle" font-family="Arial, sans-serif" font-size="11" fill="#1f2933">Si</text>
  <rect x="1973.0" y="439.5" width="26" height="18" fill="#ffffff" stroke="none"/>
  <text x="1986.0" y="452.5" text-anchor="middle" font-family="Arial, sans-serif" font-size="11" fill="#1f2933">No</text>
  <circle cx="188" cy="190.0" r="15.0" fill="#1f2933" stroke="#1f2933" stroke-width="1.5"/>
  <polygon points="366,166.0 390.0,190.0 366,214.0 342.0,190.0" fill="#ffffff" stroke="#4f5b67" stroke-width="1.5"/>
  <polygon points="544,154.0 606.0,190.0 544,226.0 482.0,190.0" fill="#ffffff" stroke="#4f5b67" stroke-width="1.5"/>
  <text x="544" y="174.5" text-anchor="middle" font-family="Arial, sans-serif" font-size="11" fill="#1f2933">¿Las</text>
  <text x="544" y="187.5" text-anchor="middle" font-family="Arial, sans-serif" font-size="11" fill="#1f2933">dependencias</text>
  <text x="544" y="200.5" text-anchor="middle" font-family="Arial, sans-serif" font-size="11" fill="#1f2933">están</text>
  <text x="544" y="213.5" text-anchor="middle" font-family="Arial, sans-serif" font-size="11" fill="#1f2933">resueltas?</text>
  <rect x="829.0" y="236.0" width="142" height="52" rx="4" fill="#ffffff" stroke="#4f5b67" stroke-width="1.5"/>
  <text x="900" y="266.0" text-anchor="middle" font-family="Arial, sans-serif" font-size="12" fill="#1f2933">Marcar bloqueada</text>
  <rect x="1007.0" y="384.0" width="142" height="52" rx="4" fill="#ffffff" stroke="#4f5b67" stroke-width="1.5"/>
  <text x="1078" y="414.0" text-anchor="middle" font-family="Arial, sans-serif" font-size="12" fill="#1f2933">Acordar contrato</text>
  <rect x="1185.0" y="384.0" width="142" height="52" rx="4" fill="#ffffff" stroke="#4f5b67" stroke-width="1.5"/>
  <text x="1256" y="407.0" text-anchor="middle" font-family="Arial, sans-serif" font-size="12" fill="#1f2933">Comprometer</text>
  <text x="1256" y="421.0" text-anchor="middle" font-family="Arial, sans-serif" font-size="12" fill="#1f2933">entrega</text>
  <rect x="1363.0" y="164.0" width="142" height="52" rx="4" fill="#ffffff" stroke="#4f5b67" stroke-width="1.5"/>
  <text x="1434" y="194.0" text-anchor="middle" font-family="Arial, sans-serif" font-size="12" fill="#1f2933">Reactivar epica</text>
  <rect x="651.0" y="384.0" width="142" height="52" rx="4" fill="#ffffff" stroke="#4f5b67" stroke-width="1.5"/>
  <text x="722" y="414.0" text-anchor="middle" font-family="Arial, sans-serif" font-size="12" fill="#1f2933">Refinar historias</text>
  <rect x="1541.0" y="384.0" width="142" height="52" rx="4" fill="#ffffff" stroke="#4f5b67" stroke-width="1.5"/>
  <text x="1612" y="407.0" text-anchor="middle" font-family="Arial, sans-serif" font-size="12" fill="#1f2933">Construir</text>
  <text x="1612" y="421.0" text-anchor="middle" font-family="Arial, sans-serif" font-size="12" fill="#1f2933">historias</text>
  <rect x="1719.0" y="384.0" width="142" height="52" rx="4" fill="#ffffff" stroke="#4f5b67" stroke-width="1.5"/>
  <text x="1790" y="414.0" text-anchor="middle" font-family="Arial, sans-serif" font-size="12" fill="#1f2933">Validar features</text>
  <polygon points="1968,374.0 2030.0,410.0 1968,446.0 1906.0,410.0" fill="#ffffff" stroke="#4f5b67" stroke-width="1.5"/>
  <text x="1968" y="407.5" text-anchor="middle" font-family="Arial, sans-serif" font-size="11" fill="#1f2933">¿Las features</text>
  <text x="1968" y="420.5" text-anchor="middle" font-family="Arial, sans-serif" font-size="11" fill="#1f2933">están cerradas?</text>
  <rect x="2075.0" y="456.0" width="142" height="52" rx="4" fill="#ffffff" stroke="#4f5b67" stroke-width="1.5"/>
  <text x="2146" y="486.0" text-anchor="middle" font-family="Arial, sans-serif" font-size="12" fill="#1f2933">Corregir historias</text>
  <circle cx="2324" cy="410.0" r="15.0" fill="#ffffff" stroke="#1f2933" stroke-width="2"/>
  <circle cx="2324" cy="410.0" r="10.0" fill="#1f2933" stroke="none"/>
</svg>
