<?xml version="1.0" encoding="UTF-8"?>
<svg xmlns="http://www.w3.org/2000/svg" width="1644" height="468" viewBox="0 0 1644 468" role="img" aria-labelledby="title desc">
  <title id="title">Fase 3: Validacion integrada y despliegue</title>
  <desc id="desc">Diagrama generado desde process.yaml con swimlanes horizontales, etiquetas de actor en varias lineas y conectores ortogonales sin cruces sobre nodos.</desc>
  <defs>
    <marker id="arrow" viewBox="0 0 10 10" refX="9" refY="5" markerWidth="8" markerHeight="8" orient="auto-start-reverse">
      <path d="M 0 0 L 10 5 L 0 10 z" fill="#4f5b67"/>
    </marker>
  </defs>
  <rect x="24" y="24" width="1596" height="420" rx="0" fill="#ffffff" stroke="#4f5b67" stroke-width="1.5"/>
  <text x="822.0" y="56" text-anchor="middle" font-family="Arial, sans-serif" font-size="20" font-weight="700" fill="#1f2933">Fase 3: Validacion integrada y despliegue</text>
  <rect x="24" y="80" width="1596" height="144" fill="#f8fafc" stroke="#d5dce6" stroke-width="1"/>
  <rect x="24" y="80" width="120" height="144" fill="#e6edf7" stroke="#d5dce6" stroke-width="1"/>
  <text x="84.0" y="152.0" text-anchor="middle" dominant-baseline="middle" font-family="Arial, sans-serif" font-size="13" font-weight="700" fill="#1f2933"><tspan x="84.0" dy="-0.0">Product Owner</tspan></text>
  <rect x="24" y="224" width="1596" height="144" fill="#eef4ff" stroke="#d5dce6" stroke-width="1"/>
  <rect x="24" y="224" width="120" height="144" fill="#e6edf7" stroke="#d5dce6" stroke-width="1"/>
  <text x="84.0" y="296.0" text-anchor="middle" dominant-baseline="middle" font-family="Arial, sans-serif" font-size="13" font-weight="700" fill="#1f2933"><tspan x="84.0" dy="-0.0">Equipo Tecnico</tspan></text>
  <g fill="none" stroke="#4f5b67" stroke-width="1.4" marker-end="url(#arrow)">
    <polyline points="203.0,152.0 249.0,152.0 295.0,152.0"/>
    <polyline points="437.0,152.0 459.5,152.0 482.0,152.0"/>
    <polyline points="544,188.0 686.5,188.0 686.5,296.0 829.0,296.0"/>
    <polyline points="829.0,296.0 811.0,296.0 811.0,388 455.0,388 455.0,152.0 437.0,152.0"/>
    <polyline points="606.0,152.0 628.5,152.0 628.5,296.0 651.0,296.0"/>
    <polyline points="793.0,296.0 811.0,296.0 811.0,412 989.0,412 989.0,296.0 1007.0,296.0"/>
    <polyline points="1149.0,296.0 1167.0,296.0 1167.0,152.0 1185.0,152.0"/>
    <polyline points="1327.0,152.0 1373.0,152.0 1419.0,152.0"/>
  </g>
  <rect x="602.25" y="167.0" width="26" height="18" fill="#ffffff" stroke="none"/>
  <text x="615.25" y="180.0" text-anchor="middle" font-family="Arial, sans-serif" font-size="11" fill="#1f2933">No</text>
  <rect x="604.25" y="131.0" width="26" height="18" fill="#ffffff" stroke="none"/>
  <text x="617.25" y="144.0" text-anchor="middle" font-family="Arial, sans-serif" font-size="11" fill="#1f2933">Si</text>
  <circle cx="188" cy="152.0" r="15.0" fill="#1f2933" stroke="#1f2933" stroke-width="1.5"/>
  <rect x="295.0" y="126.0" width="142" height="52" rx="4" fill="#ffffff" stroke="#4f5b67" stroke-width="1.5"/>
  <text x="366" y="156.0" text-anchor="middle" font-family="Arial, sans-serif" font-size="12" fill="#1f2933">Validar alcance</text>
  <polygon points="544,116.0 606.0,152.0 544,188.0 482.0,152.0" fill="#ffffff" stroke="#4f5b67" stroke-width="1.5"/>
  <text x="544" y="149.5" text-anchor="middle" font-family="Arial, sans-serif" font-size="11" fill="#1f2933">¿La validación</text>
  <text x="544" y="162.5" text-anchor="middle" font-family="Arial, sans-serif" font-size="11" fill="#1f2933">es correcta?</text>
  <rect x="829.0" y="270.0" width="142" height="52" rx="4" fill="#ffffff" stroke="#4f5b67" stroke-width="1.5"/>
  <text x="900" y="300.0" text-anchor="middle" font-family="Arial, sans-serif" font-size="12" fill="#1f2933">Corregir alcance</text>
  <rect x="651.0" y="270.0" width="142" height="52" rx="4" fill="#ffffff" stroke="#4f5b67" stroke-width="1.5"/>
  <text x="722" y="293.0" text-anchor="middle" font-family="Arial, sans-serif" font-size="12" fill="#1f2933">Desplegar</text>
  <text x="722" y="307.0" text-anchor="middle" font-family="Arial, sans-serif" font-size="12" fill="#1f2933">produccion</text>
  <rect x="1007.0" y="270.0" width="142" height="52" rx="4" fill="#ffffff" stroke="#4f5b67" stroke-width="1.5"/>
  <text x="1078" y="300.0" text-anchor="middle" font-family="Arial, sans-serif" font-size="12" fill="#1f2933">Cerrar features</text>
  <rect x="1185.0" y="126.0" width="142" height="52" rx="4" fill="#ffffff" stroke="#4f5b67" stroke-width="1.5"/>
  <text x="1256" y="156.0" text-anchor="middle" font-family="Arial, sans-serif" font-size="12" fill="#1f2933">Cerrar epica</text>
  <circle cx="1434" cy="152.0" r="15.0" fill="#ffffff" stroke="#1f2933" stroke-width="2"/>
  <circle cx="1434" cy="152.0" r="10.0" fill="#1f2933" stroke="none"/>
</svg>
