<?xml version="1.0" encoding="UTF-8"?>
<svg xmlns="http://www.w3.org/2000/svg" width="1598" height="254" viewBox="0 0 1598 254" role="img" aria-labelledby="title desc">
  <title id="title">Gestion de Demanda Tecnologica - vista general</title>
  <desc id="desc">Diagrama generado desde process.yaml con swimlanes horizontales, etiquetas de actor en varias lineas y conectores ortogonales sin cruces sobre nodos.</desc>
  <defs>
    <marker id="arrow" viewBox="0 0 10 10" refX="9" refY="5" markerWidth="8" markerHeight="8" orient="auto-start-reverse">
      <path d="M 0 0 L 10 5 L 0 10 z" fill="#4f5b67"/>
    </marker>
  </defs>
  <rect x="24" y="24" width="1550" height="206" rx="0" fill="#ffffff" stroke="#4f5b67" stroke-width="1.5"/>
  <text x="799.0" y="56" text-anchor="middle" font-family="Arial, sans-serif" font-size="20" font-weight="700" fill="#1f2933">Gestion de Demanda Tecnologica - vista general</text>
  <rect x="24" y="80" width="1550" height="150" fill="#f8fafc" stroke="#d5dce6" stroke-width="1"/>
  <rect x="24" y="80" width="120" height="150" fill="#e6edf7" stroke="#d5dce6" stroke-width="1"/>
  <text x="84.0" y="155.0" text-anchor="middle" dominant-baseline="middle" font-family="Arial, sans-serif" font-size="13" font-weight="700" fill="#1f2933"><tspan x="84.0" dy="-0.0">Proceso</tspan></text>
  <g fill="none" stroke="#4f5b67" stroke-width="1.4" marker-end="url(#arrow)">
    <polyline points="203.0,155.0 280.0,155.0 357.0,155.0"/>
    <polyline points="499.0,155.0 548.0,155.0 597.0,155.0"/>
    <polyline points="739.0,155.0 788.0,155.0 837.0,155.0"/>
    <polyline points="979.0,155.0 1028.0,155.0 1077.0,155.0"/>
    <polyline points="1219.0,155.0 1296.0,155.0 1373.0,155.0"/>
  </g>
  <circle cx="188" cy="155.0" r="15.0" fill="#1f2933" stroke="#1f2933" stroke-width="1.5"/>
  <rect x="357.0" y="129.0" width="142" height="52" rx="4" fill="#ffffff" stroke="#4f5b67" stroke-width="1.5"/>
  <text x="428" y="145.0" text-anchor="middle" font-family="Arial, sans-serif" font-size="12" fill="#1f2933">Fase 0: Recepcion</text>
  <text x="428" y="159.0" text-anchor="middle" font-family="Arial, sans-serif" font-size="12" fill="#1f2933">y evaluacion</text>
  <text x="428" y="173.0" text-anchor="middle" font-family="Arial, sans-serif" font-size="12" fill="#1f2933">inicial</text>
  <rect x="597.0" y="129.0" width="142" height="52" rx="4" fill="#ffffff" stroke="#4f5b67" stroke-width="1.5"/>
  <text x="668" y="145.0" text-anchor="middle" font-family="Arial, sans-serif" font-size="12" fill="#1f2933">Fase 1: Definicion</text>
  <text x="668" y="159.0" text-anchor="middle" font-family="Arial, sans-serif" font-size="12" fill="#1f2933">funcional y</text>
  <text x="668" y="173.0" text-anchor="middle" font-family="Arial, sans-serif" font-size="12" fill="#1f2933">descomposicion</text>
  <rect x="837.0" y="129.0" width="142" height="52" rx="4" fill="#ffffff" stroke="#4f5b67" stroke-width="1.5"/>
  <text x="908" y="138.0" text-anchor="middle" font-family="Arial, sans-serif" font-size="12" fill="#1f2933">Fase 2:</text>
  <text x="908" y="152.0" text-anchor="middle" font-family="Arial, sans-serif" font-size="12" fill="#1f2933">Construccion y</text>
  <text x="908" y="166.0" text-anchor="middle" font-family="Arial, sans-serif" font-size="12" fill="#1f2933">validacion</text>
  <text x="908" y="180.0" text-anchor="middle" font-family="Arial, sans-serif" font-size="12" fill="#1f2933">funcional</text>
  <rect x="1077.0" y="129.0" width="142" height="52" rx="4" fill="#ffffff" stroke="#4f5b67" stroke-width="1.5"/>
  <text x="1148" y="145.0" text-anchor="middle" font-family="Arial, sans-serif" font-size="12" fill="#1f2933">Fase 3: Validacion</text>
  <text x="1148" y="159.0" text-anchor="middle" font-family="Arial, sans-serif" font-size="12" fill="#1f2933">integrada y</text>
  <text x="1148" y="173.0" text-anchor="middle" font-family="Arial, sans-serif" font-size="12" fill="#1f2933">despliegue</text>
  <circle cx="1388" cy="155.0" r="15.0" fill="#ffffff" stroke="#1f2933" stroke-width="2"/>
  <circle cx="1388" cy="155.0" r="10.0" fill="#1f2933" stroke="none"/>
</svg>
