<?xml version="1.0" encoding="UTF-8"?>
<svg xmlns="http://www.w3.org/2000/svg" width="2712" height="864" viewBox="0 0 2712 864" role="img" aria-labelledby="title desc">
  <title id="title">Fase 0: Recepcion y evaluacion inicial</title>
  <desc id="desc">Diagrama generado desde process.yaml con swimlanes horizontales, etiquetas de actor en varias lineas y conectores ortogonales sin cruces sobre nodos.</desc>
  <defs>
    <marker id="arrow" viewBox="0 0 10 10" refX="9" refY="5" markerWidth="8" markerHeight="8" orient="auto-start-reverse">
      <path d="M 0 0 L 10 5 L 0 10 z" fill="#4f5b67"/>
    </marker>
  </defs>
  <rect x="24" y="24" width="2664" height="816" rx="0" fill="#ffffff" stroke="#4f5b67" stroke-width="1.5"/>
  <text x="1356.0" y="56" text-anchor="middle" font-family="Arial, sans-serif" font-size="20" font-weight="700" fill="#1f2933">Fase 0: Recepcion y evaluacion inicial</text>
  <rect x="24" y="80" width="2664" height="220" fill="#f8fafc" stroke="#d5dce6" stroke-width="1"/>
  <rect x="24" y="80" width="120" height="220" fill="#e6edf7" stroke="#d5dce6" stroke-width="1"/>
  <text x="84.0" y="190.0" text-anchor="middle" dominant-baseline="middle" font-family="Arial, sans-serif" font-size="13" font-weight="700" fill="#1f2933"><tspan x="84.0" dy="-0.0">Promotor</tspan></text>
  <rect x="24" y="300" width="2664" height="220" fill="#eef4ff" stroke="#d5dce6" stroke-width="1"/>
  <rect x="24" y="300" width="120" height="220" fill="#e6edf7" stroke="#d5dce6" stroke-width="1"/>
  <text x="84.0" y="410.0" text-anchor="middle" dominant-baseline="middle" font-family="Arial, sans-serif" font-size="13" font-weight="700" fill="#1f2933"><tspan x="84.0" dy="-0.0">Product Owner</tspan></text>
  <rect x="24" y="520" width="2664" height="220" fill="#f8fafc" stroke="#d5dce6" stroke-width="1"/>
  <rect x="24" y="520" width="120" height="220" fill="#e6edf7" stroke="#d5dce6" stroke-width="1"/>
  <text x="84.0" y="630.0" text-anchor="middle" dominant-baseline="middle" font-family="Arial, sans-serif" font-size="13" font-weight="700" fill="#1f2933"><tspan x="84.0" dy="-7.5">Comite</tspan><tspan x="84.0" dy="15">Transformacion</tspan></text>
  <g fill="none" stroke="#4f5b67" stroke-width="1.4" marker-end="url(#arrow)">
    <polyline points="203.0,190.0 249.0,190.0 295.0,190.0"/>
    <polyline points="437.0,190.0 455.0,190.0 473.0,190.0"/>
    <polyline points="615.0,190.0 633.0,190.0 633.0,410.0 651.0,410.0"/>
    <polyline points="793.0,410.0 815.5,410.0 838.0,410.0"/>
    <polyline points="900,446.0 900,451.0 1256,451.0 1256,456.0"/>
    <polyline points="1327.0,482.0 1345.0,482.0 1345.0,190.0 1363.0,190.0"/>
    <polyline points="1363.0,190.0 1345.0,190.0 1345.0,760 811.0,760 811.0,410.0 793.0,410.0"/>
    <polyline points="962.0,410.0 984.5,410.0 1007.0,410.0"/>
    <polyline points="1149.0,410.0 1167.0,410.0 1167.0,784 1523.0,784 1523.0,410.0 1541.0,410.0"/>
    <polyline points="1683.0,410.0 1701.0,410.0 1701.0,630.0 1719.0,630.0"/>
    <polyline points="1861.0,630.0 1883.5,630.0 1906.0,630.0"/>
    <polyline points="1968,594.0 2110.5,594.0 2110.5,410.0 2253.0,410.0"/>
    <polyline points="2030.0,630.0 2052.5,630.0 2075.0,630.0"/>
    <polyline points="2395.0,410.0 2441.0,410.0 2487.0,410.0"/>
    <polyline points="2217.0,630.0 2235.0,630.0 2235.0,808 2469.0,808 2469.0,410.0 2487.0,410.0"/>
  </g>
  <rect x="905.0" y="439.5" width="26" height="18" fill="#ffffff" stroke="none"/>
  <text x="918.0" y="452.5" text-anchor="middle" font-family="Arial, sans-serif" font-size="11" fill="#1f2933">No</text>
  <rect x="960.25" y="389.0" width="26" height="18" fill="#ffffff" stroke="none"/>
  <text x="973.25" y="402.0" text-anchor="middle" font-family="Arial, sans-serif" font-size="11" fill="#1f2933">Si</text>
  <rect x="2026.25" y="573.0" width="26" height="18" fill="#ffffff" stroke="none"/>
  <text x="2039.25" y="586.0" text-anchor="middle" font-family="Arial, sans-serif" font-size="11" fill="#1f2933">No</text>
  <rect x="2028.25" y="609.0" width="26" height="18" fill="#ffffff" stroke="none"/>
  <text x="2041.25" y="622.0" text-anchor="middle" font-family="Arial, sans-serif" font-size="11" fill="#1f2933">Si</text>
  <circle cx="188" cy="190.0" r="15.0" fill="#1f2933" stroke="#1f2933" stroke-width="1.5"/>
  <rect x="295.0" y="164.0" width="142" height="52" rx="4" fill="#ffffff" stroke="#4f5b67" stroke-width="1.5"/>
  <text x="366" y="194.0" text-anchor="middle" font-family="Arial, sans-serif" font-size="12" fill="#1f2933">Formalizar brief</text>
  <rect x="473.0" y="164.0" width="142" height="52" rx="4" fill="#ffffff" stroke="#4f5b67" stroke-width="1.5"/>
  <text x="544" y="194.0" text-anchor="middle" font-family="Arial, sans-serif" font-size="12" fill="#1f2933">Enviar iniciativa</text>
  <rect x="651.0" y="384.0" width="142" height="52" rx="4" fill="#ffffff" stroke="#4f5b67" stroke-width="1.5"/>
  <text x="722" y="414.0" text-anchor="middle" font-family="Arial, sans-serif" font-size="12" fill="#1f2933">Revisar brief</text>
  <polygon points="900,374.0 962.0,410.0 900,446.0 838.0,410.0" fill="#ffffff" stroke="#4f5b67" stroke-width="1.5"/>
  <text x="900" y="407.5" text-anchor="middle" font-family="Arial, sans-serif" font-size="11" fill="#1f2933">¿El brief está</text>
  <text x="900" y="420.5" text-anchor="middle" font-family="Arial, sans-serif" font-size="11" fill="#1f2933">completo?</text>
  <rect x="1185.0" y="456.0" width="142" height="52" rx="4" fill="#ffffff" stroke="#4f5b67" stroke-width="1.5"/>
  <text x="1256" y="486.0" text-anchor="middle" font-family="Arial, sans-serif" font-size="12" fill="#1f2933">Solicitar ajustes</text>
  <rect x="1363.0" y="164.0" width="142" height="52" rx="4" fill="#ffffff" stroke="#4f5b67" stroke-width="1.5"/>
  <text x="1434" y="194.0" text-anchor="middle" font-family="Arial, sans-serif" font-size="12" fill="#1f2933">Actualizar brief</text>
  <rect x="1007.0" y="384.0" width="142" height="52" rx="4" fill="#ffffff" stroke="#4f5b67" stroke-width="1.5"/>
  <text x="1078" y="414.0" text-anchor="middle" font-family="Arial, sans-serif" font-size="12" fill="#1f2933">Estimar effort</text>
  <rect x="1541.0" y="384.0" width="142" height="52" rx="4" fill="#ffffff" stroke="#4f5b67" stroke-width="1.5"/>
  <text x="1612" y="414.0" text-anchor="middle" font-family="Arial, sans-serif" font-size="12" fill="#1f2933">Crear epica</text>
  <rect x="1719.0" y="604.0" width="142" height="52" rx="4" fill="#ffffff" stroke="#4f5b67" stroke-width="1.5"/>
  <text x="1790" y="634.0" text-anchor="middle" font-family="Arial, sans-serif" font-size="12" fill="#1f2933">Evaluar iniciativa</text>
  <polygon points="1968,594.0 2030.0,630.0 1968,666.0 1906.0,630.0" fill="#ffffff" stroke="#4f5b67" stroke-width="1.5"/>
  <text x="1968" y="627.5" text-anchor="middle" font-family="Arial, sans-serif" font-size="11" fill="#1f2933">¿La iniciativa</text>
  <text x="1968" y="640.5" text-anchor="middle" font-family="Arial, sans-serif" font-size="11" fill="#1f2933">está aprobada?</text>
  <rect x="2253.0" y="384.0" width="142" height="52" rx="4" fill="#ffffff" stroke="#4f5b67" stroke-width="1.5"/>
  <text x="2324" y="414.0" text-anchor="middle" font-family="Arial, sans-serif" font-size="12" fill="#1f2933">Comunicar rechazo</text>
  <rect x="2075.0" y="604.0" width="142" height="52" rx="4" fill="#ffffff" stroke="#4f5b67" stroke-width="1.5"/>
  <text x="2146" y="634.0" text-anchor="middle" font-family="Arial, sans-serif" font-size="12" fill="#1f2933">Priorizar epica</text>
  <circle cx="2502" cy="410.0" r="15.0" fill="#ffffff" stroke="#1f2933" stroke-width="2"/>
  <circle cx="2502" cy="410.0" r="10.0" fill="#1f2933" stroke="none"/>
</svg>
