<?xml version="1.0" encoding="UTF-8"?>
<svg xmlns="http://www.w3.org/2000/svg" width="2466" height="524" viewBox="0 0 2466 524" role="img" aria-labelledby="title desc">
<title id="title">Generacion de epica desde brief</title>
<desc id="desc">Diagrama generado desde process.yaml.</desc>
<defs><marker id="arrow" viewBox="0 0 10 10" refX="9" refY="5" markerWidth="8" markerHeight="8" orient="auto"><path d="M 0 0 L 10 5 L 0 10 z" fill="#4f5b67"/></marker></defs>
<rect x="24" y="24" width="2418" height="476" fill="#fff" stroke="#4f5b67"/>
<text x="1233.0" y="56" text-anchor="middle" font-family="Arial, sans-serif" font-size="20" font-weight="700" fill="#1f2933"><tspan x="1233.0" dy="0">Generacion de epica desde brief</tspan></text>
<rect x="24" y="80" width="2418" height="116" fill="#f8fafc" stroke="#d5dce6"/>
<rect x="24" y="80" width="120" height="116" fill="#e6edf7" stroke="#d5dce6"/>
<text x="84.0" y="138.0" text-anchor="middle" font-family="Arial, sans-serif" font-size="13" font-weight="700" fill="#1f2933"><tspan x="84.0" dy="0">Solicitante</tspan></text>
<rect x="24" y="196" width="2418" height="116" fill="#eef4ff" stroke="#d5dce6"/>
<rect x="24" y="196" width="120" height="116" fill="#e6edf7" stroke="#d5dce6"/>
<text x="84.0" y="254.0" text-anchor="middle" font-family="Arial, sans-serif" font-size="13" font-weight="700" fill="#1f2933"><tspan x="84.0" dy="0">Product Owner</tspan></text>
<rect x="24" y="312" width="2418" height="116" fill="#f8fafc" stroke="#d5dce6"/>
<rect x="24" y="312" width="120" height="116" fill="#e6edf7" stroke="#d5dce6"/>
<text x="84.0" y="370.0" text-anchor="middle" font-family="Arial, sans-serif" font-size="13" font-weight="700" fill="#1f2933"><tspan x="84.0" dy="0">Equipo Tecnico</tspan></text>
<g fill="none" stroke="#4f5b67" stroke-width="1.4" marker-end="url(#arrow)">
<polyline points="259,138.0 282.0,138.0 282.0,138.0 305,138.0"/>
<polyline points="447,138.0 470.0,138.0 470.0,138.0 493,138.0"/>
<polyline points="635,138.0 658.0,138.0 658.0,254.0 681,254.0"/>
<polyline points="823,254.0 846.0,254.0 846.0,254.0 869,254.0"/>
<polyline points="1011,254.0 1034.0,254.0 1034.0,254.0 1057,254.0"/>
<polyline points="1199,254.0 1222.0,254.0 1222.0,138.0 1245,138.0"/>
<polyline points="1245,138.0 1034.0,138.0 1034.0,254.0 823,254.0"/>
<polyline points="1011,254.0 1222.0,254.0 1222.0,254.0 1433,254.0"/>
<polyline points="1575,254.0 1598.0,254.0 1598.0,370.0 1621,370.0"/>
<polyline points="1763,370.0 1786.0,370.0 1786.0,254.0 1809,254.0"/>
<polyline points="1951,254.0 1974.0,254.0 1974.0,254.0 1997,254.0"/>
<polyline points="2139,254.0 2162.0,254.0 2162.0,254.0 2185,254.0"/>
</g>
<text x="1034.0" y="246.0" text-anchor="middle" font-family="Arial, sans-serif" font-size="11" font-weight="400" fill="#1f2933"><tspan x="1034.0" dy="0">No</tspan></text>
<text x="1222.0" y="246.0" text-anchor="middle" font-family="Arial, sans-serif" font-size="11" font-weight="400" fill="#1f2933"><tspan x="1222.0" dy="0">Si</tspan></text>
<circle cx="188" cy="138.0" r="15" fill="#1f2933"/>
<rect x="305" y="112.0" width="142" height="52" rx="4" fill="#fff" stroke="#4f5b67" stroke-width="1.5"/>
<text x="376" y="138.0" text-anchor="middle" font-family="Arial, sans-serif" font-size="12" font-weight="400" fill="#1f2933"><tspan x="376" dy="0">Crear brief</tspan></text>
<rect x="493" y="112.0" width="142" height="52" rx="4" fill="#fff" stroke="#4f5b67" stroke-width="1.5"/>
<text x="564" y="138.0" text-anchor="middle" font-family="Arial, sans-serif" font-size="12" font-weight="400" fill="#1f2933"><tspan x="564" dy="0">Enviar brief</tspan></text>
<rect x="681" y="228.0" width="142" height="52" rx="4" fill="#fff" stroke="#4f5b67" stroke-width="1.5"/>
<text x="752" y="254.0" text-anchor="middle" font-family="Arial, sans-serif" font-size="12" font-weight="400" fill="#1f2933"><tspan x="752" dy="0">Revisar brief</tspan></text>
<polygon points="940,218.0 1002,254.0 940,290.0 878,254.0" fill="#fff" stroke="#4f5b67" stroke-width="1.5"/>
<text x="940" y="247.0" text-anchor="middle" font-family="Arial, sans-serif" font-size="11" font-weight="400" fill="#1f2933"><tspan x="940" dy="0">¿El brief está</tspan><tspan x="940" dy="14">completo?</tspan></text>
<rect x="1057" y="228.0" width="142" height="52" rx="4" fill="#fff" stroke="#4f5b67" stroke-width="1.5"/>
<text x="1128" y="254.0" text-anchor="middle" font-family="Arial, sans-serif" font-size="12" font-weight="400" fill="#1f2933"><tspan x="1128" dy="0">Solicitar ajustes</tspan></text>
<rect x="1245" y="112.0" width="142" height="52" rx="4" fill="#fff" stroke="#4f5b67" stroke-width="1.5"/>
<text x="1316" y="138.0" text-anchor="middle" font-family="Arial, sans-serif" font-size="12" font-weight="400" fill="#1f2933"><tspan x="1316" dy="0">Actualizar brief</tspan></text>
<rect x="1433" y="228.0" width="142" height="52" rx="4" fill="#fff" stroke="#4f5b67" stroke-width="1.5"/>
<text x="1504" y="247.0" text-anchor="middle" font-family="Arial, sans-serif" font-size="12" font-weight="400" fill="#1f2933"><tspan x="1504" dy="0">Priorizar</tspan><tspan x="1504" dy="14">iniciativa</tspan></text>
<rect x="1621" y="344.0" width="142" height="52" rx="4" fill="#fff" stroke="#4f5b67" stroke-width="1.5"/>
<text x="1692" y="370.0" text-anchor="middle" font-family="Arial, sans-serif" font-size="12" font-weight="400" fill="#1f2933"><tspan x="1692" dy="0">Estimar alcance</tspan></text>
<rect x="1809" y="228.0" width="142" height="52" rx="4" fill="#fff" stroke="#4f5b67" stroke-width="1.5"/>
<text x="1880" y="254.0" text-anchor="middle" font-family="Arial, sans-serif" font-size="12" font-weight="400" fill="#1f2933"><tspan x="1880" dy="0">Crear epica</tspan></text>
<rect x="1997" y="228.0" width="142" height="52" rx="4" fill="#fff" stroke="#4f5b67" stroke-width="1.5"/>
<text x="2068" y="254.0" text-anchor="middle" font-family="Arial, sans-serif" font-size="12" font-weight="400" fill="#1f2933"><tspan x="2068" dy="0">Publicar epica</tspan></text>
<circle cx="2256" cy="254.0" r="15" fill="#fff" stroke="#1f2933" stroke-width="2"/><circle cx="2256" cy="254.0" r="10" fill="#1f2933"/>
</svg>
