<svg xmlns="http://www.w3.org/2000/svg" xmlns:xlink="http://www.w3.org/1999/xlink" version="1.1" data-diagram-type="ACTIVITY" style="width:494px;height:781px;background:#FFFFFF;" width="494px" height="781px" viewBox="0 0 494 781" zoomAndPan="magnify" preserveAspectRatio="none" contentStyleType="text/css"><?plantuml 1.2026.7beta8?><defs/><g font-family="sans-serif" lengthAdjust="spacing"><g class="title" data-source-line="1"><text x="118.796" y="32.995" fill="#000" font-size="14" textLength="255.233" font-weight="700">Generacion de epica desde brief</text></g><rect x="20" y="55.042" width="447.825" height="20.953" fill="none" style="stroke:none;"/><ellipse cx="81.516" cy="90.995" rx="10" ry="10" fill="#222" style="stroke:#222;stroke-width:1;"/><rect x="39.371" y="120.995" width="84.289" height="33.969" fill="#F7F8FA" style="stroke:#4F5B67;stroke-width:0.5;" rx="12.5" ry="12.5"/><text x="49.371" y="142.134" fill="#1F2933" font-size="12" textLength="64.289">Crear brief</text><rect x="36.907" y="174.964" width="89.217" height="33.969" fill="#F7F8FA" style="stroke:#4F5B67;stroke-width:0.5;" rx="12.5" ry="12.5"/><text x="46.907" y="196.103" fill="#1F2933" font-size="12" textLength="69.217">Enviar brief</text><rect x="26" y="392.581" width="111.031" height="33.969" fill="#F7F8FA" style="stroke:#4F5B67;stroke-width:0.5;" rx="12.5" ry="12.5"/><text x="36" y="413.719" fill="#1F2933" font-size="12" textLength="91.031">Actualizar brief</text><line x1="20" y1="55.042" x2="20" y2="760.393" style="stroke:#000;stroke-width:1.5;"/><rect x="182.171" y="228.933" width="96.002" height="33.969" fill="#F7F8FA" style="stroke:#4F5B67;stroke-width:0.5;" rx="12.5" ry="12.5"/><text x="192.171" y="250.071" fill="#1F2933" font-size="12" textLength="76.002">Revisar brief</text><rect x="172.547" y="338.612" width="115.25" height="33.969" fill="#F7F8FA" style="stroke:#4F5B67;stroke-width:0.5;" rx="12.5" ry="12.5"/><text x="182.547" y="359.75" fill="#1F2933" font-size="12" textLength="95.25">Solicitar ajustes</text><rect x="182.171" y="446.549" width="96.002" height="33.969" fill="#F7F8FA" style="stroke:#4F5B67;stroke-width:0.5;" rx="12.5" ry="12.5"/><text x="192.171" y="467.688" fill="#1F2933" font-size="12" textLength="76.002">Revisar brief</text><polygon points="184.031,282.901,276.312,282.901,288.312,294.901,276.312,306.901,184.031,306.901,172.031,294.901,184.031,282.901" fill="#F7F8FA" style="stroke:#4F5B67;stroke-width:0.5;stroke-linejoin:miter;stroke-miterlimit:10;"/><text x="234.172" y="317.112" fill="#000" font-size="11" textLength="14.958">No</text><text x="184.031" y="298.709" fill="#1F2933" font-size="11" textLength="92.281">¿Brief completo?</text><text x="161.993" y="292.307" fill="#000" font-size="11" textLength="10.039">Sí</text><rect x="166.388" y="522.518" width="127.566" height="33.969" fill="#F7F8FA" style="stroke:#4F5B67;stroke-width:0.5;" rx="12.5" ry="12.5"/><text x="176.388" y="543.657" fill="#1F2933" font-size="12" textLength="107.566">Priorizar iniciativa</text><rect x="185.631" y="630.456" width="89.082" height="33.969" fill="#F7F8FA" style="stroke:#4F5B67;stroke-width:0.5;" rx="12.5" ry="12.5"/><text x="195.631" y="651.594" fill="#1F2933" font-size="12" textLength="69.082">Crear epica</text><rect x="178.116" y="684.424" width="104.111" height="33.969" fill="#F7F8FA" style="stroke:#4F5B67;stroke-width:0.5;" rx="12.5" ry="12.5"/><text x="188.116" y="705.563" fill="#1F2933" font-size="12" textLength="84.111">Publicar epica</text><ellipse cx="230.172" cy="749.393" rx="11" ry="11" fill="none" style="stroke:#222;stroke-width:1;"/><ellipse cx="230.172" cy="749.393" rx="6" ry="6" fill="#222" style="stroke:#222;stroke-width:1;"/><line x1="141.031" y1="55.042" x2="141.031" y2="760.393" style="stroke:#000;stroke-width:1.5;"/><rect x="335.694" y="576.487" width="115.889" height="33.969" fill="#F7F8FA" style="stroke:#4F5B67;stroke-width:0.5;" rx="12.5" ry="12.5"/><text x="345.694" y="597.625" fill="#1F2933" font-size="12" textLength="95.889">Estimar alcance</text><line x1="319.312" y1="55.042" x2="319.312" y2="760.393" style="stroke:#000;stroke-width:1.5;"/><line x1="465.964" y1="55.042" x2="465.964" y2="760.393" style="stroke:#000;stroke-width:1.5;"/><line x1="81.516" y1="100.995" x2="81.516" y2="120.995" style="stroke:#4F5B67;stroke-width:1;"/><polygon points="77.516,110.995,81.516,120.995,85.516,110.995,81.516,114.995" fill="#4F5B67" style="stroke:#4F5B67;stroke-width:1;stroke-linejoin:miter;stroke-miterlimit:10;"/><line x1="81.516" y1="154.964" x2="81.516" y2="174.964" style="stroke:#4F5B67;stroke-width:1;"/><polygon points="77.516,164.964,81.516,174.964,85.516,164.964,81.516,168.964" fill="#4F5B67" style="stroke:#4F5B67;stroke-width:1;stroke-linejoin:miter;stroke-miterlimit:10;"/><line x1="230.172" y1="306.901" x2="230.172" y2="338.612" style="stroke:#4F5B67;stroke-width:1;"/><polygon points="226.172,328.612,230.172,338.612,234.172,328.612,230.172,332.612" fill="#4F5B67" style="stroke:#4F5B67;stroke-width:1;stroke-linejoin:miter;stroke-miterlimit:10;"/><line x1="230.172" y1="480.518" x2="230.172" y2="490.518" style="stroke:#4F5B67;stroke-width:1;"/><line x1="230.172" y1="490.518" x2="300.312" y2="490.518" style="stroke:#4F5B67;stroke-width:1;"/><polygon points="296.312,401.163,300.312,391.163,304.312,401.163,300.312,397.163" fill="#4F5B67" style="stroke:#4F5B67;stroke-width:1;stroke-linejoin:miter;stroke-miterlimit:10;"/><line x1="300.312" y1="294.901" x2="300.312" y2="490.518" style="stroke:#4F5B67;stroke-width:1;"/><line x1="300.312" y1="294.901" x2="288.312" y2="294.901" style="stroke:#4F5B67;stroke-width:1;"/><polygon points="298.312,290.901,288.312,294.901,298.312,298.901,294.312,294.901" fill="#4F5B67" style="stroke:#4F5B67;stroke-width:1;stroke-linejoin:miter;stroke-miterlimit:10;"/><line x1="172.031" y1="294.901" x2="160.031" y2="294.901" style="stroke:#4F5B67;stroke-width:1;"/><polygon points="156.031,387.163,160.031,397.163,164.031,387.163,160.031,391.163" fill="#4F5B67" style="stroke:#4F5B67;stroke-width:1;stroke-linejoin:miter;stroke-miterlimit:10;"/><line x1="160.031" y1="294.901" x2="160.031" y2="502.518" style="stroke:#4F5B67;stroke-width:1;"/><line x1="160.031" y1="502.518" x2="230.172" y2="502.518" style="stroke:#4F5B67;stroke-width:1;"/><line x1="230.172" y1="502.518" x2="230.172" y2="522.518" style="stroke:#4F5B67;stroke-width:1;"/><polygon points="226.172,512.518,230.172,522.518,234.172,512.518,230.172,516.518" fill="#4F5B67" style="stroke:#4F5B67;stroke-width:1;stroke-linejoin:miter;stroke-miterlimit:10;"/><line x1="230.172" y1="262.901" x2="230.172" y2="282.901" style="stroke:#4F5B67;stroke-width:1;"/><polygon points="226.172,272.901,230.172,282.901,234.172,272.901,230.172,276.901" fill="#4F5B67" style="stroke:#4F5B67;stroke-width:1;stroke-linejoin:miter;stroke-miterlimit:10;"/><line x1="230.172" y1="664.424" x2="230.172" y2="684.424" style="stroke:#4F5B67;stroke-width:1;"/><polygon points="226.172,674.424,230.172,684.424,234.172,674.424,230.172,678.424" fill="#4F5B67" style="stroke:#4F5B67;stroke-width:1;stroke-linejoin:miter;stroke-miterlimit:10;"/><line x1="230.172" y1="718.393" x2="230.172" y2="738.393" style="stroke:#4F5B67;stroke-width:1;"/><polygon points="226.172,728.393,230.172,738.393,234.172,728.393,230.172,732.393" fill="#4F5B67" style="stroke:#4F5B67;stroke-width:1;stroke-linejoin:miter;stroke-miterlimit:10;"/><line x1="81.516" y1="208.933" x2="81.516" y2="213.933" style="stroke:#4F5B67;stroke-width:1;"/><line x1="81.516" y1="213.933" x2="230.172" y2="213.933" style="stroke:#4F5B67;stroke-width:1;"/><line x1="230.172" y1="213.933" x2="230.172" y2="228.933" style="stroke:#4F5B67;stroke-width:1;"/><polygon points="226.172,218.933,230.172,228.933,234.172,218.933,230.172,222.933" fill="#4F5B67" style="stroke:#4F5B67;stroke-width:1;stroke-linejoin:miter;stroke-miterlimit:10;"/><line x1="230.172" y1="372.581" x2="230.172" y2="377.581" style="stroke:#4F5B67;stroke-width:1;"/><line x1="230.172" y1="377.581" x2="81.516" y2="377.581" style="stroke:#4F5B67;stroke-width:1;"/><line x1="81.516" y1="377.581" x2="81.516" y2="392.581" style="stroke:#4F5B67;stroke-width:1;"/><polygon points="77.516,382.581,81.516,392.581,85.516,382.581,81.516,386.581" fill="#4F5B67" style="stroke:#4F5B67;stroke-width:1;stroke-linejoin:miter;stroke-miterlimit:10;"/><line x1="81.516" y1="426.549" x2="81.516" y2="431.549" style="stroke:#4F5B67;stroke-width:1;"/><line x1="81.516" y1="431.549" x2="230.172" y2="431.549" style="stroke:#4F5B67;stroke-width:1;"/><line x1="230.172" y1="431.549" x2="230.172" y2="446.549" style="stroke:#4F5B67;stroke-width:1;"/><polygon points="226.172,436.549,230.172,446.549,234.172,436.549,230.172,440.549" fill="#4F5B67" style="stroke:#4F5B67;stroke-width:1;stroke-linejoin:miter;stroke-miterlimit:10;"/><line x1="230.172" y1="556.487" x2="230.172" y2="561.487" style="stroke:#4F5B67;stroke-width:1;"/><line x1="230.172" y1="561.487" x2="393.638" y2="561.487" style="stroke:#4F5B67;stroke-width:1;"/><line x1="393.638" y1="561.487" x2="393.638" y2="576.487" style="stroke:#4F5B67;stroke-width:1;"/><polygon points="389.638,566.487,393.638,576.487,397.638,566.487,393.638,570.487" fill="#4F5B67" style="stroke:#4F5B67;stroke-width:1;stroke-linejoin:miter;stroke-miterlimit:10;"/><line x1="393.638" y1="610.456" x2="393.638" y2="615.456" style="stroke:#4F5B67;stroke-width:1;"/><line x1="393.638" y1="615.456" x2="230.172" y2="615.456" style="stroke:#4F5B67;stroke-width:1;"/><line x1="230.172" y1="615.456" x2="230.172" y2="630.456" style="stroke:#4F5B67;stroke-width:1;"/><polygon points="226.172,620.456,230.172,630.456,234.172,620.456,230.172,624.456" fill="#4F5B67" style="stroke:#4F5B67;stroke-width:1;stroke-linejoin:miter;stroke-miterlimit:10;"/><text x="33.033" y="71.75" fill="#000" font-size="18" textLength="94.966">Solicitante</text><text x="163.397" y="71.75" fill="#000" font-size="18" textLength="133.55">Product Owner</text><text x="324.312" y="71.75" fill="#000" font-size="18" textLength="136.652">Equipo Tecnico</text><?plantuml-src XPBTJi9048NlzoasyGOk5HGi5qO8UgT4V85XEzMHibDtfn2rFfBFOA8lvXGm_4XYBvhjwScPRquh93dQQ_GOm15xcwB5WXpe8Ufv4WWpO-AKV041PdO2RleGkFJfW7CEzYXRNbiES49paXVxPgpj_x5ticu6zHiEAOQrsivE9sSTLQ_OorexpaxEMotplXMjTo6fCGzc8sPjHTdBxa0tXUw_sPSXy68NnrHZpicHW1UiJ1GTRv91G0YhOdec6VevRHvDDGgSbaxixK8hhKnoXtEAMuR58sdXZQ_FVYrOnxCYH-6BfgLe6pVSLD3aTsomy5H6mTXJTHT6NPTEIiZfTPEkfhtvQjiZG9-k6SRV7qrZab4W3iiKyfeF-lMWtcJuN5B1zXwTogoh3AFGh6RA7NY7XxPTTRFyWRIRKJbHueqGXOiV?></g></svg>