<svg width="2446pt" height="1479pt"
 viewBox="0.00 0.00 2446.22 1478.60" xmlns="http://www.w3.org/2000/svg" xmlns:xlink="http://www.w3.org/1999/xlink">
<g id="graph0" class="graph" transform="scale(1 1) rotate(0) translate(4 1474.6)">
<title>agenda_unica_luckia</title>
<polygon fill="white" stroke="none" points="-4,4 -4,-1474.6 2442.22,-1474.6 2442.22,4 -4,4"/>
<text text-anchor="middle" x="1219.11" y="-1449.5" font-family="Arial" font-size="18.00">Gestion de la Agenda Unica Luckia</text>
<g id="clust1" class="cluster">
<title>cluster_promotor</title>
<path fill="#eef4ff" stroke="#7a8da8" d="M267.68,-1284C267.68,-1284 865.91,-1284 865.91,-1284 871.91,-1284 877.91,-1290 877.91,-1296 877.91,-1296 877.91,-1400 877.91,-1400 877.91,-1406 871.91,-1412 865.91,-1412 865.91,-1412 267.68,-1412 267.68,-1412 261.68,-1412 255.68,-1406 255.68,-1400 255.68,-1400 255.68,-1296 255.68,-1296 255.68,-1290 261.68,-1284 267.68,-1284"/>
<text text-anchor="middle" x="566.8" y="-1395.65" font-family="Arial" font-size="13.00">Promotor</text>
</g>
<g id="clust2" class="cluster">
<title>cluster_product_owner</title>
<path fill="#eef4ff" stroke="#7a8da8" d="M504.36,-722C504.36,-722 2015.6,-722 2015.6,-722 2021.6,-722 2027.6,-728 2027.6,-734 2027.6,-734 2027.6,-1242 2027.6,-1242 2027.6,-1248 2021.6,-1254 2015.6,-1254 2015.6,-1254 504.36,-1254 504.36,-1254 498.36,-1254 492.36,-1248 492.36,-1242 492.36,-1242 492.36,-734 492.36,-734 492.36,-728 498.36,-722 504.36,-722"/>
<text text-anchor="middle" x="1259.98" y="-1237.65" font-family="Arial" font-size="13.00">Product Owner</text>
</g>
<g id="clust3" class="cluster">
<title>cluster_committee</title>
<path fill="#eef4ff" stroke="#7a8da8" d="M20,-635C20,-635 609.64,-635 609.64,-635 615.64,-635 621.64,-641 621.64,-647 621.64,-647 621.64,-702 621.64,-702 621.64,-708 615.64,-714 609.64,-714 609.64,-714 20,-714 20,-714 14,-714 8,-708 8,-702 8,-702 8,-647 8,-647 8,-641 14,-635 20,-635"/>
<text text-anchor="middle" x="314.82" y="-697.65" font-family="Arial" font-size="13.00">Comite Transformacion</text>
</g>
<g id="clust4" class="cluster">
<title>cluster_pmo</title>
<path fill="#eef4ff" stroke="#7a8da8" d="M762.63,-12C762.63,-12 1402.61,-12 1402.61,-12 1408.61,-12 1414.61,-18 1414.61,-24 1414.61,-24 1414.61,-152 1414.61,-152 1414.61,-158 1408.61,-164 1402.61,-164 1402.61,-164 762.63,-164 762.63,-164 756.63,-164 750.63,-158 750.63,-152 750.63,-152 750.63,-24 750.63,-24 750.63,-18 756.63,-12 762.63,-12"/>
<text text-anchor="middle" x="1082.62" y="-147.65" font-family="Arial" font-size="13.00">PMO</text>
</g>
<g id="clust5" class="cluster">
<title>cluster_tech_team</title>
<path fill="#eef4ff" stroke="#7a8da8" d="M1046.23,-410C1046.23,-410 2418.22,-410 2418.22,-410 2424.22,-410 2430.22,-416 2430.22,-422 2430.22,-422 2430.22,-702 2430.22,-702 2430.22,-708 2424.22,-714 2418.22,-714 2418.22,-714 1046.23,-714 1046.23,-714 1040.23,-714 1034.23,-708 1034.23,-702 1034.23,-702 1034.23,-422 1034.23,-422 1034.23,-416 1040.23,-410 1046.23,-410"/>
<text text-anchor="middle" x="1732.23" y="-697.65" font-family="Arial" font-size="13.00">Equipo Tecnico</text>
</g>
<!-- start -->
<g id="node1" class="node">
<title>start</title>
<ellipse fill="#222222" stroke="#222222" cx="313.82" cy="-1374" rx="6.48" ry="6.48"/>
</g>
<!-- formalize_brief -->
<g id="node10" class="node">
<title>formalize_brief</title>
<path fill="#f7f8fa" stroke="#4f5b67" d="M605.64,-1380C605.64,-1380 526.36,-1380 526.36,-1380 520.36,-1380 514.36,-1374 514.36,-1368 514.36,-1368 514.36,-1356 514.36,-1356 514.36,-1350 520.36,-1344 526.36,-1344 526.36,-1344 605.64,-1344 605.64,-1344 611.64,-1344 617.64,-1350 617.64,-1356 617.64,-1356 617.64,-1368 617.64,-1368 617.64,-1374 611.64,-1380 605.64,-1380"/>
<text text-anchor="middle" x="566" y="-1358.15" font-family="Arial" font-size="11.00" fill="#1f2933">Formalizar brief</text>
</g>
<!-- start&#45;&gt;formalize_brief -->
<g id="edge1" class="edge">
<title>start&#45;&gt;formalize_brief</title>
<path fill="none" stroke="#4f5b67" d="M320.51,-1373.73C344.77,-1372.56 441.17,-1367.94 505.43,-1364.86"/>
<polygon fill="#4f5b67" stroke="#4f5b67" points="505.5,-1367.31 512.37,-1364.52 505.26,-1362.41 505.5,-1367.31"/>
</g>
<!-- end_reject -->
<g id="node2" class="node">
<title>end_reject</title>
<ellipse fill="#222222" stroke="#222222" cx="817.27" cy="-1128" rx="6.48" ry="6.48"/>
<ellipse fill="none" stroke="#222222" cx="817.27" cy="-1128" rx="10.48" ry="10.48"/>
</g>
<!-- end_close -->
<g id="node3" class="node">
<title>end_close</title>
<ellipse fill="#222222" stroke="#222222" cx="817.27" cy="-976" rx="6.48" ry="6.48"/>
<ellipse fill="none" stroke="#222222" cx="817.27" cy="-976" rx="10.48" ry="10.48"/>
</g>
<!-- brief_ok -->
<g id="node4" class="node">
<title>brief_ok</title>
<path fill="#f7f8fa" stroke="#4f5b67" d="M805.51,-1219.44C805.51,-1219.44 730.13,-1204.36 730.13,-1204.36 724.24,-1203.18 724.24,-1200.82 730.13,-1199.64 730.13,-1199.64 805.51,-1184.56 805.51,-1184.56 811.39,-1183.38 823.16,-1183.38 829.04,-1184.56 829.04,-1184.56 904.42,-1199.64 904.42,-1199.64 910.3,-1200.82 910.3,-1203.18 904.42,-1204.36 904.42,-1204.36 829.04,-1219.44 829.04,-1219.44 823.16,-1220.62 811.39,-1220.62 805.51,-1219.44"/>
<text text-anchor="middle" x="817.27" y="-1198.15" font-family="Arial" font-size="11.00" fill="#1f2933">¿Brief completo?</text>
</g>
<!-- request_updates -->
<g id="node14" class="node">
<title>request_updates</title>
<path fill="#f7f8fa" stroke="#4f5b67" d="M1151.01,-1222C1151.01,-1222 1070.73,-1222 1070.73,-1222 1064.73,-1222 1058.73,-1216 1058.73,-1210 1058.73,-1210 1058.73,-1198 1058.73,-1198 1058.73,-1192 1064.73,-1186 1070.73,-1186 1070.73,-1186 1151.01,-1186 1151.01,-1186 1157.01,-1186 1163.01,-1192 1163.01,-1198 1163.01,-1198 1163.01,-1210 1163.01,-1210 1163.01,-1216 1157.01,-1222 1151.01,-1222"/>
<text text-anchor="middle" x="1110.87" y="-1200.15" font-family="Arial" font-size="11.00" fill="#1f2933">Solicitar ajustes</text>
</g>
<!-- brief_ok&#45;&gt;request_updates -->
<g id="edge5" class="edge">
<title>brief_ok&#45;&gt;request_updates</title>
<path fill="none" stroke="#4f5b67" d="M915.37,-1202.67C960.07,-1202.97 1011.67,-1203.33 1050.49,-1203.59"/>
<polygon fill="#4f5b67" stroke="#4f5b67" points="1050.04,-1206.04 1057.06,-1203.64 1050.07,-1201.14 1050.04,-1206.04"/>
<text text-anchor="middle" x="976.43" y="-1193.63" font-family="Arial" font-size="10.00">No</text>
</g>
<!-- estimate_effort -->
<g id="node15" class="node">
<title>estimate_effort</title>
<path fill="#f7f8fa" stroke="#4f5b67" d="M1145.01,-1146C1145.01,-1146 1076.73,-1146 1076.73,-1146 1070.73,-1146 1064.73,-1140 1064.73,-1134 1064.73,-1134 1064.73,-1122 1064.73,-1122 1064.73,-1116 1070.73,-1110 1076.73,-1110 1076.73,-1110 1145.01,-1110 1145.01,-1110 1151.01,-1110 1157.01,-1116 1157.01,-1122 1157.01,-1122 1157.01,-1134 1157.01,-1134 1157.01,-1140 1151.01,-1146 1145.01,-1146"/>
<text text-anchor="middle" x="1110.87" y="-1124.15" font-family="Arial" font-size="11.00" fill="#1f2933">Estimar effort</text>
</g>
<!-- brief_ok&#45;&gt;estimate_effort -->
<g id="edge8" class="edge">
<title>brief_ok&#45;&gt;estimate_effort</title>
<path fill="none" stroke="#4f5b67" d="M862.56,-1190.76C914.65,-1177.54 1001.05,-1155.62 1056.7,-1141.49"/>
<polygon fill="#4f5b67" stroke="#4f5b67" points="1057.04,-1143.94 1063.22,-1139.84 1055.83,-1139.19 1057.04,-1143.94"/>
<text text-anchor="middle" x="955.13" y="-1156.63" font-family="Arial" font-size="10.00">Si</text>
</g>
<!-- approved -->
<g id="node5" class="node">
<title>approved</title>
<path fill="#f7f8fa" stroke="#4f5b67" d="M301.98,-680.87C301.98,-680.87 204.12,-664.93 204.12,-664.93 198.2,-663.96 198.2,-662.04 204.12,-661.07 204.12,-661.07 301.98,-645.13 301.98,-645.13 307.9,-644.16 319.74,-644.16 325.66,-645.13 325.66,-645.13 423.51,-661.07 423.51,-661.07 429.44,-662.04 429.44,-663.96 423.51,-664.93 423.51,-664.93 325.66,-680.87 325.66,-680.87 319.74,-681.84 307.9,-681.84 301.98,-680.87"/>
<text text-anchor="middle" x="313.82" y="-659.15" font-family="Arial" font-size="11.00" fill="#1f2933">¿Iniciativa aprobada?</text>
</g>
<!-- reject_epic -->
<g id="node17" class="node">
<title>reject_epic</title>
<path fill="#f7f8fa" stroke="#4f5b67" d="M615.64,-1146C615.64,-1146 516.36,-1146 516.36,-1146 510.36,-1146 504.36,-1140 504.36,-1134 504.36,-1134 504.36,-1122 504.36,-1122 504.36,-1116 510.36,-1110 516.36,-1110 516.36,-1110 615.64,-1110 615.64,-1110 621.64,-1110 627.64,-1116 627.64,-1122 627.64,-1122 627.64,-1134 627.64,-1134 627.64,-1140 621.64,-1146 615.64,-1146"/>
<text text-anchor="middle" x="566" y="-1124.15" font-family="Arial" font-size="11.00" fill="#1f2933">Comunicar rechazo</text>
</g>
<!-- approved&#45;&gt;reject_epic -->
<g id="edge12" class="edge">
<title>approved&#45;&gt;reject_epic</title>
<path fill="none" stroke="#4f5b67" d="M322.56,-681.62C356.73,-763.81 492.36,-1090 492.36,-1090 492.36,-1090 506.66,-1097.48 522.58,-1105.81"/>
<polygon fill="#4f5b67" stroke="#4f5b67" points="521.28,-1107.89 528.61,-1108.97 523.55,-1103.55 521.28,-1107.89"/>
<text text-anchor="middle" x="407.51" y="-892.06" font-family="Arial" font-size="10.00">No</text>
</g>
<!-- prioritize_epic -->
<g id="node29" class="node">
<title>prioritize_epic</title>
<path fill="#f7f8fa" stroke="#4f5b67" d="M601.64,-680C601.64,-680 530.36,-680 530.36,-680 524.36,-680 518.36,-674 518.36,-668 518.36,-668 518.36,-656 518.36,-656 518.36,-650 524.36,-644 530.36,-644 530.36,-644 601.64,-644 601.64,-644 607.64,-644 613.64,-650 613.64,-656 613.64,-656 613.64,-668 613.64,-668 613.64,-674 607.64,-680 601.64,-680"/>
<text text-anchor="middle" x="566" y="-658.15" font-family="Arial" font-size="11.00" fill="#1f2933">Priorizar epica</text>
</g>
<!-- approved&#45;&gt;prioritize_epic -->
<g id="edge14" class="edge">
<title>approved&#45;&gt;prioritize_epic</title>
<path fill="none" stroke="#4f5b67" d="M435.15,-662.52C461.23,-662.41 487.59,-662.31 509.68,-662.22"/>
<polygon fill="#4f5b67" stroke="#4f5b67" points="509.43,-664.67 516.42,-662.19 509.41,-659.77 509.43,-664.67"/>
<text text-anchor="middle" x="467.91" y="-652.87" font-family="Arial" font-size="10.00">Si</text>
</g>
<!-- capacity_ok -->
<g id="node6" class="node">
<title>capacity_ok</title>
<path fill="#f7f8fa" stroke="#4f5b67" d="M1099.07,-93.64C1099.07,-93.64 1014.71,-78.16 1014.71,-78.16 1008.81,-77.08 1008.81,-74.92 1014.71,-73.84 1014.71,-73.84 1099.07,-58.36 1099.07,-58.36 1104.97,-57.28 1116.77,-57.28 1122.67,-58.36 1122.67,-58.36 1207.03,-73.84 1207.03,-73.84 1212.93,-74.92 1212.93,-77.08 1207.03,-78.16 1207.03,-78.16 1122.67,-93.64 1122.67,-93.64 1116.77,-94.72 1104.97,-94.72 1099.07,-93.64"/>
<text text-anchor="middle" x="1110.87" y="-72.15" font-family="Arial" font-size="11.00" fill="#1f2933">¿Rango operativo?</text>
</g>
<!-- define_features -->
<g id="node19" class="node">
<title>define_features</title>
<path fill="#f7f8fa" stroke="#4f5b67" d="M605.14,-842C605.14,-842 526.86,-842 526.86,-842 520.86,-842 514.86,-836 514.86,-830 514.86,-830 514.86,-818 514.86,-818 514.86,-812 520.86,-806 526.86,-806 526.86,-806 605.14,-806 605.14,-806 611.14,-806 617.14,-812 617.14,-818 617.14,-818 617.14,-830 617.14,-830 617.14,-836 611.14,-842 605.14,-842"/>
<text text-anchor="middle" x="566" y="-820.15" font-family="Arial" font-size="11.00" fill="#1f2933">Definir features</text>
</g>
<!-- capacity_ok&#45;&gt;define_features -->
<g id="edge21" class="edge">
<title>capacity_ok&#45;&gt;define_features</title>
<path fill="none" stroke="#4f5b67" d="M1077.93,-90.12C1028.2,-112.1 937.91,-152 937.91,-152 937.91,-152 696.64,-244 696.64,-244 696.64,-244 631.64,-786 631.64,-786 631.64,-786 619.36,-793.22 605.51,-801.36"/>
<polygon fill="#4f5b67" stroke="#4f5b67" points="604.28,-799.24 599.49,-804.9 606.76,-803.47 604.28,-799.24"/>
<text text-anchor="middle" x="682.32" y="-316.36" font-family="Arial" font-size="10.00">Si</text>
</g>
<!-- freeze_intake -->
<g id="node31" class="node">
<title>freeze_intake</title>
<path fill="#f7f8fa" stroke="#4f5b67" d="M1394.61,-75C1394.61,-75 1315.33,-75 1315.33,-75 1309.33,-75 1303.33,-69 1303.33,-63 1303.33,-63 1303.33,-51 1303.33,-51 1303.33,-45 1309.33,-39 1315.33,-39 1315.33,-39 1394.61,-39 1394.61,-39 1400.61,-39 1406.61,-45 1406.61,-51 1406.61,-51 1406.61,-63 1406.61,-63 1406.61,-69 1400.61,-75 1394.61,-75"/>
<text text-anchor="middle" x="1354.97" y="-53.15" font-family="Arial" font-size="11.00" fill="#1f2933">Congelar intake</text>
</g>
<!-- capacity_ok&#45;&gt;freeze_intake -->
<g id="edge17" class="edge">
<title>capacity_ok&#45;&gt;freeze_intake</title>
<path fill="none" stroke="#4f5b67" d="M1188.47,-69.99C1222.81,-67.29 1262.68,-64.16 1294.69,-61.65"/>
<polygon fill="#4f5b67" stroke="#4f5b67" points="1294.78,-64.1 1301.56,-61.11 1294.39,-59.22 1294.78,-64.1"/>
<text text-anchor="middle" x="1235.08" y="-56.32" font-family="Arial" font-size="10.00">No</text>
</g>
<!-- deps_ok -->
<g id="node7" class="node">
<title>deps_ok</title>
<path fill="#f7f8fa" stroke="#4f5b67" d="M1624.3,-826.18C1624.3,-826.18 1503,-809.62 1503,-809.62 1497.06,-808.81 1497.06,-807.19 1503,-806.38 1503,-806.38 1624.3,-789.82 1624.3,-789.82 1630.24,-789.01 1642.13,-789.01 1648.07,-789.82 1648.07,-789.82 1769.37,-806.38 1769.37,-806.38 1775.31,-807.19 1775.31,-808.81 1769.37,-809.62 1769.37,-809.62 1648.07,-826.18 1648.07,-826.18 1642.13,-826.99 1630.24,-826.99 1624.3,-826.18"/>
<text text-anchor="middle" x="1636.18" y="-804.15" font-family="Arial" font-size="11.00" fill="#1f2933">¿Dependencias resueltas?</text>
</g>
<!-- block_epic -->
<g id="node23" class="node">
<title>block_epic</title>
<path fill="#f7f8fa" stroke="#4f5b67" d="M2007.6,-806C2007.6,-806 1915.32,-806 1915.32,-806 1909.32,-806 1903.32,-800 1903.32,-794 1903.32,-794 1903.32,-782 1903.32,-782 1903.32,-776 1909.32,-770 1915.32,-770 1915.32,-770 2007.6,-770 2007.6,-770 2013.6,-770 2019.6,-776 2019.6,-782 2019.6,-782 2019.6,-794 2019.6,-794 2019.6,-800 2013.6,-806 2007.6,-806"/>
<text text-anchor="middle" x="1961.46" y="-784.15" font-family="Arial" font-size="11.00" fill="#1f2933">Marcar bloqueada</text>
</g>
<!-- deps_ok&#45;&gt;block_epic -->
<g id="edge26" class="edge">
<title>deps_ok&#45;&gt;block_epic</title>
<path fill="none" stroke="#4f5b67" d="M1738.58,-801.73C1789.55,-798.57 1849.85,-794.84 1894.71,-792.07"/>
<polygon fill="#4f5b67" stroke="#4f5b67" points="1894.84,-794.51 1901.67,-791.64 1894.54,-789.62 1894.84,-794.51"/>
<text text-anchor="middle" x="1810.15" y="-787.4" font-family="Arial" font-size="10.00">No</text>
</g>
<!-- refine_stories -->
<g id="node35" class="node">
<title>refine_stories</title>
<path fill="#f7f8fa" stroke="#4f5b67" d="M1152.01,-682C1152.01,-682 1069.73,-682 1069.73,-682 1063.73,-682 1057.73,-676 1057.73,-670 1057.73,-670 1057.73,-658 1057.73,-658 1057.73,-652 1063.73,-646 1069.73,-646 1069.73,-646 1152.01,-646 1152.01,-646 1158.01,-646 1164.01,-652 1164.01,-658 1164.01,-658 1164.01,-670 1164.01,-670 1164.01,-676 1158.01,-682 1152.01,-682"/>
<text text-anchor="middle" x="1110.87" y="-660.15" font-family="Arial" font-size="11.00" fill="#1f2933">Refinar historias</text>
</g>
<!-- deps_ok&#45;&gt;refine_stories -->
<g id="edge31" class="edge">
<title>deps_ok&#45;&gt;refine_stories</title>
<path fill="none" stroke="#4f5b67" d="M1586.47,-794.6C1490.51,-768.19 1277.24,-709.5 1172.41,-680.66"/>
<polygon fill="#4f5b67" stroke="#4f5b67" points="1173.3,-678.36 1165.9,-678.87 1172,-683.09 1173.3,-678.36"/>
<text text-anchor="middle" x="1374.94" y="-728.13" font-family="Arial" font-size="10.00">Si</text>
</g>
<!-- features_ok -->
<g id="node8" class="node">
<title>features_ok</title>
<path fill="#f7f8fa" stroke="#4f5b67" d="M1949.63,-483.77C1949.63,-483.77 1858.08,-468.03 1858.08,-468.03 1852.17,-467.02 1852.17,-464.98 1858.08,-463.97 1858.08,-463.97 1949.63,-448.23 1949.63,-448.23 1955.55,-447.22 1967.37,-447.22 1973.29,-448.23 1973.29,-448.23 2064.84,-463.97 2064.84,-463.97 2070.75,-464.98 2070.75,-467.02 2064.84,-468.03 2064.84,-468.03 1973.29,-483.77 1973.29,-483.77 1967.37,-484.78 1955.55,-484.78 1949.63,-483.77"/>
<text text-anchor="middle" x="1961.46" y="-462.15" font-family="Arial" font-size="11.00" fill="#1f2933">¿Features cerradas?</text>
</g>
<!-- validate_scope -->
<g id="node25" class="node">
<title>validate_scope</title>
<path fill="#f7f8fa" stroke="#4f5b67" d="M604.14,-918C604.14,-918 527.86,-918 527.86,-918 521.86,-918 515.86,-912 515.86,-906 515.86,-906 515.86,-894 515.86,-894 515.86,-888 521.86,-882 527.86,-882 527.86,-882 604.14,-882 604.14,-882 610.14,-882 616.14,-888 616.14,-894 616.14,-894 616.14,-906 616.14,-906 616.14,-912 610.14,-918 604.14,-918"/>
<text text-anchor="middle" x="566" y="-896.15" font-family="Arial" font-size="11.00" fill="#1f2933">Validar alcance</text>
</g>
<!-- features_ok&#45;&gt;validate_scope -->
<g id="edge38" class="edge">
<title>features_ok&#45;&gt;validate_scope</title>
<path fill="none" stroke="#4f5b67" d="M1919.39,-453.02C1783.33,-410.03 1355.97,-275 1355.97,-275 1109.87,-275 1109.87,-275 1109.87,-275 1109.87,-275 696.64,-416 696.64,-416 696.64,-416 631.64,-862 631.64,-862 631.64,-862 619.36,-869.22 605.51,-877.36"/>
<polygon fill="#4f5b67" stroke="#4f5b67" points="604.28,-875.24 599.49,-880.9 606.76,-879.47 604.28,-875.24"/>
<text text-anchor="middle" x="1067.2" y="-278.53" font-family="Arial" font-size="10.00">Si</text>
</g>
<!-- fix_stories -->
<g id="node38" class="node">
<title>fix_stories</title>
<path fill="#f7f8fa" stroke="#4f5b67" d="M2241.94,-454C2241.94,-454 2153.66,-454 2153.66,-454 2147.66,-454 2141.66,-448 2141.66,-442 2141.66,-442 2141.66,-430 2141.66,-430 2141.66,-424 2147.66,-418 2153.66,-418 2153.66,-418 2241.94,-418 2241.94,-418 2247.94,-418 2253.94,-424 2253.94,-430 2253.94,-430 2253.94,-442 2253.94,-442 2253.94,-448 2247.94,-454 2241.94,-454"/>
<text text-anchor="middle" x="2197.8" y="-432.15" font-family="Arial" font-size="11.00" fill="#1f2933">Corregir historias</text>
</g>
<!-- features_ok&#45;&gt;fix_stories -->
<g id="edge35" class="edge">
<title>features_ok&#45;&gt;fix_stories</title>
<path fill="none" stroke="#4f5b67" d="M2029.3,-457.44C2061.84,-453.28 2100.77,-448.29 2132.91,-444.18"/>
<polygon fill="#4f5b67" stroke="#4f5b67" points="2133.21,-446.61 2139.85,-443.29 2132.59,-441.75 2133.21,-446.61"/>
<text text-anchor="middle" x="2087.6" y="-441.31" font-family="Arial" font-size="10.00">No</text>
</g>
<!-- validation_ok -->
<g id="node9" class="node">
<title>validation_ok</title>
<path fill="#f7f8fa" stroke="#4f5b67" d="M805.43,-918.86C805.43,-918.86 708.48,-902.94 708.48,-902.94 702.56,-901.97 702.56,-900.03 708.48,-899.06 708.48,-899.06 805.43,-883.14 805.43,-883.14 811.35,-882.17 823.19,-882.17 829.11,-883.14 829.11,-883.14 926.07,-899.06 926.07,-899.06 931.99,-900.03 931.99,-901.97 926.07,-902.94 926.07,-902.94 829.11,-918.86 829.11,-918.86 823.19,-919.83 811.35,-919.83 805.43,-918.86"/>
<text text-anchor="middle" x="817.27" y="-897.15" font-family="Arial" font-size="11.00" fill="#1f2933">¿Validacion correcta?</text>
</g>
<!-- fix_scope -->
<g id="node40" class="node">
<title>fix_scope</title>
<path fill="#f7f8fa" stroke="#4f5b67" d="M1152.51,-454C1152.51,-454 1069.23,-454 1069.23,-454 1063.23,-454 1057.23,-448 1057.23,-442 1057.23,-442 1057.23,-430 1057.23,-430 1057.23,-424 1063.23,-418 1069.23,-418 1069.23,-418 1152.51,-418 1152.51,-418 1158.51,-418 1164.51,-424 1164.51,-430 1164.51,-430 1164.51,-442 1164.51,-442 1164.51,-448 1158.51,-454 1152.51,-454"/>
<text text-anchor="middle" x="1110.87" y="-432.15" font-family="Arial" font-size="11.00" fill="#1f2933">Corregir alcance</text>
</g>
<!-- validation_ok&#45;&gt;fix_scope -->
<g id="edge40" class="edge">
<title>validation_ok&#45;&gt;fix_scope</title>
<path fill="none" stroke="#4f5b67" d="M858.44,-887.57C893.2,-875.95 937.91,-861 937.91,-861 937.91,-861 1002.91,-474 1002.91,-474 1002.91,-474 1025.54,-465.96 1049.98,-457.28"/>
<polygon fill="#4f5b67" stroke="#4f5b67" points="1050.75,-459.6 1056.53,-454.95 1049.11,-454.98 1050.75,-459.6"/>
<text text-anchor="middle" x="961.11" y="-674.68" font-family="Arial" font-size="10.00">No</text>
</g>
<!-- deploy_prod -->
<g id="node41" class="node">
<title>deploy_prod</title>
<path fill="#f7f8fa" stroke="#4f5b67" d="M1167.51,-530C1167.51,-530 1054.23,-530 1054.23,-530 1048.23,-530 1042.23,-524 1042.23,-518 1042.23,-518 1042.23,-506 1042.23,-506 1042.23,-500 1048.23,-494 1054.23,-494 1054.23,-494 1167.51,-494 1167.51,-494 1173.51,-494 1179.51,-500 1179.51,-506 1179.51,-506 1179.51,-518 1179.51,-518 1179.51,-524 1173.51,-530 1167.51,-530"/>
<text text-anchor="middle" x="1110.87" y="-508.15" font-family="Arial" font-size="11.00" fill="#1f2933">Desplegar produccion</text>
</g>
<!-- validation_ok&#45;&gt;deploy_prod -->
<g id="edge43" class="edge">
<title>validation_ok&#45;&gt;deploy_prod</title>
<path fill="none" stroke="#4f5b67" d="M858.44,-887.57C893.2,-875.95 937.91,-861 937.91,-861 937.91,-861 1002.91,-550 1002.91,-550 1002.91,-550 1025.54,-541.96 1049.98,-533.28"/>
<polygon fill="#4f5b67" stroke="#4f5b67" points="1050.75,-535.6 1056.53,-530.95 1049.11,-530.98 1050.75,-535.6"/>
<text text-anchor="middle" x="962.45" y="-712.56" font-family="Arial" font-size="10.00">Si</text>
</g>
<!-- send_initiative -->
<g id="node11" class="node">
<title>send_initiative</title>
<path fill="#f7f8fa" stroke="#4f5b67" d="M857.91,-1380C857.91,-1380 776.63,-1380 776.63,-1380 770.63,-1380 764.63,-1374 764.63,-1368 764.63,-1368 764.63,-1356 764.63,-1356 764.63,-1350 770.63,-1344 776.63,-1344 776.63,-1344 857.91,-1344 857.91,-1344 863.91,-1344 869.91,-1350 869.91,-1356 869.91,-1356 869.91,-1368 869.91,-1368 869.91,-1374 863.91,-1380 857.91,-1380"/>
<text text-anchor="middle" x="817.27" y="-1358.15" font-family="Arial" font-size="11.00" fill="#1f2933">Enviar iniciativa</text>
</g>
<!-- formalize_brief&#45;&gt;send_initiative -->
<g id="edge2" class="edge">
<title>formalize_brief&#45;&gt;send_initiative</title>
<path fill="none" stroke="#4f5b67" d="M618.04,-1362C658.11,-1362 713.97,-1362 756.19,-1362"/>
<polygon fill="#4f5b67" stroke="#4f5b67" points="755.93,-1364.45 762.93,-1362 755.93,-1359.55 755.93,-1364.45"/>
</g>
<!-- review_brief -->
<g id="node13" class="node">
<title>review_brief</title>
<path fill="#f7f8fa" stroke="#4f5b67" d="M597.14,-1222C597.14,-1222 534.86,-1222 534.86,-1222 528.86,-1222 522.86,-1216 522.86,-1210 522.86,-1210 522.86,-1198 522.86,-1198 522.86,-1192 528.86,-1186 534.86,-1186 534.86,-1186 597.14,-1186 597.14,-1186 603.14,-1186 609.14,-1192 609.14,-1198 609.14,-1198 609.14,-1210 609.14,-1210 609.14,-1216 603.14,-1222 597.14,-1222"/>
<text text-anchor="middle" x="566" y="-1200.15" font-family="Arial" font-size="11.00" fill="#1f2933">Revisar brief</text>
</g>
<!-- send_initiative&#45;&gt;review_brief -->
<g id="edge3" class="edge">
<title>send_initiative&#45;&gt;review_brief</title>
<path fill="none" stroke="#4f5b67" d="M787.38,-1343.68C741.71,-1314.74 652.95,-1258.48 603.14,-1226.91"/>
<polygon fill="#4f5b67" stroke="#4f5b67" points="604.58,-1224.92 597.36,-1223.24 601.96,-1229.06 604.58,-1224.92"/>
</g>
<!-- update_brief -->
<g id="node12" class="node">
<title>update_brief</title>
<path fill="#f7f8fa" stroke="#4f5b67" d="M351.96,-1328C351.96,-1328 275.68,-1328 275.68,-1328 269.68,-1328 263.68,-1322 263.68,-1316 263.68,-1316 263.68,-1304 263.68,-1304 263.68,-1298 269.68,-1292 275.68,-1292 275.68,-1292 351.96,-1292 351.96,-1292 357.96,-1292 363.96,-1298 363.96,-1304 363.96,-1304 363.96,-1316 363.96,-1316 363.96,-1322 357.96,-1328 351.96,-1328"/>
<text text-anchor="middle" x="313.82" y="-1306.15" font-family="Arial" font-size="11.00" fill="#1f2933">Actualizar brief</text>
</g>
<!-- update_brief&#45;&gt;review_brief -->
<g id="edge7" class="edge">
<title>update_brief&#45;&gt;review_brief</title>
<path fill="none" stroke="#4f5b67" d="M358.4,-1291.54C402.07,-1273.03 469.22,-1244.58 515.03,-1225.17"/>
<polygon fill="#4f5b67" stroke="#4f5b67" points="515.87,-1227.48 521.36,-1222.49 513.96,-1222.96 515.87,-1227.48"/>
</g>
<!-- review_brief&#45;&gt;brief_ok -->
<g id="edge4" class="edge">
<title>review_brief&#45;&gt;brief_ok</title>
<path fill="none" stroke="#4f5b67" d="M609.57,-1203.66C637.69,-1203.43 675.83,-1203.13 711.71,-1202.84"/>
<polygon fill="#4f5b67" stroke="#4f5b67" points="711.31,-1205.29 718.29,-1202.79 711.27,-1200.39 711.31,-1205.29"/>
</g>
<!-- request_updates&#45;&gt;update_brief -->
<g id="edge6" class="edge">
<title>request_updates&#45;&gt;update_brief</title>
<path fill="none" stroke="#4f5b67" d="M1058.28,-1215.4C1007.62,-1226.59 937.91,-1242 937.91,-1242 937.91,-1242 526.46,-1286.9 372.26,-1303.73"/>
<polygon fill="#4f5b67" stroke="#4f5b67" points="372.43,-1301.25 365.74,-1304.44 372.96,-1306.12 372.43,-1301.25"/>
</g>
<!-- create_epic -->
<g id="node16" class="node">
<title>create_epic</title>
<path fill="#f7f8fa" stroke="#4f5b67" d="M1383.11,-1184C1383.11,-1184 1326.83,-1184 1326.83,-1184 1320.83,-1184 1314.83,-1178 1314.83,-1172 1314.83,-1172 1314.83,-1160 1314.83,-1160 1314.83,-1154 1320.83,-1148 1326.83,-1148 1326.83,-1148 1383.11,-1148 1383.11,-1148 1389.11,-1148 1395.11,-1154 1395.11,-1160 1395.11,-1160 1395.11,-1172 1395.11,-1172 1395.11,-1178 1389.11,-1184 1383.11,-1184"/>
<text text-anchor="middle" x="1354.97" y="-1162.15" font-family="Arial" font-size="11.00" fill="#1f2933">Crear epica</text>
</g>
<!-- estimate_effort&#45;&gt;create_epic -->
<g id="edge9" class="edge">
<title>estimate_effort&#45;&gt;create_epic</title>
<path fill="none" stroke="#4f5b67" d="M1157.41,-1135.15C1199.91,-1141.82 1263.1,-1151.74 1306.28,-1158.52"/>
<polygon fill="#4f5b67" stroke="#4f5b67" points="1305.85,-1160.93 1313.15,-1159.59 1306.61,-1156.09 1305.85,-1160.93"/>
</g>
<!-- evaluate_initiative -->
<g id="node28" class="node">
<title>evaluate_initiative</title>
<path fill="#f7f8fa" stroke="#4f5b67" d="M115.28,-681C115.28,-681 28,-681 28,-681 22,-681 16,-675 16,-669 16,-669 16,-657 16,-657 16,-651 22,-645 28,-645 28,-645 115.28,-645 115.28,-645 121.28,-645 127.28,-651 127.28,-657 127.28,-657 127.28,-669 127.28,-669 127.28,-675 121.28,-681 115.28,-681"/>
<text text-anchor="middle" x="71.64" y="-659.15" font-family="Arial" font-size="11.00" fill="#1f2933">Evaluar iniciativa</text>
</g>
<!-- create_epic&#45;&gt;evaluate_initiative -->
<g id="edge10" class="edge">
<title>create_epic&#45;&gt;evaluate_initiative</title>
<path fill="none" stroke="#4f5b67" d="M1323.38,-1184.38C1227.29,-1242.12 937.91,-1416 937.91,-1416 937.91,-1416 818.27,-1441 818.27,-1441 565,-1441 565,-1441 565,-1441 565,-1441 192.28,-1416 192.28,-1416 192.28,-1416 97.99,-822.58 76.83,-689.34"/>
<polygon fill="#4f5b67" stroke="#4f5b67" points="79.29,-689.26 75.78,-682.74 74.45,-690.03 79.29,-689.26"/>
</g>
<!-- reject_epic&#45;&gt;end_reject -->
<g id="edge13" class="edge">
<title>reject_epic&#45;&gt;end_reject</title>
<path fill="none" stroke="#4f5b67" d="M627.98,-1128C683.81,-1128 762.95,-1128 798.16,-1128"/>
<polygon fill="#4f5b67" stroke="#4f5b67" points="797.99,-1130.45 804.99,-1128 797.99,-1125.55 797.99,-1130.45"/>
</g>
<!-- close_active -->
<g id="node18" class="node">
<title>close_active</title>
<path fill="#f7f8fa" stroke="#4f5b67" d="M619.64,-766C619.64,-766 512.36,-766 512.36,-766 506.36,-766 500.36,-760 500.36,-754 500.36,-754 500.36,-742 500.36,-742 500.36,-736 506.36,-730 512.36,-730 512.36,-730 619.64,-730 619.64,-730 625.64,-730 631.64,-736 631.64,-742 631.64,-742 631.64,-754 631.64,-754 631.64,-760 625.64,-766 619.64,-766"/>
<text text-anchor="middle" x="566" y="-744.15" font-family="Arial" font-size="11.00" fill="#1f2933">Cerrar trabajo activo</text>
</g>
<!-- review_capacity_again -->
<g id="node32" class="node">
<title>review_capacity_again</title>
<path fill="#f7f8fa" stroke="#4f5b67" d="M863.91,-132C863.91,-132 770.63,-132 770.63,-132 764.63,-132 758.63,-126 758.63,-120 758.63,-120 758.63,-108 758.63,-108 758.63,-102 764.63,-96 770.63,-96 770.63,-96 863.91,-96 863.91,-96 869.91,-96 875.91,-102 875.91,-108 875.91,-108 875.91,-120 875.91,-120 875.91,-126 869.91,-132 863.91,-132"/>
<text text-anchor="middle" x="817.27" y="-110.15" font-family="Arial" font-size="11.00" fill="#1f2933">Revisar capacidad</text>
</g>
<!-- close_active&#45;&gt;review_capacity_again -->
<g id="edge19" class="edge">
<title>close_active&#45;&gt;review_capacity_again</title>
<path fill="none" stroke="#4f5b67" d="M616.65,-729.57C625.33,-726.34 631.64,-724 631.64,-724 631.64,-724 696.64,-162 696.64,-162 696.64,-162 730.91,-148.25 762.77,-135.47"/>
<polygon fill="#4f5b67" stroke="#4f5b67" points="763.37,-137.86 768.96,-132.98 761.55,-133.32 763.37,-137.86"/>
</g>
<!-- estimate_features -->
<g id="node20" class="node">
<title>estimate_features</title>
<path fill="#f7f8fa" stroke="#4f5b67" d="M859.41,-841C859.41,-841 775.13,-841 775.13,-841 769.13,-841 763.13,-835 763.13,-829 763.13,-829 763.13,-817 763.13,-817 763.13,-811 769.13,-805 775.13,-805 775.13,-805 859.41,-805 859.41,-805 865.41,-805 871.41,-811 871.41,-817 871.41,-817 871.41,-829 871.41,-829 871.41,-835 865.41,-841 859.41,-841"/>
<text text-anchor="middle" x="817.27" y="-819.15" font-family="Arial" font-size="11.00" fill="#1f2933">Estimar features</text>
</g>
<!-- define_features&#45;&gt;estimate_features -->
<g id="edge22" class="edge">
<title>define_features&#45;&gt;estimate_features</title>
<path fill="none" stroke="#4f5b67" d="M617.44,-823.8C657.05,-823.64 712.39,-823.42 754.62,-823.25"/>
<polygon fill="#4f5b67" stroke="#4f5b67" points="754.38,-825.7 761.37,-823.22 754.36,-820.8 754.38,-825.7"/>
</g>
<!-- assign_features -->
<g id="node21" class="node">
<title>assign_features</title>
<path fill="#f7f8fa" stroke="#4f5b67" d="M1152.51,-881C1152.51,-881 1069.23,-881 1069.23,-881 1063.23,-881 1057.23,-875 1057.23,-869 1057.23,-869 1057.23,-857 1057.23,-857 1057.23,-851 1063.23,-845 1069.23,-845 1069.23,-845 1152.51,-845 1152.51,-845 1158.51,-845 1164.51,-851 1164.51,-857 1164.51,-857 1164.51,-869 1164.51,-869 1164.51,-875 1158.51,-881 1152.51,-881"/>
<text text-anchor="middle" x="1110.87" y="-859.15" font-family="Arial" font-size="11.00" fill="#1f2933">Asignar features</text>
</g>
<!-- estimate_features&#45;&gt;assign_features -->
<g id="edge23" class="edge">
<title>estimate_features&#45;&gt;assign_features</title>
<path fill="none" stroke="#4f5b67" d="M871.76,-830.34C921.85,-837.21 996.65,-847.47 1049.01,-854.65"/>
<polygon fill="#4f5b67" stroke="#4f5b67" points="1048.45,-857.05 1055.72,-855.57 1049.12,-852.19 1048.45,-857.05"/>
</g>
<!-- verify_deps -->
<g id="node22" class="node">
<title>verify_deps</title>
<path fill="#f7f8fa" stroke="#4f5b67" d="M1414.11,-922C1414.11,-922 1295.83,-922 1295.83,-922 1289.83,-922 1283.83,-916 1283.83,-910 1283.83,-910 1283.83,-898 1283.83,-898 1283.83,-892 1289.83,-886 1295.83,-886 1295.83,-886 1414.11,-886 1414.11,-886 1420.11,-886 1426.11,-892 1426.11,-898 1426.11,-898 1426.11,-910 1426.11,-910 1426.11,-916 1420.11,-922 1414.11,-922"/>
<text text-anchor="middle" x="1354.97" y="-900.15" font-family="Arial" font-size="11.00" fill="#1f2933">Verificar dependencias</text>
</g>
<!-- assign_features&#45;&gt;verify_deps -->
<g id="edge24" class="edge">
<title>assign_features&#45;&gt;verify_deps</title>
<path fill="none" stroke="#4f5b67" d="M1165,-872C1197.35,-877.48 1239.27,-884.58 1275.41,-890.7"/>
<polygon fill="#4f5b67" stroke="#4f5b67" points="1274.7,-893.06 1282.01,-891.81 1275.52,-888.23 1274.7,-893.06"/>
</g>
<!-- verify_deps&#45;&gt;deps_ok -->
<g id="edge25" class="edge">
<title>verify_deps&#45;&gt;deps_ok</title>
<path fill="none" stroke="#4f5b67" d="M1409.48,-885.6C1460.18,-868.17 1535.73,-842.19 1585.23,-825.18"/>
<polygon fill="#4f5b67" stroke="#4f5b67" points="1585.99,-827.51 1591.81,-822.91 1584.4,-822.87 1585.99,-827.51"/>
</g>
<!-- agree_contract -->
<g id="node33" class="node">
<title>agree_contract</title>
<path fill="#f7f8fa" stroke="#4f5b67" d="M1153.51,-606C1153.51,-606 1068.23,-606 1068.23,-606 1062.23,-606 1056.23,-600 1056.23,-594 1056.23,-594 1056.23,-582 1056.23,-582 1056.23,-576 1062.23,-570 1068.23,-570 1068.23,-570 1153.51,-570 1153.51,-570 1159.51,-570 1165.51,-576 1165.51,-582 1165.51,-582 1165.51,-594 1165.51,-594 1165.51,-600 1159.51,-606 1153.51,-606"/>
<text text-anchor="middle" x="1110.87" y="-584.15" font-family="Arial" font-size="11.00" fill="#1f2933">Acordar contrato</text>
</g>
<!-- block_epic&#45;&gt;agree_contract -->
<g id="edge27" class="edge">
<title>block_epic&#45;&gt;agree_contract</title>
<path fill="none" stroke="#4f5b67" d="M1902.87,-774.43C1749.62,-738.31 1332.7,-640.05 1174.18,-602.69"/>
<polygon fill="#4f5b67" stroke="#4f5b67" points="1174.77,-600.31 1167.39,-601.09 1173.64,-605.08 1174.77,-600.31"/>
</g>
<!-- reactivate_epic -->
<g id="node24" class="node">
<title>reactivate_epic</title>
<path fill="#f7f8fa" stroke="#4f5b67" d="M1393.61,-846C1393.61,-846 1316.33,-846 1316.33,-846 1310.33,-846 1304.33,-840 1304.33,-834 1304.33,-834 1304.33,-822 1304.33,-822 1304.33,-816 1310.33,-810 1316.33,-810 1316.33,-810 1393.61,-810 1393.61,-810 1399.61,-810 1405.61,-816 1405.61,-822 1405.61,-822 1405.61,-834 1405.61,-834 1405.61,-840 1399.61,-846 1393.61,-846"/>
<text text-anchor="middle" x="1354.97" y="-824.15" font-family="Arial" font-size="11.00" fill="#1f2933">Reactivar epica</text>
</g>
<!-- reactivate_epic&#45;&gt;deps_ok -->
<g id="edge30" class="edge">
<title>reactivate_epic&#45;&gt;deps_ok</title>
<path fill="none" stroke="#4f5b67" d="M1405.89,-824.42C1440.37,-821.95 1487.52,-818.58 1530.1,-815.53"/>
<polygon fill="#4f5b67" stroke="#4f5b67" points="1530.23,-817.97 1537.03,-815.03 1529.88,-813.09 1530.23,-817.97"/>
</g>
<!-- validate_scope&#45;&gt;validation_ok -->
<g id="edge39" class="edge">
<title>validate_scope&#45;&gt;validation_ok</title>
<path fill="none" stroke="#4f5b67" d="M616.55,-900.2C637.43,-900.28 662.8,-900.38 688.35,-900.49"/>
<polygon fill="#4f5b67" stroke="#4f5b67" points="688.12,-902.94 695.13,-900.51 688.14,-898.04 688.12,-902.94"/>
</g>
<!-- validate_scope_again -->
<g id="node26" class="node">
<title>validate_scope_again</title>
<path fill="#f7f8fa" stroke="#4f5b67" d="M604.14,-1070C604.14,-1070 527.86,-1070 527.86,-1070 521.86,-1070 515.86,-1064 515.86,-1058 515.86,-1058 515.86,-1046 515.86,-1046 515.86,-1040 521.86,-1034 527.86,-1034 527.86,-1034 604.14,-1034 604.14,-1034 610.14,-1034 616.14,-1040 616.14,-1046 616.14,-1046 616.14,-1058 616.14,-1058 616.14,-1064 610.14,-1070 604.14,-1070"/>
<text text-anchor="middle" x="566" y="-1048.15" font-family="Arial" font-size="11.00" fill="#1f2933">Validar alcance</text>
</g>
<!-- validate_scope_again&#45;&gt;validation_ok -->
<g id="edge42" class="edge">
<title>validate_scope_again&#45;&gt;validation_ok</title>
<path fill="none" stroke="#4f5b67" d="M598.18,-1033.67C614.71,-1023.95 631.64,-1014 631.64,-1014 631.64,-1014 696.64,-946 696.64,-946 696.64,-946 737.54,-930.62 771.51,-917.84"/>
<polygon fill="#4f5b67" stroke="#4f5b67" points="771.97,-920.28 777.66,-915.52 770.24,-915.7 771.97,-920.28"/>
</g>
<!-- close_epic -->
<g id="node27" class="node">
<title>close_epic</title>
<path fill="#f7f8fa" stroke="#4f5b67" d="M596.14,-994C596.14,-994 535.86,-994 535.86,-994 529.86,-994 523.86,-988 523.86,-982 523.86,-982 523.86,-970 523.86,-970 523.86,-964 529.86,-958 535.86,-958 535.86,-958 596.14,-958 596.14,-958 602.14,-958 608.14,-964 608.14,-970 608.14,-970 608.14,-982 608.14,-982 608.14,-988 602.14,-994 596.14,-994"/>
<text text-anchor="middle" x="566" y="-972.15" font-family="Arial" font-size="11.00" fill="#1f2933">Cerrar epica</text>
</g>
<!-- close_epic&#45;&gt;end_close -->
<g id="edge46" class="edge">
<title>close_epic&#45;&gt;end_close</title>
<path fill="none" stroke="#4f5b67" d="M608.44,-976C663.55,-976 758.6,-976 798.17,-976"/>
<polygon fill="#4f5b67" stroke="#4f5b67" points="798.06,-978.45 805.06,-976 798.06,-973.55 798.06,-978.45"/>
</g>
<!-- evaluate_initiative&#45;&gt;approved -->
<g id="edge11" class="edge">
<title>evaluate_initiative&#45;&gt;approved</title>
<path fill="none" stroke="#4f5b67" d="M127.74,-663C143.91,-663 162.32,-663 181.12,-663"/>
<polygon fill="#4f5b67" stroke="#4f5b67" points="180.97,-665.45 187.97,-663 180.97,-660.55 180.97,-665.45"/>
</g>
<!-- review_capacity -->
<g id="node30" class="node">
<title>review_capacity</title>
<path fill="#f7f8fa" stroke="#4f5b67" d="M863.91,-56C863.91,-56 770.63,-56 770.63,-56 764.63,-56 758.63,-50 758.63,-44 758.63,-44 758.63,-32 758.63,-32 758.63,-26 764.63,-20 770.63,-20 770.63,-20 863.91,-20 863.91,-20 869.91,-20 875.91,-26 875.91,-32 875.91,-32 875.91,-44 875.91,-44 875.91,-50 869.91,-56 863.91,-56"/>
<text text-anchor="middle" x="817.27" y="-34.15" font-family="Arial" font-size="11.00" fill="#1f2933">Revisar capacidad</text>
</g>
<!-- prioritize_epic&#45;&gt;review_capacity -->
<g id="edge15" class="edge">
<title>prioritize_epic&#45;&gt;review_capacity</title>
<path fill="none" stroke="#4f5b67" d="M571.02,-643.82C592.9,-544.91 696.64,-76 696.64,-76 696.64,-76 722.61,-67.75 750.36,-58.94"/>
<polygon fill="#4f5b67" stroke="#4f5b67" points="750.84,-61.36 756.77,-56.9 749.35,-56.69 750.84,-61.36"/>
</g>
<!-- review_capacity&#45;&gt;capacity_ok -->
<g id="edge16" class="edge">
<title>review_capacity&#45;&gt;capacity_ok</title>
<path fill="none" stroke="#4f5b67" d="M876.23,-45.55C922.64,-51.6 987.99,-60.12 1037.78,-66.61"/>
<polygon fill="#4f5b67" stroke="#4f5b67" points="1037.18,-69 1044.44,-67.47 1037.82,-64.14 1037.18,-69"/>
</g>
<!-- freeze_intake&#45;&gt;close_active -->
<g id="edge18" class="edge">
<title>freeze_intake&#45;&gt;close_active</title>
<path fill="none" stroke="#4f5b67" d="M1302.88,-49.06C1264.61,-43.11 1218.83,-36 1218.83,-36 1218.83,-36 937.91,0 937.91,0 937.91,0 696.64,0 696.64,0 696.64,0 631.64,-724 631.64,-724 631.64,-724 628.92,-725.01 624.6,-726.61"/>
<polygon fill="#4f5b67" stroke="#4f5b67" points="623.77,-724.31 618.07,-729.04 625.48,-728.9 623.77,-724.31"/>
</g>
<!-- review_capacity_again&#45;&gt;capacity_ok -->
<g id="edge20" class="edge">
<title>review_capacity_again&#45;&gt;capacity_ok</title>
<path fill="none" stroke="#4f5b67" d="M876.23,-106.45C922.64,-100.4 987.99,-91.88 1037.78,-85.39"/>
<polygon fill="#4f5b67" stroke="#4f5b67" points="1037.82,-87.86 1044.44,-84.53 1037.18,-83 1037.82,-87.86"/>
</g>
<!-- commit_delivery -->
<g id="node34" class="node">
<title>commit_delivery</title>
<path fill="#f7f8fa" stroke="#4f5b67" d="M1412.61,-530C1412.61,-530 1297.33,-530 1297.33,-530 1291.33,-530 1285.33,-524 1285.33,-518 1285.33,-518 1285.33,-506 1285.33,-506 1285.33,-500 1291.33,-494 1297.33,-494 1297.33,-494 1412.61,-494 1412.61,-494 1418.61,-494 1424.61,-500 1424.61,-506 1424.61,-506 1424.61,-518 1424.61,-518 1424.61,-524 1418.61,-530 1412.61,-530"/>
<text text-anchor="middle" x="1354.97" y="-508.15" font-family="Arial" font-size="11.00" fill="#1f2933">Comprometer entrega</text>
</g>
<!-- agree_contract&#45;&gt;commit_delivery -->
<g id="edge28" class="edge">
<title>agree_contract&#45;&gt;commit_delivery</title>
<path fill="none" stroke="#4f5b67" d="M1165.9,-571.04C1201.81,-559.77 1249.21,-544.89 1287.44,-532.89"/>
<polygon fill="#4f5b67" stroke="#4f5b67" points="1288.06,-535.26 1294.01,-530.82 1286.59,-530.58 1288.06,-535.26"/>
</g>
<!-- commit_delivery&#45;&gt;reactivate_epic -->
<g id="edge29" class="edge">
<title>commit_delivery&#45;&gt;reactivate_epic</title>
<path fill="none" stroke="#4f5b67" d="M1320.65,-530.33C1302.46,-540.05 1283.83,-550 1283.83,-550 1283.83,-550 1251.33,-570 1251.33,-570 1251.33,-570 1251.33,-760 1251.33,-760 1251.33,-760 1289.82,-785.25 1319.88,-804.98"/>
<polygon fill="#4f5b67" stroke="#4f5b67" points="1318.46,-806.98 1325.66,-808.77 1321.15,-802.88 1318.46,-806.98"/>
</g>
<!-- build_stories -->
<g id="node36" class="node">
<title>build_stories</title>
<path fill="#f7f8fa" stroke="#4f5b67" d="M1402.11,-606C1402.11,-606 1307.83,-606 1307.83,-606 1301.83,-606 1295.83,-600 1295.83,-594 1295.83,-594 1295.83,-582 1295.83,-582 1295.83,-576 1301.83,-570 1307.83,-570 1307.83,-570 1402.11,-570 1402.11,-570 1408.11,-570 1414.11,-576 1414.11,-582 1414.11,-582 1414.11,-594 1414.11,-594 1414.11,-600 1408.11,-606 1402.11,-606"/>
<text text-anchor="middle" x="1354.97" y="-584.15" font-family="Arial" font-size="11.00" fill="#1f2933">Construir historias</text>
</g>
<!-- refine_stories&#45;&gt;build_stories -->
<g id="edge32" class="edge">
<title>refine_stories&#45;&gt;build_stories</title>
<path fill="none" stroke="#4f5b67" d="M1164.4,-647.51C1200.5,-636.18 1248.71,-621.04 1287.48,-608.87"/>
<polygon fill="#4f5b67" stroke="#4f5b67" points="1288.21,-611.21 1294.16,-606.78 1286.75,-606.54 1288.21,-611.21"/>
</g>
<!-- validate_features -->
<g id="node37" class="node">
<title>validate_features</title>
<path fill="#f7f8fa" stroke="#4f5b67" d="M1675.82,-545C1675.82,-545 1596.54,-545 1596.54,-545 1590.54,-545 1584.54,-539 1584.54,-533 1584.54,-533 1584.54,-521 1584.54,-521 1584.54,-515 1590.54,-509 1596.54,-509 1596.54,-509 1675.82,-509 1675.82,-509 1681.82,-509 1687.82,-515 1687.82,-521 1687.82,-521 1687.82,-533 1687.82,-533 1687.82,-539 1681.82,-545 1675.82,-545"/>
<text text-anchor="middle" x="1636.18" y="-523.15" font-family="Arial" font-size="11.00" fill="#1f2933">Validar features</text>
</g>
<!-- build_stories&#45;&gt;validate_features -->
<g id="edge33" class="edge">
<title>build_stories&#45;&gt;validate_features</title>
<path fill="none" stroke="#4f5b67" d="M1414.5,-575.21C1461.97,-564.84 1528.57,-550.29 1576.17,-539.89"/>
<polygon fill="#4f5b67" stroke="#4f5b67" points="1576.43,-542.34 1582.75,-538.46 1575.39,-537.56 1576.43,-542.34"/>
</g>
<!-- validate_features&#45;&gt;features_ok -->
<g id="edge34" class="edge">
<title>validate_features&#45;&gt;features_ok</title>
<path fill="none" stroke="#4f5b67" d="M1688.05,-517.4C1744.46,-506.76 1835.56,-489.57 1896.69,-478.03"/>
<polygon fill="#4f5b67" stroke="#4f5b67" points="1896.83,-480.5 1903.25,-476.79 1895.92,-475.69 1896.83,-480.5"/>
</g>
<!-- validate_features_again -->
<g id="node39" class="node">
<title>validate_features_again</title>
<path fill="#f7f8fa" stroke="#4f5b67" d="M2410.22,-483C2410.22,-483 2330.94,-483 2330.94,-483 2324.94,-483 2318.94,-477 2318.94,-471 2318.94,-471 2318.94,-459 2318.94,-459 2318.94,-453 2324.94,-447 2330.94,-447 2330.94,-447 2410.22,-447 2410.22,-447 2416.22,-447 2422.22,-453 2422.22,-459 2422.22,-459 2422.22,-471 2422.22,-471 2422.22,-477 2416.22,-483 2410.22,-483"/>
<text text-anchor="middle" x="2370.58" y="-461.15" font-family="Arial" font-size="11.00" fill="#1f2933">Validar features</text>
</g>
<!-- fix_stories&#45;&gt;validate_features_again -->
<g id="edge36" class="edge">
<title>fix_stories&#45;&gt;validate_features_again</title>
<path fill="none" stroke="#4f5b67" d="M2254.25,-445.42C2272.16,-448.46 2292.07,-451.84 2310.25,-454.92"/>
<polygon fill="#4f5b67" stroke="#4f5b67" points="2309.66,-457.31 2316.97,-456.07 2310.48,-452.48 2309.66,-457.31"/>
</g>
<!-- validate_features_again&#45;&gt;features_ok -->
<g id="edge37" class="edge">
<title>validate_features_again&#45;&gt;features_ok</title>
<path fill="none" stroke="#4f5b67" d="M2318.53,-468.97C2287.55,-471.38 2253.94,-474 2253.94,-474 2253.94,-474 2141.66,-474 2141.66,-474 2141.66,-474 2104.27,-472.33 2063.64,-470.52"/>
<polygon fill="#4f5b67" stroke="#4f5b67" points="2063.83,-468.07 2056.72,-470.21 2063.61,-472.97 2063.83,-468.07"/>
</g>
<!-- fix_scope&#45;&gt;validate_scope_again -->
<g id="edge41" class="edge">
<title>fix_scope&#45;&gt;validate_scope_again</title>
<path fill="none" stroke="#4f5b67" d="M1057.96,-454.44C1030.7,-464.13 1002.91,-474 1002.91,-474 1002.91,-474 696.64,-785 696.64,-785 696.64,-785 631.64,-1014 631.64,-1014 631.64,-1014 619.36,-1021.22 605.51,-1029.36"/>
<polygon fill="#4f5b67" stroke="#4f5b67" points="604.28,-1027.24 599.49,-1032.9 606.76,-1031.47 604.28,-1027.24"/>
</g>
<!-- close_features -->
<g id="node42" class="node">
<title>close_features</title>
<path fill="#f7f8fa" stroke="#4f5b67" d="M1393.11,-454C1393.11,-454 1316.83,-454 1316.83,-454 1310.83,-454 1304.83,-448 1304.83,-442 1304.83,-442 1304.83,-430 1304.83,-430 1304.83,-424 1310.83,-418 1316.83,-418 1316.83,-418 1393.11,-418 1393.11,-418 1399.11,-418 1405.11,-424 1405.11,-430 1405.11,-430 1405.11,-442 1405.11,-442 1405.11,-448 1399.11,-454 1393.11,-454"/>
<text text-anchor="middle" x="1354.97" y="-432.15" font-family="Arial" font-size="11.00" fill="#1f2933">Cerrar features</text>
</g>
<!-- deploy_prod&#45;&gt;close_features -->
<g id="edge44" class="edge">
<title>deploy_prod&#45;&gt;close_features</title>
<path fill="none" stroke="#4f5b67" d="M1170.79,-493.51C1209.07,-481.49 1258.74,-465.9 1296.69,-453.98"/>
<polygon fill="#4f5b67" stroke="#4f5b67" points="1297.22,-456.38 1303.16,-451.95 1295.75,-451.71 1297.22,-456.38"/>
</g>
<!-- close_features&#45;&gt;close_epic -->
<g id="edge45" class="edge">
<title>close_features&#45;&gt;close_epic</title>
<path fill="none" stroke="#4f5b67" d="M1304.42,-422.07C1265.85,-411.22 1218.83,-398 1218.83,-398 1218.83,-398 1002.91,-398 1002.91,-398 1002.91,-398 696.64,-531 696.64,-531 696.64,-531 631.64,-938 631.64,-938 631.64,-938 619.36,-945.22 605.51,-953.36"/>
<polygon fill="#4f5b67" stroke="#4f5b67" points="604.28,-951.24 599.49,-956.9 606.76,-955.47 604.28,-951.24"/>
</g>
</g>
</svg>
