<?xml version="1.0" encoding="UTF-8"?>
<svg xmlns="http://www.w3.org/2000/svg" width="1956" height="392" viewBox="0 0 1956 392" role="img" aria-labelledby="title desc">
  <title id="title">Fase 1: Definicion funcional y descomposicion</title>
  <desc id="desc">Diagrama generado desde process.yaml con lanes horizontales, actores a la izquierda, tamanos fijos y conectores ortogonales.</desc>
  <defs>
    <marker id="arrow" viewBox="0 0 10 10" refX="9" refY="5" markerWidth="8" markerHeight="8" orient="auto-start-reverse">
      <path d="M 0 0 L 10 5 L 0 10 z" fill="#4f5b67"/>
    </marker>
  </defs>
  <rect x="24" y="24" width="1908" height="344" rx="0" fill="#ffffff" stroke="#4f5b67" stroke-width="1.5"/>
  <text x="978.0" y="56" text-anchor="middle" font-family="Arial, sans-serif" font-size="20" font-weight="700" fill="#1f2933">Fase 1: Definicion funcional y descomposicion</text>
  <rect x="24" y="80" width="1908" height="144" fill="#f8fafc" stroke="#d5dce6" stroke-width="1"/>
  <rect x="24" y="80" width="76" height="144" fill="#e6edf7" stroke="#d5dce6" stroke-width="1"/>
  <text x="62.0" y="152.0" text-anchor="middle" dominant-baseline="middle" transform="rotate(-90 62.0 152.0)" font-family="Arial, sans-serif" font-size="13" font-weight="700" fill="#1f2933">Product Owner</text>
  <rect x="24" y="224" width="1908" height="144" fill="#eef4ff" stroke="#d5dce6" stroke-width="1"/>
  <rect x="24" y="224" width="76" height="144" fill="#e6edf7" stroke="#d5dce6" stroke-width="1"/>
  <text x="62.0" y="296.0" text-anchor="middle" dominant-baseline="middle" transform="rotate(-90 62.0 296.0)" font-family="Arial, sans-serif" font-size="13" font-weight="700" fill="#1f2933">PMO</text>
  <g fill="none" stroke="#4f5b67" stroke-width="1.4" marker-end="url(#arrow)">
    <polyline points="159.0,296.0 205.0,296.0 251.0,296.0"/>
    <polyline points="393.0,296.0 415.5,296.0 438.0,296.0"/>
    <polyline points="562.0,296.0 584.5,296.0 607.0,296.0"/>
    <polyline points="749.0,296.0 767.0,296.0 767.0,152.0 785.0,152.0"/>
    <polyline points="785.0,152.0 357.0,152.0 357.0,296.0 393.0,296.0"/>
    <polyline points="562.0,296.0 762.5,296.0 762.5,152.0 963.0,152.0"/>
    <polyline points="1105.0,152.0 1123.0,152.0 1141.0,152.0"/>
    <polyline points="1283.0,152.0 1301.0,152.0 1319.0,152.0"/>
    <polyline points="1461.0,152.0 1479.0,152.0 1497.0,152.0"/>
    <polyline points="1639.0,152.0 1685.0,152.0 1731.0,152.0"/>
  </g>
  <rect x="576.0" y="275.0" width="26" height="18" fill="#ffffff" stroke="none"/>
  <text x="589.0" y="288.0" text-anchor="middle" font-family="Arial, sans-serif" font-size="11" fill="#1f2933">No</text>
  <rect x="754.0" y="203.0" width="26" height="18" fill="#ffffff" stroke="none"/>
  <text x="767.0" y="216.0" text-anchor="middle" font-family="Arial, sans-serif" font-size="11" fill="#1f2933">Si</text>
  <circle cx="144" cy="296.0" r="15.0" fill="#1f2933" stroke="#1f2933" stroke-width="1.5"/>
  <rect x="251.0" y="270.0" width="142" height="52" rx="4" fill="#ffffff" stroke="#4f5b67" stroke-width="1.5"/>
  <text x="322" y="300.0" text-anchor="middle" font-family="Arial, sans-serif" font-size="12" fill="#1f2933">Revisar capacidad</text>
  <polygon points="500,260.0 562.0,296.0 500,332.0 438.0,296.0" fill="#ffffff" stroke="#4f5b67" stroke-width="1.5"/>
  <text x="500" y="300.0" text-anchor="middle" font-family="Arial, sans-serif" font-size="11" fill="#1f2933">Rango operativo</text>
  <rect x="607.0" y="270.0" width="142" height="52" rx="4" fill="#ffffff" stroke="#4f5b67" stroke-width="1.5"/>
  <text x="678" y="300.0" text-anchor="middle" font-family="Arial, sans-serif" font-size="12" fill="#1f2933">Congelar intake</text>
  <rect x="785.0" y="126.0" width="142" height="52" rx="4" fill="#ffffff" stroke="#4f5b67" stroke-width="1.5"/>
  <text x="856" y="149.0" text-anchor="middle" font-family="Arial, sans-serif" font-size="12" fill="#1f2933">Cerrar trabajo</text>
  <text x="856" y="163.0" text-anchor="middle" font-family="Arial, sans-serif" font-size="12" fill="#1f2933">activo</text>
  <rect x="963.0" y="126.0" width="142" height="52" rx="4" fill="#ffffff" stroke="#4f5b67" stroke-width="1.5"/>
  <text x="1034" y="156.0" text-anchor="middle" font-family="Arial, sans-serif" font-size="12" fill="#1f2933">Definir features</text>
  <rect x="1141.0" y="126.0" width="142" height="52" rx="4" fill="#ffffff" stroke="#4f5b67" stroke-width="1.5"/>
  <text x="1212" y="156.0" text-anchor="middle" font-family="Arial, sans-serif" font-size="12" fill="#1f2933">Estimar features</text>
  <rect x="1319.0" y="126.0" width="142" height="52" rx="4" fill="#ffffff" stroke="#4f5b67" stroke-width="1.5"/>
  <text x="1390" y="156.0" text-anchor="middle" font-family="Arial, sans-serif" font-size="12" fill="#1f2933">Asignar features</text>
  <rect x="1497.0" y="126.0" width="142" height="52" rx="4" fill="#ffffff" stroke="#4f5b67" stroke-width="1.5"/>
  <text x="1568" y="149.0" text-anchor="middle" font-family="Arial, sans-serif" font-size="12" fill="#1f2933">Verificar</text>
  <text x="1568" y="163.0" text-anchor="middle" font-family="Arial, sans-serif" font-size="12" fill="#1f2933">dependencias</text>
  <circle cx="1746" cy="152.0" r="15.0" fill="#ffffff" stroke="#1f2933" stroke-width="2"/>
  <circle cx="1746" cy="152.0" r="10.0" fill="#1f2933" stroke="none"/>
</svg>
