Warning: Orthogonal edges do not currently handle edge labels. Try using xlabels.
<?xml version="1.0" encoding="UTF-8" standalone="no"?>
<!DOCTYPE svg PUBLIC "-//W3C//DTD SVG 1.1//EN"
 "http://www.w3.org/Graphics/SVG/1.1/DTD/svg11.dtd">
<!-- Generated by graphviz version 10.0.1 (20240210.2158)
 -->
<!-- Title: agenda_unica_luckia Pages: 1 -->
<svg width="2524pt" height="1469pt"
 viewBox="0.00 0.00 2524.22 1468.60" xmlns="http://www.w3.org/2000/svg" xmlns:xlink="http://www.w3.org/1999/xlink">
<g id="graph0" class="graph" transform="scale(1 1) rotate(0) translate(4 1464.6)">
<title>agenda_unica_luckia</title>
<polygon fill="white" stroke="none" points="-4,4 -4,-1464.6 2520.22,-1464.6 2520.22,4 -4,4"/>
<text text-anchor="middle" x="1258.11" y="-1439.5" font-family="Arial" font-size="18.00">Gestion de la Agenda Unica Luckia</text>
<g id="clust1" class="cluster">
<title>cluster_promotor</title>
<path fill="#eef4ff" stroke="#7a8da8" d="M269.68,-1295C269.68,-1295 883.91,-1295 883.91,-1295 889.91,-1295 895.91,-1301 895.91,-1307 895.91,-1307 895.91,-1411 895.91,-1411 895.91,-1417 889.91,-1423 883.91,-1423 883.91,-1423 269.68,-1423 269.68,-1423 263.68,-1423 257.68,-1417 257.68,-1411 257.68,-1411 257.68,-1307 257.68,-1307 257.68,-1301 263.68,-1295 269.68,-1295"/>
<text text-anchor="middle" x="576.8" y="-1406.65" font-family="Arial" font-size="13.00">Promotor</text>
</g>
<g id="clust2" class="cluster">
<title>cluster_product_owner</title>
<path fill="#eef4ff" stroke="#7a8da8" d="M520.36,-311C520.36,-311 2077.6,-311 2077.6,-311 2083.6,-311 2089.6,-317 2089.6,-323 2089.6,-323 2089.6,-831 2089.6,-831 2089.6,-837 2083.6,-843 2077.6,-843 2077.6,-843 520.36,-843 520.36,-843 514.36,-843 508.36,-837 508.36,-831 508.36,-831 508.36,-323 508.36,-323 508.36,-317 514.36,-311 520.36,-311"/>
<text text-anchor="middle" x="1298.98" y="-826.65" font-family="Arial" font-size="13.00">Product Owner</text>
</g>
<g id="clust3" class="cluster">
<title>cluster_committee</title>
<path fill="#eef4ff" stroke="#7a8da8" d="M20,-137C20,-137 625.64,-137 625.64,-137 631.64,-137 637.64,-143 637.64,-149 637.64,-149 637.64,-217 637.64,-217 637.64,-223 631.64,-229 625.64,-229 625.64,-229 20,-229 20,-229 14,-229 8,-223 8,-217 8,-217 8,-149 8,-149 8,-143 14,-137 20,-137"/>
<text text-anchor="middle" x="322.82" y="-212.65" font-family="Arial" font-size="13.00">Comite Transformacion</text>
</g>
<g id="clust4" class="cluster">
<title>cluster_pmo</title>
<path fill="#eef4ff" stroke="#7a8da8" d="M780.63,-8C780.63,-8 1448.61,-8 1448.61,-8 1454.61,-8 1460.61,-14 1460.61,-20 1460.61,-20 1460.61,-148 1460.61,-148 1460.61,-154 1454.61,-160 1448.61,-160 1448.61,-160 780.63,-160 780.63,-160 774.63,-160 768.63,-154 768.63,-148 768.63,-148 768.63,-20 768.63,-20 768.63,-14 774.63,-8 780.63,-8"/>
<text text-anchor="middle" x="1114.62" y="-143.65" font-family="Arial" font-size="13.00">PMO</text>
</g>
<g id="clust5" class="cluster">
<title>cluster_tech_team</title>
<path fill="#eef4ff" stroke="#7a8da8" d="M1078.23,-851C1078.23,-851 2496.22,-851 2496.22,-851 2502.22,-851 2508.22,-857 2508.22,-863 2508.22,-863 2508.22,-1143 2508.22,-1143 2508.22,-1149 2502.22,-1155 2496.22,-1155 2496.22,-1155 1078.23,-1155 1078.23,-1155 1072.23,-1155 1066.23,-1149 1066.23,-1143 1066.23,-1143 1066.23,-863 1066.23,-863 1066.23,-857 1072.23,-851 1078.23,-851"/>
<text text-anchor="middle" x="1787.23" y="-1138.65" font-family="Arial" font-size="13.00">Equipo Tecnico</text>
</g>
<!-- start -->
<g id="node1" class="node">
<title>start</title>
<ellipse fill="#222222" stroke="#222222" cx="315.82" cy="-1385" rx="6.48" ry="6.48"/>
</g>
<!-- formalize_brief -->
<g id="node10" class="node">
<title>formalize_brief</title>
<path fill="#f7f8fa" stroke="#4f5b67" d="M621.64,-1387C621.64,-1387 542.36,-1387 542.36,-1387 536.36,-1387 530.36,-1381 530.36,-1375 530.36,-1375 530.36,-1363 530.36,-1363 530.36,-1357 536.36,-1351 542.36,-1351 542.36,-1351 621.64,-1351 621.64,-1351 627.64,-1351 633.64,-1357 633.64,-1363 633.64,-1363 633.64,-1375 633.64,-1375 633.64,-1381 627.64,-1387 621.64,-1387"/>
<text text-anchor="middle" x="582" y="-1365.15" font-family="Arial" font-size="11.00" fill="#1f2933">Formalizar brief</text>
</g>
<!-- start&#45;&gt;formalize_brief -->
<g id="edge1" class="edge">
<title>start&#45;&gt;formalize_brief</title>
<path fill="none" stroke="#4f5b67" d="M322.4,-1382.76C322.4,-1382.76 521.53,-1382.76 521.53,-1382.76"/>
<polygon fill="#4f5b67" stroke="#4f5b67" points="521.53,-1385.21 528.53,-1382.76 521.53,-1380.31 521.53,-1385.21"/>
</g>
<!-- end_reject -->
<g id="node2" class="node">
<title>end_reject</title>
<ellipse fill="#222222" stroke="#222222" cx="835.27" cy="-510" rx="6.48" ry="6.48"/>
<ellipse fill="none" stroke="#222222" cx="835.27" cy="-510" rx="10.48" ry="10.48"/>
</g>
<!-- end_close -->
<g id="node3" class="node">
<title>end_close</title>
<ellipse fill="#222222" stroke="#222222" cx="835.27" cy="-571" rx="6.48" ry="6.48"/>
<ellipse fill="none" stroke="#222222" cx="835.27" cy="-571" rx="10.48" ry="10.48"/>
</g>
<!-- brief_ok -->
<g id="node4" class="node">
<title>brief_ok</title>
<path fill="#f7f8fa" stroke="#4f5b67" d="M823.51,-658.44C823.51,-658.44 748.13,-643.36 748.13,-643.36 742.24,-642.18 742.24,-639.82 748.13,-638.64 748.13,-638.64 823.51,-623.56 823.51,-623.56 829.39,-622.38 841.16,-622.38 847.04,-623.56 847.04,-623.56 922.42,-638.64 922.42,-638.64 928.3,-639.82 928.3,-642.18 922.42,-643.36 922.42,-643.36 847.04,-658.44 847.04,-658.44 841.16,-659.62 829.39,-659.62 823.51,-658.44"/>
<text text-anchor="middle" x="835.27" y="-637.15" font-family="Arial" font-size="11.00" fill="#1f2933">¿Brief completo?</text>
</g>
<!-- request_updates -->
<g id="node14" class="node">
<title>request_updates</title>
<path fill="#f7f8fa" stroke="#4f5b67" d="M1183.01,-388C1183.01,-388 1102.73,-388 1102.73,-388 1096.73,-388 1090.73,-382 1090.73,-376 1090.73,-376 1090.73,-364 1090.73,-364 1090.73,-358 1096.73,-352 1102.73,-352 1102.73,-352 1183.01,-352 1183.01,-352 1189.01,-352 1195.01,-358 1195.01,-364 1195.01,-364 1195.01,-376 1195.01,-376 1195.01,-382 1189.01,-388 1183.01,-388"/>
<text text-anchor="middle" x="1142.87" y="-366.15" font-family="Arial" font-size="11.00" fill="#1f2933">Solicitar ajustes</text>
</g>
<!-- brief_ok&#45;&gt;request_updates -->
<g id="edge5" class="edge">
<title>brief_ok&#45;&gt;request_updates</title>
<path fill="none" stroke="#4f5b67" d="M908.22,-635.49C908.22,-597.57 908.22,-377 908.22,-377 908.22,-377 1081.99,-377 1081.99,-377"/>
<polygon fill="#4f5b67" stroke="#4f5b67" points="1081.99,-379.45 1088.99,-377 1081.99,-374.55 1081.99,-379.45"/>
<text text-anchor="middle" x="995.41" y="-534.5" font-family="Arial" font-size="10.00">No</text>
</g>
<!-- estimate_effort -->
<g id="node15" class="node">
<title>estimate_effort</title>
<path fill="#f7f8fa" stroke="#4f5b67" d="M1177.01,-610C1177.01,-610 1108.73,-610 1108.73,-610 1102.73,-610 1096.73,-604 1096.73,-598 1096.73,-598 1096.73,-586 1096.73,-586 1096.73,-580 1102.73,-574 1108.73,-574 1108.73,-574 1177.01,-574 1177.01,-574 1183.01,-574 1189.01,-580 1189.01,-586 1189.01,-586 1189.01,-598 1189.01,-598 1189.01,-604 1183.01,-610 1177.01,-610"/>
<text text-anchor="middle" x="1142.87" y="-588.15" font-family="Arial" font-size="11.00" fill="#1f2933">Estimar effort</text>
</g>
<!-- brief_ok&#45;&gt;estimate_effort -->
<g id="edge8" class="edge">
<title>brief_ok&#45;&gt;estimate_effort</title>
<path fill="none" stroke="#4f5b67" d="M921.22,-638.08C921.22,-628.18 921.22,-596.5 921.22,-596.5 921.22,-596.5 1087.89,-596.5 1087.89,-596.5"/>
<polygon fill="#4f5b67" stroke="#4f5b67" points="1087.89,-598.95 1094.89,-596.5 1087.89,-594.05 1087.89,-598.95"/>
<text text-anchor="middle" x="995.41" y="-639.5" font-family="Arial" font-size="10.00">Si</text>
</g>
<!-- approved -->
<g id="node5" class="node">
<title>approved</title>
<path fill="#f7f8fa" stroke="#4f5b67" d="M303.98,-195.87C303.98,-195.87 206.12,-179.93 206.12,-179.93 200.2,-178.96 200.2,-177.04 206.12,-176.07 206.12,-176.07 303.98,-160.13 303.98,-160.13 309.9,-159.16 321.74,-159.16 327.66,-160.13 327.66,-160.13 425.51,-176.07 425.51,-176.07 431.44,-177.04 431.44,-178.96 425.51,-179.93 425.51,-179.93 327.66,-195.87 327.66,-195.87 321.74,-196.84 309.9,-196.84 303.98,-195.87"/>
<text text-anchor="middle" x="315.82" y="-174.15" font-family="Arial" font-size="11.00" fill="#1f2933">¿Iniciativa aprobada?</text>
</g>
<!-- reject_epic -->
<g id="node17" class="node">
<title>reject_epic</title>
<path fill="#f7f8fa" stroke="#4f5b67" d="M631.64,-507C631.64,-507 532.36,-507 532.36,-507 526.36,-507 520.36,-501 520.36,-495 520.36,-495 520.36,-483 520.36,-483 520.36,-477 526.36,-471 532.36,-471 532.36,-471 631.64,-471 631.64,-471 637.64,-471 643.64,-477 643.64,-483 643.64,-483 643.64,-495 643.64,-495 643.64,-501 637.64,-507 631.64,-507"/>
<text text-anchor="middle" x="582" y="-485.15" font-family="Arial" font-size="11.00" fill="#1f2933">Comunicar rechazo</text>
</g>
<!-- approved&#45;&gt;reject_epic -->
<g id="edge12" class="edge">
<title>approved&#45;&gt;reject_epic</title>
<path fill="none" stroke="#4f5b67" d="M402.22,-184.21C402.22,-228.04 402.22,-489 402.22,-489 402.22,-489 511.37,-489 511.37,-489"/>
<polygon fill="#4f5b67" stroke="#4f5b67" points="511.37,-491.45 518.37,-489 511.37,-486.55 511.37,-491.45"/>
<text text-anchor="middle" x="476.86" y="-244.5" font-family="Arial" font-size="10.00">No</text>
</g>
<!-- prioritize_epic -->
<g id="node29" class="node">
<title>prioritize_epic</title>
<path fill="#f7f8fa" stroke="#4f5b67" d="M617.64,-197C617.64,-197 546.36,-197 546.36,-197 540.36,-197 534.36,-191 534.36,-185 534.36,-185 534.36,-173 534.36,-173 534.36,-167 540.36,-161 546.36,-161 546.36,-161 617.64,-161 617.64,-161 623.64,-161 629.64,-167 629.64,-173 629.64,-173 629.64,-185 629.64,-185 629.64,-191 623.64,-197 617.64,-197"/>
<text text-anchor="middle" x="582" y="-175.15" font-family="Arial" font-size="11.00" fill="#1f2933">Priorizar epica</text>
</g>
<!-- approved&#45;&gt;prioritize_epic -->
<g id="edge14" class="edge">
<title>approved&#45;&gt;prioritize_epic</title>
<path fill="none" stroke="#4f5b67" d="M434.12,-179C434.12,-179 525.54,-179 525.54,-179"/>
<polygon fill="#4f5b67" stroke="#4f5b67" points="525.54,-181.45 532.54,-179 525.54,-176.55 525.54,-181.45"/>
<text text-anchor="middle" x="476.86" y="-187.5" font-family="Arial" font-size="10.00">Si</text>
</g>
<!-- capacity_ok -->
<g id="node6" class="node">
<title>capacity_ok</title>
<path fill="#f7f8fa" stroke="#4f5b67" d="M1131.07,-112.64C1131.07,-112.64 1046.71,-97.16 1046.71,-97.16 1040.81,-96.08 1040.81,-93.92 1046.71,-92.84 1046.71,-92.84 1131.07,-77.36 1131.07,-77.36 1136.97,-76.28 1148.77,-76.28 1154.67,-77.36 1154.67,-77.36 1239.03,-92.84 1239.03,-92.84 1244.93,-93.92 1244.93,-96.08 1239.03,-97.16 1239.03,-97.16 1154.67,-112.64 1154.67,-112.64 1148.77,-113.72 1136.97,-113.72 1131.07,-112.64"/>
<text text-anchor="middle" x="1142.87" y="-91.15" font-family="Arial" font-size="11.00" fill="#1f2933">¿Rango operativo?</text>
</g>
<!-- define_features -->
<g id="node19" class="node">
<title>define_features</title>
<path fill="#f7f8fa" stroke="#4f5b67" d="M621.14,-431C621.14,-431 542.86,-431 542.86,-431 536.86,-431 530.86,-425 530.86,-419 530.86,-419 530.86,-407 530.86,-407 530.86,-401 536.86,-395 542.86,-395 542.86,-395 621.14,-395 621.14,-395 627.14,-395 633.14,-401 633.14,-407 633.14,-407 633.14,-419 633.14,-419 633.14,-425 627.14,-431 621.14,-431"/>
<text text-anchor="middle" x="582" y="-409.15" font-family="Arial" font-size="11.00" fill="#1f2933">Definir features</text>
</g>
<!-- capacity_ok&#45;&gt;define_features -->
<g id="edge21" class="edge">
<title>capacity_ok&#45;&gt;define_features</title>
<path fill="none" stroke="#4f5b67" d="M1055.22,-98.98C1055.22,-135.38 1055.22,-409.5 1055.22,-409.5 1055.22,-409.5 642.06,-409.5 642.06,-409.5"/>
<polygon fill="#4f5b67" stroke="#4f5b67" points="642.06,-407.05 635.06,-409.5 642.06,-411.95 642.06,-407.05"/>
<text text-anchor="middle" x="835.27" y="-374.5" font-family="Arial" font-size="10.00">Si</text>
</g>
<!-- freeze_intake -->
<g id="node31" class="node">
<title>freeze_intake</title>
<path fill="#f7f8fa" stroke="#4f5b67" d="M1440.61,-69C1440.61,-69 1361.33,-69 1361.33,-69 1355.33,-69 1349.33,-63 1349.33,-57 1349.33,-57 1349.33,-45 1349.33,-45 1349.33,-39 1355.33,-33 1361.33,-33 1361.33,-33 1440.61,-33 1440.61,-33 1446.61,-33 1452.61,-39 1452.61,-45 1452.61,-45 1452.61,-57 1452.61,-57 1452.61,-63 1446.61,-69 1440.61,-69"/>
<text text-anchor="middle" x="1400.97" y="-47.15" font-family="Arial" font-size="11.00" fill="#1f2933">Congelar intake</text>
</g>
<!-- capacity_ok&#45;&gt;freeze_intake -->
<g id="edge17" class="edge">
<title>capacity_ok&#45;&gt;freeze_intake</title>
<path fill="none" stroke="#4f5b67" d="M1253.56,-95C1323.68,-95 1401.22,-95 1401.22,-95 1401.22,-95 1401.22,-77.92 1401.22,-77.92"/>
<polygon fill="#4f5b67" stroke="#4f5b67" points="1403.67,-77.92 1401.22,-70.92 1398.77,-77.92 1403.67,-77.92"/>
<text text-anchor="middle" x="1290.33" y="-71.5" font-family="Arial" font-size="10.00">No</text>
</g>
<!-- deps_ok -->
<g id="node7" class="node">
<title>deps_ok</title>
<path fill="#f7f8fa" stroke="#4f5b67" d="M1672.3,-750.18C1672.3,-750.18 1551,-733.62 1551,-733.62 1545.06,-732.81 1545.06,-731.19 1551,-730.38 1551,-730.38 1672.3,-713.82 1672.3,-713.82 1678.24,-713.01 1690.13,-713.01 1696.07,-713.82 1696.07,-713.82 1817.37,-730.38 1817.37,-730.38 1823.31,-731.19 1823.31,-732.81 1817.37,-733.62 1817.37,-733.62 1696.07,-750.18 1696.07,-750.18 1690.13,-750.99 1678.24,-750.99 1672.3,-750.18"/>
<text text-anchor="middle" x="1684.18" y="-728.15" font-family="Arial" font-size="11.00" fill="#1f2933">¿Dependencias resueltas?</text>
</g>
<!-- block_epic -->
<g id="node23" class="node">
<title>block_epic</title>
<path fill="#f7f8fa" stroke="#4f5b67" d="M2069.6,-802C2069.6,-802 1977.32,-802 1977.32,-802 1971.32,-802 1965.32,-796 1965.32,-790 1965.32,-790 1965.32,-778 1965.32,-778 1965.32,-772 1971.32,-766 1977.32,-766 1977.32,-766 2069.6,-766 2069.6,-766 2075.6,-766 2081.6,-772 2081.6,-778 2081.6,-778 2081.6,-790 2081.6,-790 2081.6,-796 2075.6,-802 2069.6,-802"/>
<text text-anchor="middle" x="2023.46" y="-780.15" font-family="Arial" font-size="11.00" fill="#1f2933">Marcar bloqueada</text>
</g>
<!-- deps_ok&#45;&gt;block_epic -->
<g id="edge26" class="edge">
<title>deps_ok&#45;&gt;block_epic</title>
<path fill="none" stroke="#4f5b67" d="M1783.22,-738.55C1783.22,-752.14 1783.22,-782.13 1783.22,-782.13 1783.22,-782.13 1956.49,-782.13 1956.49,-782.13"/>
<polygon fill="#4f5b67" stroke="#4f5b67" points="1956.49,-784.58 1963.49,-782.13 1956.49,-779.68 1956.49,-784.58"/>
<text text-anchor="middle" x="1868.76" y="-778.5" font-family="Arial" font-size="10.00">No</text>
</g>
<!-- refine_stories -->
<g id="node35" class="node">
<title>refine_stories</title>
<path fill="#f7f8fa" stroke="#4f5b67" d="M1184.01,-895C1184.01,-895 1101.73,-895 1101.73,-895 1095.73,-895 1089.73,-889 1089.73,-883 1089.73,-883 1089.73,-871 1089.73,-871 1089.73,-865 1095.73,-859 1101.73,-859 1101.73,-859 1184.01,-859 1184.01,-859 1190.01,-859 1196.01,-865 1196.01,-871 1196.01,-871 1196.01,-883 1196.01,-883 1196.01,-889 1190.01,-895 1184.01,-895"/>
<text text-anchor="middle" x="1142.87" y="-873.15" font-family="Arial" font-size="11.00" fill="#1f2933">Refinar historias</text>
</g>
<!-- deps_ok&#45;&gt;refine_stories -->
<g id="edge31" class="edge">
<title>deps_ok&#45;&gt;refine_stories</title>
<path fill="none" stroke="#4f5b67" d="M1618.99,-743.4C1485.44,-743.4 1193.22,-743.4 1193.22,-743.4 1193.22,-743.4 1193.22,-850.19 1193.22,-850.19"/>
<polygon fill="#4f5b67" stroke="#4f5b67" points="1190.77,-850.19 1193.22,-857.19 1195.67,-850.19 1190.77,-850.19"/>
<text text-anchor="middle" x="1400.97" y="-765.5" font-family="Arial" font-size="10.00">Si</text>
</g>
<!-- features_ok -->
<g id="node8" class="node">
<title>features_ok</title>
<path fill="#f7f8fa" stroke="#4f5b67" d="M2011.63,-1024.77C2011.63,-1024.77 1920.08,-1009.03 1920.08,-1009.03 1914.17,-1008.02 1914.17,-1005.98 1920.08,-1004.97 1920.08,-1004.97 2011.63,-989.23 2011.63,-989.23 2017.55,-988.22 2029.37,-988.22 2035.29,-989.23 2035.29,-989.23 2126.84,-1004.97 2126.84,-1004.97 2132.75,-1005.98 2132.75,-1008.02 2126.84,-1009.03 2126.84,-1009.03 2035.29,-1024.77 2035.29,-1024.77 2029.37,-1025.78 2017.55,-1025.78 2011.63,-1024.77"/>
<text text-anchor="middle" x="2023.46" y="-1003.15" font-family="Arial" font-size="11.00" fill="#1f2933">¿Features cerradas?</text>
</g>
<!-- validate_scope -->
<g id="node25" class="node">
<title>validate_scope</title>
<path fill="#f7f8fa" stroke="#4f5b67" d="M620.14,-811C620.14,-811 543.86,-811 543.86,-811 537.86,-811 531.86,-805 531.86,-799 531.86,-799 531.86,-787 531.86,-787 531.86,-781 537.86,-775 543.86,-775 543.86,-775 620.14,-775 620.14,-775 626.14,-775 632.14,-781 632.14,-787 632.14,-787 632.14,-799 632.14,-799 632.14,-805 626.14,-811 620.14,-811"/>
<text text-anchor="middle" x="582" y="-789.15" font-family="Arial" font-size="11.00" fill="#1f2933">Validar alcance</text>
</g>
<!-- features_ok&#45;&gt;validate_scope -->
<g id="edge38" class="edge">
<title>features_ok&#45;&gt;validate_scope</title>
<path fill="none" stroke="#4f5b67" d="M1947.22,-1000.06C1947.22,-967.96 1947.22,-835.4 1947.22,-835.4 1947.22,-835.4 582.22,-835.4 582.22,-835.4 582.22,-835.4 582.22,-819.74 582.22,-819.74"/>
<polygon fill="#4f5b67" stroke="#4f5b67" points="584.67,-819.74 582.22,-812.74 579.77,-819.74 584.67,-819.74"/>
<text text-anchor="middle" x="1290.33" y="-1268.5" font-family="Arial" font-size="10.00">Si</text>
</g>
<!-- fix_stories -->
<g id="node38" class="node">
<title>fix_stories</title>
<path fill="#f7f8fa" stroke="#4f5b67" d="M2317.94,-979C2317.94,-979 2229.66,-979 2229.66,-979 2223.66,-979 2217.66,-973 2217.66,-967 2217.66,-967 2217.66,-955 2217.66,-955 2217.66,-949 2223.66,-943 2229.66,-943 2229.66,-943 2317.94,-943 2317.94,-943 2323.94,-943 2329.94,-949 2329.94,-955 2329.94,-955 2329.94,-967 2329.94,-967 2329.94,-973 2323.94,-979 2317.94,-979"/>
<text text-anchor="middle" x="2273.8" y="-957.15" font-family="Arial" font-size="11.00" fill="#1f2933">Corregir historias</text>
</g>
<!-- features_ok&#45;&gt;fix_stories -->
<g id="edge35" class="edge">
<title>features_ok&#45;&gt;fix_stories</title>
<path fill="none" stroke="#4f5b67" d="M2110.22,-1001.8C2110.22,-989.89 2110.22,-961.67 2110.22,-961.67 2110.22,-961.67 2209,-961.67 2209,-961.67"/>
<polygon fill="#4f5b67" stroke="#4f5b67" points="2209,-964.12 2216,-961.67 2209,-959.22 2209,-964.12"/>
<text text-anchor="middle" x="2178.16" y="-995.5" font-family="Arial" font-size="10.00">No</text>
</g>
<!-- validation_ok -->
<g id="node9" class="node">
<title>validation_ok</title>
<path fill="#f7f8fa" stroke="#4f5b67" d="M823.43,-809.86C823.43,-809.86 726.48,-793.94 726.48,-793.94 720.56,-792.97 720.56,-791.03 726.48,-790.06 726.48,-790.06 823.43,-774.14 823.43,-774.14 829.35,-773.17 841.19,-773.17 847.11,-774.14 847.11,-774.14 944.07,-790.06 944.07,-790.06 949.99,-791.03 949.99,-792.97 944.07,-793.94 944.07,-793.94 847.11,-809.86 847.11,-809.86 841.19,-810.83 829.35,-810.83 823.43,-809.86"/>
<text text-anchor="middle" x="835.27" y="-788.15" font-family="Arial" font-size="11.00" fill="#1f2933">¿Validacion correcta?</text>
</g>
<!-- fix_scope -->
<g id="node40" class="node">
<title>fix_scope</title>
<path fill="#f7f8fa" stroke="#4f5b67" d="M1184.51,-1123C1184.51,-1123 1101.23,-1123 1101.23,-1123 1095.23,-1123 1089.23,-1117 1089.23,-1111 1089.23,-1111 1089.23,-1099 1089.23,-1099 1089.23,-1093 1095.23,-1087 1101.23,-1087 1101.23,-1087 1184.51,-1087 1184.51,-1087 1190.51,-1087 1196.51,-1093 1196.51,-1099 1196.51,-1099 1196.51,-1111 1196.51,-1111 1196.51,-1117 1190.51,-1123 1184.51,-1123"/>
<text text-anchor="middle" x="1142.87" y="-1101.15" font-family="Arial" font-size="11.00" fill="#1f2933">Corregir alcance</text>
</g>
<!-- validation_ok&#45;&gt;fix_scope -->
<g id="edge40" class="edge">
<title>validation_ok&#45;&gt;fix_scope</title>
<path fill="none" stroke="#4f5b67" d="M922.22,-797.81C922.22,-841.04 922.22,-1111 922.22,-1111 922.22,-1111 1080.38,-1111 1080.38,-1111"/>
<polygon fill="#4f5b67" stroke="#4f5b67" points="1080.38,-1113.45 1087.38,-1111 1080.38,-1108.55 1080.38,-1113.45"/>
<text text-anchor="middle" x="995.41" y="-1028.5" font-family="Arial" font-size="10.00">No</text>
</g>
<!-- deploy_prod -->
<g id="node41" class="node">
<title>deploy_prod</title>
<path fill="#f7f8fa" stroke="#4f5b67" d="M1199.51,-1047C1199.51,-1047 1086.23,-1047 1086.23,-1047 1080.23,-1047 1074.23,-1041 1074.23,-1035 1074.23,-1035 1074.23,-1023 1074.23,-1023 1074.23,-1017 1080.23,-1011 1086.23,-1011 1086.23,-1011 1199.51,-1011 1199.51,-1011 1205.51,-1011 1211.51,-1017 1211.51,-1023 1211.51,-1023 1211.51,-1035 1211.51,-1035 1211.51,-1041 1205.51,-1047 1199.51,-1047"/>
<text text-anchor="middle" x="1142.87" y="-1025.15" font-family="Arial" font-size="11.00" fill="#1f2933">Desplegar produccion</text>
</g>
<!-- validation_ok&#45;&gt;deploy_prod -->
<g id="edge43" class="edge">
<title>validation_ok&#45;&gt;deploy_prod</title>
<path fill="none" stroke="#4f5b67" d="M868.07,-806.9C935.24,-806.9 1082.22,-806.9 1082.22,-806.9 1082.22,-806.9 1082.22,-1002.31 1082.22,-1002.31"/>
<polygon fill="#4f5b67" stroke="#4f5b67" points="1079.77,-1002.31 1082.22,-1009.31 1084.67,-1002.31 1079.77,-1002.31"/>
<text text-anchor="middle" x="995.41" y="-867.5" font-family="Arial" font-size="10.00">Si</text>
</g>
<!-- send_initiative -->
<g id="node11" class="node">
<title>send_initiative</title>
<path fill="#f7f8fa" stroke="#4f5b67" d="M875.91,-1377C875.91,-1377 794.63,-1377 794.63,-1377 788.63,-1377 782.63,-1371 782.63,-1365 782.63,-1365 782.63,-1353 782.63,-1353 782.63,-1347 788.63,-1341 794.63,-1341 794.63,-1341 875.91,-1341 875.91,-1341 881.91,-1341 887.91,-1347 887.91,-1353 887.91,-1353 887.91,-1365 887.91,-1365 887.91,-1371 881.91,-1377 875.91,-1377"/>
<text text-anchor="middle" x="835.27" y="-1355.15" font-family="Arial" font-size="11.00" fill="#1f2933">Enviar iniciativa</text>
</g>
<!-- formalize_brief&#45;&gt;send_initiative -->
<g id="edge2" class="edge">
<title>formalize_brief&#45;&gt;send_initiative</title>
<path fill="none" stroke="#4f5b67" d="M633.86,-1364C633.86,-1364 773.66,-1364 773.66,-1364"/>
<polygon fill="#4f5b67" stroke="#4f5b67" points="773.66,-1366.45 780.66,-1364 773.66,-1361.55 773.66,-1366.45"/>
</g>
<!-- review_brief -->
<g id="node13" class="node">
<title>review_brief</title>
<path fill="#f7f8fa" stroke="#4f5b67" d="M613.14,-659C613.14,-659 550.86,-659 550.86,-659 544.86,-659 538.86,-653 538.86,-647 538.86,-647 538.86,-635 538.86,-635 538.86,-629 544.86,-623 550.86,-623 550.86,-623 613.14,-623 613.14,-623 619.14,-623 625.14,-629 625.14,-635 625.14,-635 625.14,-647 625.14,-647 625.14,-653 619.14,-659 613.14,-659"/>
<text text-anchor="middle" x="582" y="-637.15" font-family="Arial" font-size="11.00" fill="#1f2933">Revisar brief</text>
</g>
<!-- send_initiative&#45;&gt;review_brief -->
<g id="edge3" class="edge">
<title>send_initiative&#45;&gt;review_brief</title>
<path fill="none" stroke="#4f5b67" d="M782.14,-1346C733.89,-1346 670.22,-1346 670.22,-1346 670.22,-1346 670.22,-647 670.22,-647 670.22,-647 634.11,-647 634.11,-647"/>
<polygon fill="#4f5b67" stroke="#4f5b67" points="634.11,-644.55 627.11,-647 634.11,-649.45 634.11,-644.55"/>
</g>
<!-- update_brief -->
<g id="node12" class="node">
<title>update_brief</title>
<path fill="#f7f8fa" stroke="#4f5b67" d="M353.96,-1339C353.96,-1339 277.68,-1339 277.68,-1339 271.68,-1339 265.68,-1333 265.68,-1327 265.68,-1327 265.68,-1315 265.68,-1315 265.68,-1309 271.68,-1303 277.68,-1303 277.68,-1303 353.96,-1303 353.96,-1303 359.96,-1303 365.96,-1309 365.96,-1315 365.96,-1315 365.96,-1327 365.96,-1327 365.96,-1333 359.96,-1339 353.96,-1339"/>
<text text-anchor="middle" x="315.82" y="-1317.15" font-family="Arial" font-size="11.00" fill="#1f2933">Actualizar brief</text>
</g>
<!-- update_brief&#45;&gt;review_brief -->
<g id="edge7" class="edge">
<title>update_brief&#45;&gt;review_brief</title>
<path fill="none" stroke="#4f5b67" d="M333.22,-1302.81C333.22,-1194.67 333.22,-641 333.22,-641 333.22,-641 529.87,-641 529.87,-641"/>
<polygon fill="#4f5b67" stroke="#4f5b67" points="529.87,-643.45 536.87,-641 529.87,-638.55 529.87,-643.45"/>
</g>
<!-- review_brief&#45;&gt;brief_ok -->
<g id="edge4" class="edge">
<title>review_brief&#45;&gt;brief_ok</title>
<path fill="none" stroke="#4f5b67" d="M625.54,-635C625.54,-635 755.58,-635 755.58,-635"/>
<polygon fill="#4f5b67" stroke="#4f5b67" points="755.58,-637.45 762.58,-635 755.58,-632.55 755.58,-637.45"/>
</g>
<!-- request_updates&#45;&gt;update_brief -->
<g id="edge6" class="edge">
<title>request_updates&#45;&gt;update_brief</title>
<path fill="none" stroke="#4f5b67" d="M1090.41,-366C906.1,-366 299.22,-366 299.22,-366 299.22,-366 299.22,-1294.26 299.22,-1294.26"/>
<polygon fill="#4f5b67" stroke="#4f5b67" points="296.77,-1294.26 299.22,-1301.26 301.67,-1294.26 296.77,-1294.26"/>
</g>
<!-- create_epic -->
<g id="node16" class="node">
<title>create_epic</title>
<path fill="#f7f8fa" stroke="#4f5b67" d="M1429.11,-599C1429.11,-599 1372.83,-599 1372.83,-599 1366.83,-599 1360.83,-593 1360.83,-587 1360.83,-587 1360.83,-575 1360.83,-575 1360.83,-569 1366.83,-563 1372.83,-563 1372.83,-563 1429.11,-563 1429.11,-563 1435.11,-563 1441.11,-569 1441.11,-575 1441.11,-575 1441.11,-587 1441.11,-587 1441.11,-593 1435.11,-599 1429.11,-599"/>
<text text-anchor="middle" x="1400.97" y="-577.15" font-family="Arial" font-size="11.00" fill="#1f2933">Crear epica</text>
</g>
<!-- estimate_effort&#45;&gt;create_epic -->
<g id="edge9" class="edge">
<title>estimate_effort&#45;&gt;create_epic</title>
<path fill="none" stroke="#4f5b67" d="M1189.31,-586.5C1189.31,-586.5 1351.91,-586.5 1351.91,-586.5"/>
<polygon fill="#4f5b67" stroke="#4f5b67" points="1351.91,-588.95 1358.91,-586.5 1351.91,-584.05 1351.91,-588.95"/>
</g>
<!-- evaluate_initiative -->
<g id="node28" class="node">
<title>evaluate_initiative</title>
<path fill="#f7f8fa" stroke="#4f5b67" d="M115.28,-188C115.28,-188 28,-188 28,-188 22,-188 16,-182 16,-176 16,-176 16,-164 16,-164 16,-158 22,-152 28,-152 28,-152 115.28,-152 115.28,-152 121.28,-152 127.28,-158 127.28,-164 127.28,-164 127.28,-176 127.28,-176 127.28,-182 121.28,-188 115.28,-188"/>
<text text-anchor="middle" x="71.64" y="-166.15" font-family="Arial" font-size="11.00" fill="#1f2933">Evaluar iniciativa</text>
</g>
<!-- create_epic&#45;&gt;evaluate_initiative -->
<g id="edge10" class="edge">
<title>create_epic&#45;&gt;evaluate_initiative</title>
<path fill="none" stroke="#4f5b67" d="M1401.22,-562.59C1401.22,-549.32 1401.22,-533.74 1401.22,-533.74 1401.22,-533.74 72.22,-533.74 72.22,-533.74 72.22,-533.74 72.22,-196.8 72.22,-196.8"/>
<polygon fill="#4f5b67" stroke="#4f5b67" points="74.67,-196.8 72.22,-189.8 69.77,-196.8 74.67,-196.8"/>
</g>
<!-- reject_epic&#45;&gt;end_reject -->
<g id="edge13" class="edge">
<title>reject_epic&#45;&gt;end_reject</title>
<path fill="none" stroke="#4f5b67" d="M643.96,-503.26C643.96,-503.26 818.46,-503.26 818.46,-503.26"/>
<polygon fill="#4f5b67" stroke="#4f5b67" points="818.46,-505.71 825.46,-503.26 818.46,-500.81 818.46,-505.71"/>
</g>
<!-- close_active -->
<g id="node18" class="node">
<title>close_active</title>
<path fill="#f7f8fa" stroke="#4f5b67" d="M635.64,-355C635.64,-355 528.36,-355 528.36,-355 522.36,-355 516.36,-349 516.36,-343 516.36,-343 516.36,-331 516.36,-331 516.36,-325 522.36,-319 528.36,-319 528.36,-319 635.64,-319 635.64,-319 641.64,-319 647.64,-325 647.64,-331 647.64,-331 647.64,-343 647.64,-343 647.64,-349 641.64,-355 635.64,-355"/>
<text text-anchor="middle" x="582" y="-333.15" font-family="Arial" font-size="11.00" fill="#1f2933">Cerrar trabajo activo</text>
</g>
<!-- review_capacity_again -->
<g id="node32" class="node">
<title>review_capacity_again</title>
<path fill="#f7f8fa" stroke="#4f5b67" d="M881.91,-128C881.91,-128 788.63,-128 788.63,-128 782.63,-128 776.63,-122 776.63,-116 776.63,-116 776.63,-104 776.63,-104 776.63,-98 782.63,-92 788.63,-92 788.63,-92 881.91,-92 881.91,-92 887.91,-92 893.91,-98 893.91,-104 893.91,-104 893.91,-116 893.91,-116 893.91,-122 887.91,-128 881.91,-128"/>
<text text-anchor="middle" x="835.27" y="-106.15" font-family="Arial" font-size="11.00" fill="#1f2933">Revisar capacidad</text>
</g>
<!-- close_active&#45;&gt;review_capacity_again -->
<g id="edge19" class="edge">
<title>close_active&#45;&gt;review_capacity_again</title>
<path fill="none" stroke="#4f5b67" d="M642.22,-318.81C642.22,-264.94 642.22,-110 642.22,-110 642.22,-110 767.79,-110 767.79,-110"/>
<polygon fill="#4f5b67" stroke="#4f5b67" points="767.79,-112.45 774.79,-110 767.79,-107.55 767.79,-112.45"/>
</g>
<!-- estimate_features -->
<g id="node20" class="node">
<title>estimate_features</title>
<path fill="#f7f8fa" stroke="#4f5b67" d="M877.41,-460C877.41,-460 793.13,-460 793.13,-460 787.13,-460 781.13,-454 781.13,-448 781.13,-448 781.13,-436 781.13,-436 781.13,-430 787.13,-424 793.13,-424 793.13,-424 877.41,-424 877.41,-424 883.41,-424 889.41,-430 889.41,-436 889.41,-436 889.41,-448 889.41,-448 889.41,-454 883.41,-460 877.41,-460"/>
<text text-anchor="middle" x="835.27" y="-438.15" font-family="Arial" font-size="11.00" fill="#1f2933">Estimar features</text>
</g>
<!-- define_features&#45;&gt;estimate_features -->
<g id="edge22" class="edge">
<title>define_features&#45;&gt;estimate_features</title>
<path fill="none" stroke="#4f5b67" d="M633.56,-427.5C633.56,-427.5 772.21,-427.5 772.21,-427.5"/>
<polygon fill="#4f5b67" stroke="#4f5b67" points="772.21,-429.95 779.21,-427.5 772.21,-425.05 772.21,-429.95"/>
</g>
<!-- assign_features -->
<g id="node21" class="node">
<title>assign_features</title>
<path fill="#f7f8fa" stroke="#4f5b67" d="M1184.51,-478C1184.51,-478 1101.23,-478 1101.23,-478 1095.23,-478 1089.23,-472 1089.23,-466 1089.23,-466 1089.23,-454 1089.23,-454 1089.23,-448 1095.23,-442 1101.23,-442 1101.23,-442 1184.51,-442 1184.51,-442 1190.51,-442 1196.51,-448 1196.51,-454 1196.51,-454 1196.51,-466 1196.51,-466 1196.51,-472 1190.51,-478 1184.51,-478"/>
<text text-anchor="middle" x="1142.87" y="-456.15" font-family="Arial" font-size="11.00" fill="#1f2933">Asignar features</text>
</g>
<!-- estimate_features&#45;&gt;assign_features -->
<g id="edge23" class="edge">
<title>estimate_features&#45;&gt;assign_features</title>
<path fill="none" stroke="#4f5b67" d="M889.91,-451C889.91,-451 1080.23,-451 1080.23,-451"/>
<polygon fill="#4f5b67" stroke="#4f5b67" points="1080.23,-453.45 1087.23,-451 1080.23,-448.55 1080.23,-453.45"/>
</g>
<!-- verify_deps -->
<g id="node22" class="node">
<title>verify_deps</title>
<path fill="#f7f8fa" stroke="#4f5b67" d="M1460.11,-507C1460.11,-507 1341.83,-507 1341.83,-507 1335.83,-507 1329.83,-501 1329.83,-495 1329.83,-495 1329.83,-483 1329.83,-483 1329.83,-477 1335.83,-471 1341.83,-471 1341.83,-471 1460.11,-471 1460.11,-471 1466.11,-471 1472.11,-477 1472.11,-483 1472.11,-483 1472.11,-495 1472.11,-495 1472.11,-501 1466.11,-507 1460.11,-507"/>
<text text-anchor="middle" x="1400.97" y="-485.15" font-family="Arial" font-size="11.00" fill="#1f2933">Verificar dependencias</text>
</g>
<!-- assign_features&#45;&gt;verify_deps -->
<g id="edge24" class="edge">
<title>assign_features&#45;&gt;verify_deps</title>
<path fill="none" stroke="#4f5b67" d="M1196.98,-474.5C1196.98,-474.5 1321.27,-474.5 1321.27,-474.5"/>
<polygon fill="#4f5b67" stroke="#4f5b67" points="1321.27,-476.95 1328.27,-474.5 1321.27,-472.05 1321.27,-476.95"/>
</g>
<!-- verify_deps&#45;&gt;deps_ok -->
<g id="edge25" class="edge">
<title>verify_deps&#45;&gt;deps_ok</title>
<path fill="none" stroke="#4f5b67" d="M1466.22,-507.23C1466.22,-562 1466.22,-721.32 1466.22,-721.32 1466.22,-721.32 1605.21,-721.32 1605.21,-721.32"/>
<polygon fill="#4f5b67" stroke="#4f5b67" points="1605.21,-723.77 1612.21,-721.32 1605.21,-718.87 1605.21,-723.77"/>
</g>
<!-- agree_contract -->
<g id="node33" class="node">
<title>agree_contract</title>
<path fill="#f7f8fa" stroke="#4f5b67" d="M1185.51,-971C1185.51,-971 1100.23,-971 1100.23,-971 1094.23,-971 1088.23,-965 1088.23,-959 1088.23,-959 1088.23,-947 1088.23,-947 1088.23,-941 1094.23,-935 1100.23,-935 1100.23,-935 1185.51,-935 1185.51,-935 1191.51,-935 1197.51,-941 1197.51,-947 1197.51,-947 1197.51,-959 1197.51,-959 1197.51,-965 1191.51,-971 1185.51,-971"/>
<text text-anchor="middle" x="1142.87" y="-949.15" font-family="Arial" font-size="11.00" fill="#1f2933">Acordar contrato</text>
</g>
<!-- block_epic&#45;&gt;agree_contract -->
<g id="edge27" class="edge">
<title>block_epic&#45;&gt;agree_contract</title>
<path fill="none" stroke="#4f5b67" d="M1965.08,-792.07C1791.61,-792.07 1291.22,-792.07 1291.22,-792.07 1291.22,-792.07 1291.22,-947 1291.22,-947 1291.22,-947 1206.2,-947 1206.2,-947"/>
<polygon fill="#4f5b67" stroke="#4f5b67" points="1206.2,-944.55 1199.2,-947 1206.2,-949.45 1206.2,-944.55"/>
</g>
<!-- reactivate_epic -->
<g id="node24" class="node">
<title>reactivate_epic</title>
<path fill="#f7f8fa" stroke="#4f5b67" d="M1439.61,-683C1439.61,-683 1362.33,-683 1362.33,-683 1356.33,-683 1350.33,-677 1350.33,-671 1350.33,-671 1350.33,-659 1350.33,-659 1350.33,-653 1356.33,-647 1362.33,-647 1362.33,-647 1439.61,-647 1439.61,-647 1445.61,-647 1451.61,-653 1451.61,-659 1451.61,-659 1451.61,-671 1451.61,-671 1451.61,-677 1445.61,-683 1439.61,-683"/>
<text text-anchor="middle" x="1400.97" y="-661.15" font-family="Arial" font-size="11.00" fill="#1f2933">Reactivar epica</text>
</g>
<!-- reactivate_epic&#45;&gt;deps_ok -->
<g id="edge30" class="edge">
<title>reactivate_epic&#45;&gt;deps_ok</title>
<path fill="none" stroke="#4f5b67" d="M1401.22,-683.27C1401.22,-701.2 1401.22,-725.88 1401.22,-725.88 1401.22,-725.88 1571.91,-725.88 1571.91,-725.88"/>
<polygon fill="#4f5b67" stroke="#4f5b67" points="1571.91,-728.33 1578.91,-725.88 1571.91,-723.43 1571.91,-728.33"/>
</g>
<!-- validate_scope&#45;&gt;validation_ok -->
<g id="edge39" class="edge">
<title>validate_scope&#45;&gt;validation_ok</title>
<path fill="none" stroke="#4f5b67" d="M632.34,-793C632.34,-793 709.18,-793 709.18,-793"/>
<polygon fill="#4f5b67" stroke="#4f5b67" points="709.18,-795.45 716.18,-793 709.18,-790.55 709.18,-795.45"/>
</g>
<!-- validate_scope_again -->
<g id="node26" class="node">
<title>validate_scope_again</title>
<path fill="#f7f8fa" stroke="#4f5b67" d="M620.14,-735C620.14,-735 543.86,-735 543.86,-735 537.86,-735 531.86,-729 531.86,-723 531.86,-723 531.86,-711 531.86,-711 531.86,-705 537.86,-699 543.86,-699 543.86,-699 620.14,-699 620.14,-699 626.14,-699 632.14,-705 632.14,-711 632.14,-711 632.14,-723 632.14,-723 632.14,-729 626.14,-735 620.14,-735"/>
<text text-anchor="middle" x="582" y="-713.15" font-family="Arial" font-size="11.00" fill="#1f2933">Validar alcance</text>
</g>
<!-- validate_scope_again&#45;&gt;validation_ok -->
<g id="edge42" class="edge">
<title>validate_scope_again&#45;&gt;validation_ok</title>
<path fill="none" stroke="#4f5b67" d="M632.44,-730.44C674.03,-730.44 726.22,-730.44 726.22,-730.44 726.22,-730.44 726.22,-781.15 726.22,-781.15"/>
<polygon fill="#4f5b67" stroke="#4f5b67" points="723.77,-781.15 726.22,-788.15 728.67,-781.15 723.77,-781.15"/>
</g>
<!-- close_epic -->
<g id="node27" class="node">
<title>close_epic</title>
<path fill="#f7f8fa" stroke="#4f5b67" d="M612.14,-583C612.14,-583 551.86,-583 551.86,-583 545.86,-583 539.86,-577 539.86,-571 539.86,-571 539.86,-559 539.86,-559 539.86,-553 545.86,-547 551.86,-547 551.86,-547 612.14,-547 612.14,-547 618.14,-547 624.14,-553 624.14,-559 624.14,-559 624.14,-571 624.14,-571 624.14,-577 618.14,-583 612.14,-583"/>
<text text-anchor="middle" x="582" y="-561.15" font-family="Arial" font-size="11.00" fill="#1f2933">Cerrar epica</text>
</g>
<!-- close_epic&#45;&gt;end_close -->
<g id="edge46" class="edge">
<title>close_epic&#45;&gt;end_close</title>
<path fill="none" stroke="#4f5b67" d="M624.39,-567.51C624.39,-567.51 816.46,-567.51 816.46,-567.51"/>
<polygon fill="#4f5b67" stroke="#4f5b67" points="816.46,-569.96 823.46,-567.51 816.46,-565.06 816.46,-569.96"/>
</g>
<!-- evaluate_initiative&#45;&gt;approved -->
<g id="edge11" class="edge">
<title>evaluate_initiative&#45;&gt;approved</title>
<path fill="none" stroke="#4f5b67" d="M127.66,-173.1C127.66,-173.1 212.78,-173.1 212.78,-173.1"/>
<polygon fill="#4f5b67" stroke="#4f5b67" points="212.78,-175.55 219.78,-173.1 212.78,-170.65 212.78,-175.55"/>
</g>
<!-- review_capacity -->
<g id="node30" class="node">
<title>review_capacity</title>
<path fill="#f7f8fa" stroke="#4f5b67" d="M881.91,-52C881.91,-52 788.63,-52 788.63,-52 782.63,-52 776.63,-46 776.63,-40 776.63,-40 776.63,-28 776.63,-28 776.63,-22 782.63,-16 788.63,-16 788.63,-16 881.91,-16 881.91,-16 887.91,-16 893.91,-22 893.91,-28 893.91,-28 893.91,-40 893.91,-40 893.91,-46 887.91,-52 881.91,-52"/>
<text text-anchor="middle" x="835.27" y="-30.15" font-family="Arial" font-size="11.00" fill="#1f2933">Revisar capacidad</text>
</g>
<!-- prioritize_epic&#45;&gt;review_capacity -->
<g id="edge15" class="edge">
<title>prioritize_epic&#45;&gt;review_capacity</title>
<path fill="none" stroke="#4f5b67" d="M582.22,-160.64C582.22,-121.62 582.22,-34 582.22,-34 582.22,-34 767.75,-34 767.75,-34"/>
<polygon fill="#4f5b67" stroke="#4f5b67" points="767.75,-36.45 774.75,-34 767.75,-31.55 767.75,-36.45"/>
</g>
<!-- review_capacity&#45;&gt;capacity_ok -->
<g id="edge16" class="edge">
<title>review_capacity&#45;&gt;capacity_ok</title>
<path fill="none" stroke="#4f5b67" d="M836.22,-52.47C836.22,-66.57 836.22,-83.6 836.22,-83.6 836.22,-83.6 1086.11,-83.6 1086.11,-83.6"/>
<polygon fill="#4f5b67" stroke="#4f5b67" points="1086.11,-86.05 1093.11,-83.6 1086.11,-81.15 1086.11,-86.05"/>
</g>
<!-- freeze_intake&#45;&gt;close_active -->
<g id="edge18" class="edge">
<title>freeze_intake&#45;&gt;close_active</title>
<path fill="none" stroke="#4f5b67" d="M1349.01,-60.5C1176.89,-60.5 636.22,-60.5 636.22,-60.5 636.22,-60.5 636.22,-310.34 636.22,-310.34"/>
<polygon fill="#4f5b67" stroke="#4f5b67" points="633.77,-310.34 636.22,-317.34 638.67,-310.34 633.77,-310.34"/>
</g>
<!-- review_capacity_again&#45;&gt;capacity_ok -->
<g id="edge20" class="edge">
<title>review_capacity_again&#45;&gt;capacity_ok</title>
<path fill="none" stroke="#4f5b67" d="M894.22,-103.4C894.22,-103.4 1069.5,-103.4 1069.5,-103.4"/>
<polygon fill="#4f5b67" stroke="#4f5b67" points="1069.5,-105.85 1076.5,-103.4 1069.5,-100.95 1069.5,-105.85"/>
</g>
<!-- commit_delivery -->
<g id="node34" class="node">
<title>commit_delivery</title>
<path fill="#f7f8fa" stroke="#4f5b67" d="M1458.61,-1009C1458.61,-1009 1343.33,-1009 1343.33,-1009 1337.33,-1009 1331.33,-1003 1331.33,-997 1331.33,-997 1331.33,-985 1331.33,-985 1331.33,-979 1337.33,-973 1343.33,-973 1343.33,-973 1458.61,-973 1458.61,-973 1464.61,-973 1470.61,-979 1470.61,-985 1470.61,-985 1470.61,-997 1470.61,-997 1470.61,-1003 1464.61,-1009 1458.61,-1009"/>
<text text-anchor="middle" x="1400.97" y="-987.15" font-family="Arial" font-size="11.00" fill="#1f2933">Comprometer entrega</text>
</g>
<!-- agree_contract&#45;&gt;commit_delivery -->
<g id="edge28" class="edge">
<title>agree_contract&#45;&gt;commit_delivery</title>
<path fill="none" stroke="#4f5b67" d="M1197.99,-959C1254.83,-959 1335.22,-959 1335.22,-959 1335.22,-959 1335.22,-964.24 1335.22,-964.24"/>
<polygon fill="#4f5b67" stroke="#4f5b67" points="1332.77,-964.24 1335.22,-971.24 1337.67,-964.24 1332.77,-964.24"/>
</g>
<!-- commit_delivery&#45;&gt;reactivate_epic -->
<g id="edge29" class="edge">
<title>commit_delivery&#45;&gt;reactivate_epic</title>
<path fill="none" stroke="#4f5b67" d="M1339.22,-972.93C1339.22,-905.43 1339.22,-671.9 1339.22,-671.9 1339.22,-671.9 1341.47,-671.9 1341.47,-671.9"/>
<polygon fill="#4f5b67" stroke="#4f5b67" points="1341.47,-674.35 1348.47,-671.9 1341.47,-669.45 1341.47,-674.35"/>
</g>
<!-- build_stories -->
<g id="node36" class="node">
<title>build_stories</title>
<path fill="#f7f8fa" stroke="#4f5b67" d="M1448.11,-933C1448.11,-933 1353.83,-933 1353.83,-933 1347.83,-933 1341.83,-927 1341.83,-921 1341.83,-921 1341.83,-909 1341.83,-909 1341.83,-903 1347.83,-897 1353.83,-897 1353.83,-897 1448.11,-897 1448.11,-897 1454.11,-897 1460.11,-903 1460.11,-909 1460.11,-909 1460.11,-921 1460.11,-921 1460.11,-927 1454.11,-933 1448.11,-933"/>
<text text-anchor="middle" x="1400.97" y="-911.15" font-family="Arial" font-size="11.00" fill="#1f2933">Construir historias</text>
</g>
<!-- refine_stories&#45;&gt;build_stories -->
<g id="edge32" class="edge">
<title>refine_stories&#45;&gt;build_stories</title>
<path fill="none" stroke="#4f5b67" d="M1196.3,-877C1256.55,-877 1346.22,-877 1346.22,-877 1346.22,-877 1346.22,-888.38 1346.22,-888.38"/>
<polygon fill="#4f5b67" stroke="#4f5b67" points="1343.77,-888.38 1346.22,-895.38 1348.67,-888.38 1343.77,-888.38"/>
</g>
<!-- validate_features -->
<g id="node37" class="node">
<title>validate_features</title>
<path fill="#f7f8fa" stroke="#4f5b67" d="M1723.82,-971C1723.82,-971 1644.54,-971 1644.54,-971 1638.54,-971 1632.54,-965 1632.54,-959 1632.54,-959 1632.54,-947 1632.54,-947 1632.54,-941 1638.54,-935 1644.54,-935 1644.54,-935 1723.82,-935 1723.82,-935 1729.82,-935 1735.82,-941 1735.82,-947 1735.82,-947 1735.82,-959 1735.82,-959 1735.82,-965 1729.82,-971 1723.82,-971"/>
<text text-anchor="middle" x="1684.18" y="-949.15" font-family="Arial" font-size="11.00" fill="#1f2933">Validar features</text>
</g>
<!-- build_stories&#45;&gt;validate_features -->
<g id="edge33" class="edge">
<title>build_stories&#45;&gt;validate_features</title>
<path fill="none" stroke="#4f5b67" d="M1460.35,-915C1543.41,-915 1684.22,-915 1684.22,-915 1684.22,-915 1684.22,-926.38 1684.22,-926.38"/>
<polygon fill="#4f5b67" stroke="#4f5b67" points="1681.77,-926.38 1684.22,-933.38 1686.67,-926.38 1681.77,-926.38"/>
</g>
<!-- validate_features&#45;&gt;features_ok -->
<g id="edge34" class="edge">
<title>validate_features&#45;&gt;features_ok</title>
<path fill="none" stroke="#4f5b67" d="M1736.24,-952.33C1807.91,-952.33 1928.22,-952.33 1928.22,-952.33 1928.22,-952.33 1928.22,-994.55 1928.22,-994.55"/>
<polygon fill="#4f5b67" stroke="#4f5b67" points="1925.77,-994.55 1928.22,-1001.55 1930.67,-994.55 1925.77,-994.55"/>
</g>
<!-- validate_features_again -->
<g id="node39" class="node">
<title>validate_features_again</title>
<path fill="#f7f8fa" stroke="#4f5b67" d="M2488.22,-1022C2488.22,-1022 2408.94,-1022 2408.94,-1022 2402.94,-1022 2396.94,-1016 2396.94,-1010 2396.94,-1010 2396.94,-998 2396.94,-998 2396.94,-992 2402.94,-986 2408.94,-986 2408.94,-986 2488.22,-986 2488.22,-986 2494.22,-986 2500.22,-992 2500.22,-998 2500.22,-998 2500.22,-1010 2500.22,-1010 2500.22,-1016 2494.22,-1022 2488.22,-1022"/>
<text text-anchor="middle" x="2448.58" y="-1000.15" font-family="Arial" font-size="11.00" fill="#1f2933">Validar features</text>
</g>
<!-- fix_stories&#45;&gt;validate_features_again -->
<g id="edge36" class="edge">
<title>fix_stories&#45;&gt;validate_features_again</title>
<path fill="none" stroke="#4f5b67" d="M2330.27,-961C2381.56,-961 2449.22,-961 2449.22,-961 2449.22,-961 2449.22,-977 2449.22,-977"/>
<polygon fill="#4f5b67" stroke="#4f5b67" points="2446.77,-977 2449.22,-984 2451.67,-977 2446.77,-977"/>
</g>
<!-- validate_features_again&#45;&gt;features_ok -->
<g id="edge37" class="edge">
<title>validate_features_again&#45;&gt;features_ok</title>
<path fill="none" stroke="#4f5b67" d="M2396.46,-1004.6C2396.46,-1004.6 2135.8,-1004.6 2135.8,-1004.6"/>
<polygon fill="#4f5b67" stroke="#4f5b67" points="2135.8,-1002.15 2128.8,-1004.6 2135.8,-1007.05 2135.8,-1002.15"/>
</g>
<!-- fix_scope&#45;&gt;validate_scope_again -->
<g id="edge41" class="edge">
<title>fix_scope&#45;&gt;validate_scope_again</title>
<path fill="none" stroke="#4f5b67" d="M1089.1,-1099C1047.24,-1099 996.22,-1099 996.22,-1099 996.22,-1099 996.22,-716.76 996.22,-716.76 996.22,-716.76 640.89,-716.76 640.89,-716.76"/>
<polygon fill="#4f5b67" stroke="#4f5b67" points="640.89,-714.31 633.89,-716.76 640.89,-719.21 640.89,-714.31"/>
</g>
<!-- close_features -->
<g id="node42" class="node">
<title>close_features</title>
<path fill="#f7f8fa" stroke="#4f5b67" d="M1439.11,-1098C1439.11,-1098 1362.83,-1098 1362.83,-1098 1356.83,-1098 1350.83,-1092 1350.83,-1086 1350.83,-1086 1350.83,-1074 1350.83,-1074 1350.83,-1068 1356.83,-1062 1362.83,-1062 1362.83,-1062 1439.11,-1062 1439.11,-1062 1445.11,-1062 1451.11,-1068 1451.11,-1074 1451.11,-1074 1451.11,-1086 1451.11,-1086 1451.11,-1092 1445.11,-1098 1439.11,-1098"/>
<text text-anchor="middle" x="1400.97" y="-1076.15" font-family="Arial" font-size="11.00" fill="#1f2933">Cerrar features</text>
</g>
<!-- deploy_prod&#45;&gt;close_features -->
<g id="edge44" class="edge">
<title>deploy_prod&#45;&gt;close_features</title>
<path fill="none" stroke="#4f5b67" d="M1204.22,-1047.25C1204.22,-1058.32 1204.22,-1070.33 1204.22,-1070.33 1204.22,-1070.33 1342.05,-1070.33 1342.05,-1070.33"/>
<polygon fill="#4f5b67" stroke="#4f5b67" points="1342.05,-1072.78 1349.05,-1070.33 1342.05,-1067.88 1342.05,-1072.78"/>
</g>
<!-- close_features&#45;&gt;close_epic -->
<g id="edge45" class="edge">
<title>close_features&#45;&gt;close_epic</title>
<path fill="none" stroke="#4f5b67" d="M1350.36,-1078.67C1188.37,-1078.67 693.22,-1078.67 693.22,-1078.67 693.22,-1078.67 693.22,-574.49 693.22,-574.49 693.22,-574.49 632.88,-574.49 632.88,-574.49"/>
<polygon fill="#4f5b67" stroke="#4f5b67" points="632.88,-572.04 625.88,-574.49 632.88,-576.94 632.88,-572.04"/>
</g>
</g>
</svg>
