<?xml version="1.0" encoding="UTF-8"?>
<svg xmlns="http://www.w3.org/2000/svg" width="1554" height="254" viewBox="0 0 1554 254" role="img" aria-labelledby="title desc">
  <title id="title">Gestion de la Agenda Unica Luckia - vista general</title>
  <desc id="desc">Diagrama generado desde process.yaml con lanes horizontales, actores a la izquierda, tamanos fijos y conectores ortogonales.</desc>
  <defs>
    <marker id="arrow" viewBox="0 0 10 10" refX="9" refY="5" markerWidth="8" markerHeight="8" orient="auto-start-reverse">
      <path d="M 0 0 L 10 5 L 0 10 z" fill="#4f5b67"/>
    </marker>
  </defs>
  <rect x="24" y="24" width="1506" height="206" rx="0" fill="#ffffff" stroke="#4f5b67" stroke-width="1.5"/>
  <text x="777.0" y="56" text-anchor="middle" font-family="Arial, sans-serif" font-size="20" font-weight="700" fill="#1f2933">Gestion de la Agenda Unica Luckia - vista general</text>
  <rect x="24" y="80" width="1506" height="150" fill="#f8fafc" stroke="#d5dce6" stroke-width="1"/>
  <rect x="24" y="80" width="76" height="150" fill="#e6edf7" stroke="#d5dce6" stroke-width="1"/>
  <text x="62.0" y="155.0" text-anchor="middle" dominant-baseline="middle" transform="rotate(-90 62.0 155.0)" font-family="Arial, sans-serif" font-size="13" font-weight="700" fill="#1f2933">Proceso</text>
  <g fill="none" stroke="#4f5b67" stroke-width="1.4" marker-end="url(#arrow)">
    <polyline points="159.0,155.0 236.0,155.0 313.0,155.0"/>
    <polyline points="455.0,155.0 504.0,155.0 553.0,155.0"/>
    <polyline points="695.0,155.0 744.0,155.0 793.0,155.0"/>
    <polyline points="935.0,155.0 984.0,155.0 1033.0,155.0"/>
    <polyline points="1175.0,155.0 1252.0,155.0 1329.0,155.0"/>
  </g>
  <circle cx="144" cy="155.0" r="15.0" fill="#1f2933" stroke="#1f2933" stroke-width="1.5"/>
  <rect x="313.0" y="129.0" width="142" height="52" rx="4" fill="#ffffff" stroke="#4f5b67" stroke-width="1.5"/>
  <text x="384" y="145.0" text-anchor="middle" font-family="Arial, sans-serif" font-size="12" fill="#1f2933">Fase 0: Recepcion</text>
  <text x="384" y="159.0" text-anchor="middle" font-family="Arial, sans-serif" font-size="12" fill="#1f2933">y evaluacion</text>
  <text x="384" y="173.0" text-anchor="middle" font-family="Arial, sans-serif" font-size="12" fill="#1f2933">inicial</text>
  <rect x="553.0" y="129.0" width="142" height="52" rx="4" fill="#ffffff" stroke="#4f5b67" stroke-width="1.5"/>
  <text x="624" y="145.0" text-anchor="middle" font-family="Arial, sans-serif" font-size="12" fill="#1f2933">Fase 1: Definicion</text>
  <text x="624" y="159.0" text-anchor="middle" font-family="Arial, sans-serif" font-size="12" fill="#1f2933">funcional y</text>
  <text x="624" y="173.0" text-anchor="middle" font-family="Arial, sans-serif" font-size="12" fill="#1f2933">descomposicion</text>
  <rect x="793.0" y="129.0" width="142" height="52" rx="4" fill="#ffffff" stroke="#4f5b67" stroke-width="1.5"/>
  <text x="864" y="138.0" text-anchor="middle" font-family="Arial, sans-serif" font-size="12" fill="#1f2933">Fase 2:</text>
  <text x="864" y="152.0" text-anchor="middle" font-family="Arial, sans-serif" font-size="12" fill="#1f2933">Construccion y</text>
  <text x="864" y="166.0" text-anchor="middle" font-family="Arial, sans-serif" font-size="12" fill="#1f2933">validacion</text>
  <text x="864" y="180.0" text-anchor="middle" font-family="Arial, sans-serif" font-size="12" fill="#1f2933">funcional</text>
  <rect x="1033.0" y="129.0" width="142" height="52" rx="4" fill="#ffffff" stroke="#4f5b67" stroke-width="1.5"/>
  <text x="1104" y="145.0" text-anchor="middle" font-family="Arial, sans-serif" font-size="12" fill="#1f2933">Fase 3: Validacion</text>
  <text x="1104" y="159.0" text-anchor="middle" font-family="Arial, sans-serif" font-size="12" fill="#1f2933">integrada y</text>
  <text x="1104" y="173.0" text-anchor="middle" font-family="Arial, sans-serif" font-size="12" fill="#1f2933">despliegue</text>
  <circle cx="1344" cy="155.0" r="15.0" fill="#ffffff" stroke="#1f2933" stroke-width="2"/>
  <circle cx="1344" cy="155.0" r="10.0" fill="#1f2933" stroke="none"/>
</svg>
